<svg width="264" height="264" viewBox="0 0 264 264" fill="none" xmlns="http://www.w3.org/2000/svg">
<mask id="mask0_104_2373" style="mask-type:alpha" maskUnits="userSpaceOnUse" x="0" y="0" width="264" height="264">
<rect width="264" height="264" rx="24" fill="white"/>
</mask>
<g mask="url(#mask0_104_2373)">
<rect width="264" height="264" rx="24" fill="#00FFAA"/>
<path d="M122.188 197.935C122.91 198.296 122.91 198.657 122.188 199.018C121.466 199.379 120.744 199.379 120.022 199.018C119.3 198.657 119.3 198.296 120.022 197.935C120.744 197.573 121.827 197.573 122.188 197.935Z" fill="#212429"/>
<path d="M127.604 194.685C128.326 195.046 128.326 195.407 127.604 195.768C126.882 196.129 126.16 196.129 125.438 195.768C124.716 195.407 124.716 195.046 125.438 194.685C126.16 194.324 127.243 194.324 127.604 194.685Z" fill="#212429"/>
<path d="M133.381 191.796C134.104 192.157 134.104 192.518 133.381 192.879C132.659 193.24 131.937 193.24 131.215 192.879C130.493 192.518 130.493 192.157 131.215 191.796C131.937 191.435 132.659 191.435 133.381 191.796Z" fill="#212429"/>
<path d="M138.798 188.546C139.52 188.907 139.52 189.268 138.798 189.629C138.075 189.99 137.353 189.99 136.631 189.629C135.909 189.268 135.909 188.907 136.631 188.546C137.353 188.185 138.075 188.185 138.798 188.546Z" fill="#212429"/>
<path d="M116.772 194.685C117.494 195.046 117.494 195.407 116.772 195.768C116.05 196.129 115.328 196.129 114.606 195.768C113.883 195.407 113.883 195.046 114.606 194.685C115.328 194.324 116.05 194.324 116.772 194.685Z" fill="#212429"/>
<path d="M122.188 191.796C122.91 192.157 122.91 192.518 122.188 192.879C121.466 193.24 120.744 193.24 120.022 192.879C119.3 192.518 119.3 192.157 120.022 191.796C120.744 191.435 121.827 191.435 122.188 191.796Z" fill="#212429"/>
<path d="M126.521 189.63C127.319 189.63 127.965 189.306 127.965 188.908C127.965 188.509 127.319 188.185 126.521 188.185C125.723 188.185 125.077 188.509 125.077 188.908C125.077 189.306 125.723 189.63 126.521 189.63Z" fill="#212429"/>
<path d="M133.381 185.297C134.104 185.658 134.104 186.019 133.381 186.38C132.659 186.741 131.937 186.741 131.215 186.38C130.493 186.019 130.493 185.658 131.215 185.297C131.576 184.936 132.659 184.936 133.381 185.297Z" fill="#212429"/>
<path d="M110.273 192.879C111.07 192.879 111.717 192.555 111.717 192.157C111.717 191.758 111.07 191.434 110.273 191.434C109.475 191.434 108.828 191.758 108.828 192.157C108.828 192.555 109.475 192.879 110.273 192.879Z" fill="#212429"/>
<path d="M116.772 188.546C117.494 188.907 117.494 189.268 116.772 189.629C116.05 189.99 115.328 189.99 114.606 189.629C113.883 189.268 113.883 188.907 114.606 188.546C115.328 188.185 116.05 188.185 116.772 188.546Z" fill="#212429"/>
<path d="M122.188 185.297C122.91 185.658 122.91 186.019 122.188 186.38C121.466 186.741 120.744 186.741 120.022 186.38C119.3 186.019 119.3 185.658 120.022 185.297C120.744 184.936 121.827 184.936 122.188 185.297Z" fill="#212429"/>
<path d="M126.521 183.491C127.319 183.491 127.965 183.168 127.965 182.769C127.965 182.37 127.319 182.047 126.521 182.047C125.723 182.047 125.077 182.37 125.077 182.769C125.077 183.168 125.723 183.491 126.521 183.491Z" fill="#212429"/>
<path d="M105.94 188.546C106.662 188.907 106.662 189.268 105.94 189.629C105.218 189.99 104.495 189.99 103.773 189.629C103.051 189.268 103.051 188.907 103.773 188.546C104.134 188.185 105.218 188.185 105.94 188.546Z" fill="#212429"/>
<path d="M111.356 185.297C112.078 185.658 112.078 186.019 111.356 186.38C110.634 186.741 109.911 186.741 109.189 186.38C108.467 186.019 108.467 185.658 109.189 185.297C109.911 184.936 110.634 184.936 111.356 185.297Z" fill="#212429"/>
<path d="M115.689 183.491C116.486 183.491 117.133 183.168 117.133 182.769C117.133 182.37 116.486 182.047 115.689 182.047C114.891 182.047 114.244 182.37 114.244 182.769C114.244 183.168 114.891 183.491 115.689 183.491Z" fill="#212429"/>
<path d="M122.188 178.796C122.91 179.158 122.91 179.519 122.188 179.88C121.466 180.241 120.744 180.241 120.022 179.88C119.3 179.519 119.3 179.158 120.022 178.796C120.744 178.796 121.827 178.796 122.188 178.796Z" fill="#212429"/>
<path d="M126.521 176.992C127.319 176.992 127.965 176.669 127.965 176.27C127.965 175.871 127.319 175.548 126.521 175.548C125.723 175.548 125.077 175.871 125.077 176.27C125.077 176.669 125.723 176.992 126.521 176.992Z" fill="#212429"/>
<path d="M100.163 185.297C100.885 185.658 100.885 186.019 100.163 186.38C99.4404 186.741 98.7182 186.741 97.9961 186.38C97.2739 186.019 97.2739 185.658 97.9961 185.297C98.7182 184.936 99.8015 184.936 100.163 185.297Z" fill="#212429"/>
<path d="M105.94 182.047C106.662 182.408 106.662 182.769 105.94 183.13C105.218 183.491 104.495 183.491 103.773 183.13C103.051 182.769 103.051 182.408 103.773 182.047C104.134 181.686 105.218 181.686 105.94 182.047Z" fill="#212429"/>
<path d="M111.356 178.796C112.078 179.158 112.078 179.519 111.356 179.88C110.634 180.241 109.911 180.241 109.189 179.88C108.467 179.519 108.467 179.158 109.189 178.796C109.911 178.796 110.634 178.796 111.356 178.796Z" fill="#212429"/>
<path d="M115.689 176.992C116.486 176.992 117.133 176.669 117.133 176.27C117.133 175.871 116.486 175.548 115.689 175.548C114.891 175.548 114.244 175.871 114.244 176.27C114.244 176.669 114.891 176.992 115.689 176.992Z" fill="#212429"/>
<path d="M122.188 172.659C122.91 173.02 122.91 173.381 122.188 173.742C121.466 174.103 120.744 174.103 120.022 173.742C119.3 173.381 119.3 173.02 120.022 172.659C120.744 172.298 121.827 172.298 122.188 172.659Z" fill="#212429"/>
<path d="M127.604 169.41C128.326 169.771 128.326 170.132 127.604 170.493C126.882 170.854 126.16 170.854 125.438 170.493C124.716 170.132 124.716 169.771 125.438 169.41C126.16 169.049 127.243 169.049 127.604 169.41Z" fill="#212429"/>
<path d="M94.7464 182.047C95.4685 182.408 95.4685 182.769 94.7464 183.13C94.0242 183.491 93.3021 183.491 92.5799 183.13C91.8578 182.769 91.8578 182.408 92.5799 182.047C93.3021 181.686 94.3853 181.686 94.7464 182.047Z" fill="#212429"/>
<path d="M100.163 178.797C100.885 179.158 100.885 179.519 100.163 179.88C99.4404 180.241 98.7182 180.241 97.9961 179.88C97.2739 179.519 97.2739 179.158 97.9961 178.797C98.7182 178.436 99.8015 178.436 100.163 178.797Z" fill="#212429"/>
<path d="M105.94 175.908C106.662 176.269 106.662 176.63 105.94 176.991C105.218 177.353 104.495 177.353 103.773 176.991C103.051 176.63 103.051 176.269 103.773 175.908C104.134 175.547 105.218 175.547 105.94 175.908Z" fill="#212429"/>
<path d="M110.273 174.103C111.07 174.103 111.717 173.78 111.717 173.381C111.717 172.982 111.07 172.659 110.273 172.659C109.475 172.659 108.828 172.982 108.828 173.381C108.828 173.78 109.475 174.103 110.273 174.103Z" fill="#212429"/>
<path d="M116.772 169.41C117.494 169.771 117.494 170.132 116.772 170.493C116.05 170.854 115.328 170.854 114.606 170.493C113.883 170.132 113.883 169.771 114.606 169.41C115.328 169.049 116.05 169.049 116.772 169.41Z" fill="#212429"/>
<path d="M122.188 166.159C122.91 166.52 122.91 166.881 122.188 167.242C121.466 167.603 120.744 167.603 120.022 167.242C119.3 166.881 119.3 166.52 120.022 166.159C120.744 165.798 121.466 165.798 122.188 166.159Z" fill="#212429"/>
<path d="M127.604 163.27C128.326 163.631 128.326 163.992 127.604 164.353C126.882 164.715 126.16 164.715 125.438 164.353C124.716 163.992 124.716 163.631 125.438 163.27C126.16 162.909 127.243 162.909 127.604 163.27Z" fill="#212429"/>
<path d="M89.3303 178.797C90.0524 179.158 90.0524 179.519 89.3303 179.88C88.6081 180.241 87.886 180.241 87.1638 179.88C86.4417 179.519 86.4417 179.158 87.1638 178.797C87.886 178.436 88.6081 178.436 89.3303 178.797Z" fill="#212429"/>
<path d="M94.7464 175.908C95.4685 176.269 95.4685 176.63 94.7464 176.991C94.0242 177.353 93.3021 177.353 92.5799 176.991C91.8578 176.63 91.8578 176.269 92.5799 175.908C93.3021 175.547 94.3853 175.547 94.7464 175.908Z" fill="#212429"/>
<path d="M99.0793 174.103C99.877 174.103 100.524 173.78 100.524 173.381C100.524 172.982 99.877 172.659 99.0793 172.659C98.2817 172.659 97.635 172.982 97.635 173.381C97.635 173.78 98.2817 174.103 99.0793 174.103Z" fill="#212429"/>
<path d="M105.94 169.41C106.662 169.771 106.662 170.132 105.94 170.493C105.218 170.854 104.495 170.854 103.773 170.493C103.051 170.132 103.051 169.771 103.773 169.41C104.134 169.049 105.218 169.049 105.94 169.41Z" fill="#212429"/>
<path d="M110.273 167.603C111.07 167.603 111.717 167.28 111.717 166.881C111.717 166.483 111.07 166.159 110.273 166.159C109.475 166.159 108.828 166.483 108.828 166.881C108.828 167.28 109.475 167.603 110.273 167.603Z" fill="#212429"/>
<path d="M116.772 163.27C117.494 163.631 117.494 163.992 116.772 164.353C116.05 164.715 115.328 164.715 114.606 164.353C113.883 163.992 113.883 163.631 114.606 163.27C115.328 162.909 116.05 162.909 116.772 163.27Z" fill="#212429"/>
<path d="M122.188 160.021C122.91 160.382 122.91 160.743 122.188 161.104C121.466 161.465 120.744 161.465 120.022 161.104C119.3 160.743 119.3 160.382 120.022 160.021C120.744 159.66 121.466 159.66 122.188 160.021Z" fill="#212429"/>
<path d="M83.9142 175.908C84.6364 176.269 84.6364 176.63 83.9142 176.991C83.1921 177.353 82.4699 177.353 81.7478 176.991C81.0256 176.63 81.0256 176.269 81.7478 175.908C82.4699 175.547 83.1921 175.547 83.9142 175.908Z" fill="#212429"/>
<path d="M89.3303 172.659C90.0524 173.02 90.0524 173.381 89.3303 173.742C88.6081 174.103 87.886 174.103 87.1638 173.742C86.4417 173.381 86.4417 173.02 87.1638 172.659C87.886 172.298 88.6081 172.298 89.3303 172.659Z" fill="#212429"/>
<path d="M94.7464 169.41C95.4685 169.771 95.4685 170.132 94.7464 170.493C94.0242 170.854 93.3021 170.854 92.5799 170.493C91.8578 170.132 91.8578 169.771 92.5799 169.41C93.3021 169.049 94.3853 169.049 94.7464 169.41Z" fill="#212429"/>
<path d="M100.163 166.159C100.885 166.52 100.885 166.881 100.163 167.242C99.4404 167.603 98.7182 167.603 97.9961 167.242C97.2739 166.881 97.2739 166.52 97.9961 166.159C98.7182 165.798 99.8015 165.798 100.163 166.159Z" fill="#212429"/>
<path d="M105.94 163.27C106.662 163.631 106.662 163.992 105.94 164.353C105.218 164.715 104.495 164.715 103.773 164.353C103.051 163.992 103.051 163.631 103.773 163.27C104.134 162.909 105.218 162.909 105.94 163.27Z" fill="#212429"/>
<path d="M110.273 161.105C111.07 161.105 111.717 160.781 111.717 160.382C111.717 159.984 111.07 159.66 110.273 159.66C109.475 159.66 108.828 159.984 108.828 160.382C108.828 160.781 109.475 161.105 110.273 161.105Z" fill="#212429"/>
<path d="M116.772 156.772C117.494 157.133 117.494 157.494 116.772 157.855C116.05 158.216 115.328 158.216 114.606 157.855C113.883 157.494 113.883 157.133 114.606 156.772C115.328 156.411 116.05 156.411 116.772 156.772Z" fill="#212429"/>
<path d="M78.4981 172.659C79.2203 173.02 79.2203 173.381 78.4981 173.742C77.776 174.103 77.0538 174.103 76.3317 173.742C75.6095 173.381 75.6095 173.02 76.3317 172.659C76.6927 172.298 77.776 172.298 78.4981 172.659Z" fill="#212429"/>
<path d="M83.9142 169.41C84.6364 169.771 84.6364 170.132 83.9142 170.493C83.1921 170.854 82.4699 170.854 81.7478 170.493C81.0256 170.132 81.0256 169.771 81.7478 169.41C82.4699 169.049 83.1921 169.049 83.9142 169.41Z" fill="#212429"/>
<path d="M89.3303 166.159C90.0524 166.52 90.0524 166.881 89.3303 167.242C88.6081 167.603 87.886 167.603 87.1638 167.242C86.4417 166.881 86.4417 166.52 87.1638 166.159C87.886 165.798 88.6081 165.798 89.3303 166.159Z" fill="#212429"/>
<path d="M94.7464 163.27C95.4685 163.631 95.4685 163.992 94.7464 164.353C94.0242 164.715 93.3021 164.715 92.5799 164.353C91.8578 163.992 91.8578 163.631 92.5799 163.27C93.3021 162.909 94.3853 162.909 94.7464 163.27Z" fill="#212429"/>
<path d="M99.0793 161.105C99.877 161.105 100.524 160.781 100.524 160.382C100.524 159.984 99.877 159.66 99.0793 159.66C98.2817 159.66 97.635 159.984 97.635 160.382C97.635 160.781 98.2817 161.105 99.0793 161.105Z" fill="#212429"/>
<path d="M105.94 156.772C106.662 157.133 106.662 157.494 105.94 157.855C105.218 158.216 104.495 158.216 103.773 157.855C103.051 157.494 103.051 157.133 103.773 156.772C104.134 156.411 105.218 156.411 105.94 156.772Z" fill="#212429"/>
<path d="M110.273 154.965C111.07 154.965 111.717 154.642 111.717 154.243C111.717 153.844 111.07 153.521 110.273 153.521C109.475 153.521 108.828 153.844 108.828 154.243C108.828 154.642 109.475 154.965 110.273 154.965Z" fill="#212429"/>
<path d="M72.7208 169.41C73.4429 169.771 73.4429 170.132 72.7208 170.493C71.9986 170.854 71.2765 170.854 70.5543 170.493C69.8322 170.132 69.8322 169.771 70.5543 169.41C71.2765 169.049 72.3597 169.049 72.7208 169.41Z" fill="#212429"/>
<path d="M78.4981 166.159C79.2203 166.52 79.2203 166.881 78.4981 167.242C77.776 167.603 77.0538 167.603 76.3317 167.242C75.6095 166.881 75.6095 166.52 76.3317 166.159C76.6927 165.798 77.776 165.798 78.4981 166.159Z" fill="#212429"/>
<path d="M83.9142 163.27C84.6364 163.631 84.6364 163.992 83.9142 164.353C83.1921 164.715 82.4699 164.715 81.7478 164.353C81.0256 163.992 81.0256 163.631 81.7478 163.27C82.4699 162.909 83.1921 162.909 83.9142 163.27Z" fill="#212429"/>
<path d="M88.2469 161.105C89.0446 161.105 89.6912 160.781 89.6912 160.382C89.6912 159.984 89.0446 159.66 88.2469 159.66C87.4493 159.66 86.8026 159.984 86.8026 160.382C86.8026 160.781 87.4493 161.105 88.2469 161.105Z" fill="#212429"/>
<path d="M94.7464 156.772C95.4685 157.133 95.4685 157.494 94.7464 157.855C94.0242 158.216 93.3021 158.216 92.5799 157.855C91.8578 157.494 91.8578 157.133 92.5799 156.772C93.3021 156.411 94.3853 156.411 94.7464 156.772Z" fill="#212429"/>
<path d="M100.163 153.522C100.885 153.883 100.885 154.244 100.163 154.605C99.4404 154.966 98.7182 154.966 97.9961 154.605C97.2739 154.244 97.2739 153.883 97.9961 153.522C98.7182 153.161 99.8015 153.161 100.163 153.522Z" fill="#212429"/>
<path d="M105.94 150.272C106.662 150.633 106.662 150.994 105.94 151.355C105.218 151.716 104.495 151.716 103.773 151.355C103.051 150.994 103.051 150.633 103.773 150.272C104.134 150.272 105.218 150.272 105.94 150.272Z" fill="#212429"/>
<path d="M67.3045 166.159C68.0267 166.52 68.0267 166.881 67.3045 167.242C66.5824 167.603 65.8602 167.603 65.138 167.242C64.4159 166.881 64.4159 166.52 65.138 166.159C65.8602 165.798 66.9435 165.798 67.3045 166.159Z" fill="#212429"/>
<path d="M72.7208 163.27C73.4429 163.631 73.4429 163.992 72.7208 164.353C71.9986 164.715 71.2765 164.715 70.5543 164.353C69.8322 163.992 69.8322 163.631 70.5543 163.27C71.2765 162.909 72.3597 162.909 72.7208 163.27Z" fill="#212429"/>
<path d="M78.4981 160.021C79.2203 160.382 79.2203 160.743 78.4981 161.104C77.776 161.465 77.0538 161.465 76.3317 161.104C75.6095 160.743 75.6095 160.382 76.3317 160.021C76.6927 159.66 77.776 159.66 78.4981 160.021Z" fill="#212429"/>
<path d="M83.9142 156.772C84.6364 157.133 84.6364 157.494 83.9142 157.855C83.1921 158.216 82.4699 158.216 81.7478 157.855C81.0256 157.494 81.0256 157.133 81.7478 156.772C82.4699 156.411 83.1921 156.411 83.9142 156.772Z" fill="#212429"/>
<path d="M94.7464 150.272C95.4685 150.633 95.4685 150.994 94.7464 151.355C94.0242 151.716 93.3021 151.716 92.5799 151.355C91.8578 150.994 91.8578 150.633 92.5799 150.272C93.3021 150.272 94.3853 150.272 94.7464 150.272Z" fill="#212429"/>
<path d="M100.163 147.384C100.885 147.745 100.885 148.106 100.163 148.467C99.4404 148.828 98.7182 148.828 97.9961 148.467C97.2739 148.106 97.2739 147.745 97.9961 147.384C98.7182 147.022 99.8015 147.022 100.163 147.384Z" fill="#212429"/>
<path d="M67.3045 160.021C68.0267 160.382 68.0267 160.743 67.3045 161.104C66.5824 161.465 65.8602 161.465 65.138 161.104C64.4159 160.743 64.4159 160.382 65.138 160.021C65.8602 159.66 66.9435 159.66 67.3045 160.021Z" fill="#212429"/>
<path d="M72.7208 156.772C73.4429 157.133 73.4429 157.494 72.7208 157.855C71.9986 158.216 71.2765 158.216 70.5543 157.855C69.8322 157.494 69.8322 157.133 70.5543 156.772C71.2765 156.411 72.3597 156.411 72.7208 156.772Z" fill="#212429"/>
<path d="M78.4981 153.522C79.2203 153.883 79.2203 154.244 78.4981 154.605C77.776 154.966 77.0538 154.966 76.3317 154.605C75.6095 154.244 75.6095 153.883 76.3317 153.522C76.6927 153.161 77.776 153.161 78.4981 153.522Z" fill="#212429"/>
<path d="M66.2213 154.965C67.019 154.965 67.6656 154.642 67.6656 154.243C67.6656 153.844 67.019 153.521 66.2213 153.521C65.4236 153.521 64.777 153.844 64.777 154.243C64.777 154.642 65.4236 154.965 66.2213 154.965Z" fill="#212429"/>
<path d="M72.7208 150.272C73.4429 150.633 73.4429 150.994 72.7208 151.355C71.9986 151.716 71.2765 151.716 70.5543 151.355C69.8322 150.994 69.8322 150.633 70.5543 150.272C71.2765 150.272 72.3597 150.272 72.7208 150.272Z" fill="#212429"/>
<path d="M166.24 216.349C166.962 216.71 166.962 217.072 166.24 217.433C165.517 217.794 164.795 217.794 164.073 217.433C163.351 217.072 163.351 216.71 164.073 216.349C164.795 215.988 165.878 215.988 166.24 216.349Z" fill="#212429"/>
<path d="M172.017 213.46C172.739 213.821 172.739 214.182 172.017 214.543C171.295 214.904 170.572 214.904 169.85 214.543C169.128 214.182 169.128 213.821 169.85 213.46C170.211 213.099 171.295 213.099 172.017 213.46Z" fill="#212429"/>
<path d="M177.433 210.21C178.155 210.571 178.155 210.932 177.433 211.293C176.711 211.655 175.988 211.655 175.266 211.293C174.544 210.932 174.544 210.571 175.266 210.21C175.988 209.849 176.711 209.849 177.433 210.21Z" fill="#212429"/>
<path d="M182.849 206.961C183.571 207.322 183.571 207.683 182.849 208.044C182.127 208.406 181.405 208.406 180.682 208.044C179.96 207.683 179.96 207.322 180.682 206.961C181.405 206.6 182.127 206.6 182.849 206.961Z" fill="#212429"/>
<path d="M188.265 203.711C188.987 204.072 188.987 204.434 188.265 204.795C187.543 205.156 186.821 205.156 186.099 204.795C185.376 204.434 185.376 204.072 186.099 203.711C186.821 203.35 187.904 203.35 188.265 203.711Z" fill="#212429"/>
<path d="M193.681 200.823C194.403 201.184 194.403 201.545 193.681 201.906C192.959 202.267 192.237 202.267 191.515 201.906C190.793 201.545 190.793 201.184 191.515 200.823C192.237 200.462 193.32 200.462 193.681 200.823Z" fill="#212429"/>
<path d="M199.458 197.572C200.18 197.933 200.18 198.294 199.458 198.655C198.736 199.017 198.014 199.017 197.292 198.655C196.57 198.294 196.57 197.933 197.292 197.572C197.653 197.211 198.736 197.211 199.458 197.572Z" fill="#212429"/>
<path d="M155.407 216.349C156.129 216.71 156.129 217.072 155.407 217.433C154.685 217.794 153.963 217.794 153.241 217.433C152.519 217.072 152.519 216.71 153.241 216.349C153.963 215.988 154.685 215.988 155.407 216.349Z" fill="#212429"/>
<path d="M160.823 213.46C161.545 213.821 161.545 214.182 160.823 214.543C160.101 214.904 159.379 214.904 158.657 214.543C157.935 214.182 157.935 213.821 158.657 213.46C159.379 213.099 160.462 213.099 160.823 213.46Z" fill="#212429"/>
<path d="M166.24 210.21C166.962 210.571 166.962 210.932 166.24 211.293C165.517 211.655 164.795 211.655 164.073 211.293C163.351 210.932 163.351 210.571 164.073 210.21C164.795 209.849 165.878 209.849 166.24 210.21Z" fill="#212429"/>
<path d="M172.017 206.961C172.739 207.322 172.739 207.683 172.017 208.044C171.295 208.406 170.572 208.406 169.85 208.044C169.128 207.683 169.128 207.322 169.85 206.961C170.211 206.6 171.295 206.6 172.017 206.961Z" fill="#212429"/>
<path d="M176.35 205.156C177.147 205.156 177.794 204.833 177.794 204.434C177.794 204.035 177.147 203.712 176.35 203.712C175.552 203.712 174.905 204.035 174.905 204.434C174.905 204.833 175.552 205.156 176.35 205.156Z" fill="#212429"/>
<path d="M182.849 200.823C183.571 201.184 183.571 201.545 182.849 201.906C182.127 202.267 181.405 202.267 180.682 201.906C179.96 201.545 179.96 201.184 180.682 200.823C181.405 200.462 182.127 200.462 182.849 200.823Z" fill="#212429"/>
<path d="M188.265 197.572C188.987 197.933 188.987 198.294 188.265 198.655C187.543 199.017 186.821 199.017 186.099 198.655C185.376 198.294 185.376 197.933 186.099 197.572C186.821 197.211 187.904 197.211 188.265 197.572Z" fill="#212429"/>
<path d="M193.681 194.324C194.403 194.685 194.403 195.046 193.681 195.407C192.959 195.768 192.237 195.768 191.515 195.407C190.793 195.046 190.793 194.685 191.515 194.324C192.237 193.963 193.32 193.963 193.681 194.324Z" fill="#212429"/>
<path d="M199.458 191.074C200.18 191.435 200.18 191.796 199.458 192.157C198.736 192.518 198.014 192.518 197.292 192.157C196.57 191.796 196.57 191.435 197.292 191.074C197.653 190.713 198.736 190.713 199.458 191.074Z" fill="#212429"/>
<path d="M149.991 213.46C150.713 213.821 150.713 214.182 149.991 214.543C149.269 214.904 148.547 214.904 147.825 214.543C147.102 214.182 147.102 213.821 147.825 213.46C148.547 213.099 149.269 213.099 149.991 213.46Z" fill="#212429"/>
<path d="M155.407 210.21C156.129 210.571 156.129 210.932 155.407 211.293C154.685 211.655 153.963 211.655 153.241 211.293C152.519 210.932 152.519 210.571 153.241 210.21C153.963 209.849 154.685 209.849 155.407 210.21Z" fill="#212429"/>
<path d="M160.823 206.961C161.545 207.322 161.545 207.683 160.823 208.044C160.101 208.406 159.379 208.406 158.657 208.044C157.935 207.683 157.935 207.322 158.657 206.961C159.379 206.6 160.462 206.6 160.823 206.961Z" fill="#212429"/>
<path d="M166.24 203.711C166.962 204.072 166.962 204.434 166.24 204.795C165.517 205.156 164.795 205.156 164.073 204.795C163.351 204.434 163.351 204.072 164.073 203.711C164.795 203.35 165.878 203.35 166.24 203.711Z" fill="#212429"/>
<path d="M172.017 200.823C172.739 201.184 172.739 201.545 172.017 201.906C171.295 202.267 170.572 202.267 169.85 201.906C169.128 201.545 169.128 201.184 169.85 200.823C170.211 200.462 171.295 200.462 172.017 200.823Z" fill="#212429"/>
<path d="M177.433 197.572C178.155 197.933 178.155 198.294 177.433 198.655C176.711 199.017 175.988 199.017 175.266 198.655C174.544 198.294 174.544 197.933 175.266 197.572C175.988 197.211 176.711 197.211 177.433 197.572Z" fill="#212429"/>
<path d="M182.849 194.324C183.571 194.685 183.571 195.046 182.849 195.407C182.127 195.768 181.405 195.768 180.682 195.407C179.96 195.046 179.96 194.685 180.682 194.324C181.405 193.963 182.127 193.963 182.849 194.324Z" fill="#212429"/>
<path d="M188.265 191.074C188.987 191.435 188.987 191.796 188.265 192.157C187.543 192.518 186.821 192.518 186.099 192.157C185.376 191.796 185.376 191.435 186.099 191.074C186.821 190.713 187.904 190.713 188.265 191.074Z" fill="#212429"/>
<path d="M193.681 187.824C194.403 188.185 194.403 188.546 193.681 188.907C192.959 189.268 192.237 189.268 191.515 188.907C190.793 188.546 190.793 188.185 191.515 187.824C192.237 187.824 193.32 187.824 193.681 187.824Z" fill="#212429"/>
<path d="M199.458 184.935C200.18 185.296 200.18 185.657 199.458 186.018C198.736 186.379 198.014 186.379 197.292 186.018C196.57 185.657 196.57 185.296 197.292 184.935C197.653 184.574 198.736 184.574 199.458 184.935Z" fill="#212429"/>
<path d="M144.575 210.21C145.297 210.571 145.297 210.932 144.575 211.293C143.853 211.655 143.131 211.655 142.409 211.293C141.686 210.932 141.686 210.571 142.409 210.21C142.77 209.849 143.853 209.849 144.575 210.21Z" fill="#212429"/>
<path d="M149.991 206.961C150.713 207.322 150.713 207.683 149.991 208.044C149.269 208.406 148.547 208.406 147.825 208.044C147.102 207.683 147.102 207.322 147.825 206.961C148.547 206.6 149.269 206.6 149.991 206.961Z" fill="#212429"/>
<path d="M155.407 203.711C156.129 204.072 156.129 204.434 155.407 204.795C154.685 205.156 153.963 205.156 153.241 204.795C152.519 204.434 152.519 204.072 153.241 203.711C153.963 203.35 154.685 203.35 155.407 203.711Z" fill="#212429"/>
<path d="M160.823 200.461C161.545 200.822 161.545 201.183 160.823 201.544C160.101 201.906 159.379 201.906 158.657 201.544C157.935 201.183 157.935 200.822 158.657 200.461C159.379 200.461 160.462 200.461 160.823 200.461Z" fill="#212429"/>
<path d="M166.24 197.572C166.962 197.933 166.962 198.294 166.24 198.655C165.517 199.017 164.795 199.017 164.073 198.655C163.351 198.294 163.351 197.933 164.073 197.572C164.795 197.211 165.878 197.211 166.24 197.572Z" fill="#212429"/>
<path d="M171.656 194.324C172.378 194.685 172.378 195.046 171.656 195.407C170.933 195.768 170.211 195.768 169.489 195.407C168.767 195.046 168.767 194.685 169.489 194.324C170.211 193.963 171.294 193.963 171.656 194.324Z" fill="#212429"/>
<path d="M177.433 191.074C178.155 191.435 178.155 191.796 177.433 192.157C176.711 192.518 175.988 192.518 175.266 192.157C174.544 191.796 174.544 191.435 175.266 191.074C175.627 190.713 176.711 190.713 177.433 191.074Z" fill="#212429"/>
<path d="M182.849 187.823C183.571 188.185 183.571 188.546 182.849 188.907C182.127 189.268 181.405 189.268 180.682 188.907C179.96 188.546 179.96 188.185 180.682 187.823C181.405 187.462 182.127 187.462 182.849 187.823Z" fill="#212429"/>
<path d="M188.265 184.935C188.987 185.296 188.987 185.657 188.265 186.018C187.543 186.379 186.821 186.379 186.099 186.018C185.376 185.657 185.376 185.296 186.099 184.935C186.821 184.574 187.543 184.574 188.265 184.935Z" fill="#212429"/>
<path d="M193.681 181.686C194.403 182.047 194.403 182.408 193.681 182.769C192.959 183.13 192.237 183.13 191.515 182.769C190.793 182.408 190.793 182.047 191.515 181.686C192.237 181.325 193.32 181.325 193.681 181.686Z" fill="#212429"/>
<path d="M199.097 178.436C199.82 178.797 199.82 179.158 199.097 179.519C198.375 179.88 197.653 179.88 196.931 179.519C196.209 179.158 196.209 178.797 196.931 178.436C197.653 178.075 198.736 178.075 199.097 178.436Z" fill="#212429"/>
<path d="M137.714 208.405C138.512 208.405 139.159 208.082 139.159 207.683C139.159 207.284 138.512 206.961 137.714 206.961C136.917 206.961 136.27 207.284 136.27 207.683C136.27 208.082 136.917 208.405 137.714 208.405Z" fill="#212429"/>
<path d="M144.575 203.711C145.297 204.072 145.297 204.434 144.575 204.795C143.853 205.156 143.131 205.156 142.409 204.795C141.686 204.434 141.686 204.072 142.409 203.711C142.77 203.35 143.853 203.35 144.575 203.711Z" fill="#212429"/>
<path d="M149.991 200.461C150.713 200.822 150.713 201.183 149.991 201.544C149.269 201.906 148.547 201.906 147.825 201.544C147.102 201.183 147.102 200.822 147.825 200.461C148.547 200.461 149.269 200.461 149.991 200.461Z" fill="#212429"/>
<path d="M155.407 197.572C156.129 197.933 156.129 198.294 155.407 198.655C154.685 199.017 153.963 199.017 153.241 198.655C152.519 198.294 152.519 197.933 153.241 197.572C153.963 197.211 154.685 197.211 155.407 197.572Z" fill="#212429"/>
<path d="M160.823 194.324C161.545 194.685 161.545 195.046 160.823 195.407C160.101 195.768 159.379 195.768 158.657 195.407C157.935 195.046 157.935 194.685 158.657 194.324C159.379 193.963 160.462 193.963 160.823 194.324Z" fill="#212429"/>
<path d="M165.156 192.518C165.954 192.518 166.601 192.194 166.601 191.796C166.601 191.397 165.954 191.073 165.156 191.073C164.359 191.073 163.712 191.397 163.712 191.796C163.712 192.194 164.359 192.518 165.156 192.518Z" fill="#212429"/>
<path d="M171.656 187.823C172.378 188.185 172.378 188.546 171.656 188.907C170.933 189.268 170.211 189.268 169.489 188.907C168.767 188.546 168.767 188.185 169.489 187.823C170.211 187.462 171.294 187.462 171.656 187.823Z" fill="#212429"/>
<path d="M177.433 184.935C178.155 185.296 178.155 185.657 177.433 186.018C176.711 186.379 175.988 186.379 175.266 186.018C174.544 185.657 174.544 185.296 175.266 184.935C175.627 184.574 176.711 184.574 177.433 184.935Z" fill="#212429"/>
<path d="M182.849 181.686C183.571 182.047 183.571 182.408 182.849 182.769C182.127 183.13 181.405 183.13 180.682 182.769C179.96 182.408 179.96 182.047 180.682 181.686C181.405 181.325 182.127 181.325 182.849 181.686Z" fill="#212429"/>
<path d="M188.265 178.436C188.987 178.797 188.987 179.158 188.265 179.519C187.543 179.88 186.821 179.88 186.099 179.519C185.376 179.158 185.376 178.797 186.099 178.436C186.821 178.075 187.543 178.075 188.265 178.436Z" fill="#212429"/>
<path d="M193.681 175.186C194.403 175.547 194.403 175.908 193.681 176.269C192.959 176.63 192.237 176.63 191.515 176.269C190.793 175.908 190.793 175.547 191.515 175.186C192.237 174.825 193.32 174.825 193.681 175.186Z" fill="#212429"/>
<path d="M133.381 203.711C134.104 204.072 134.104 204.434 133.381 204.795C132.659 205.156 131.937 205.156 131.215 204.795C130.493 204.434 130.493 204.072 131.215 203.711C131.937 203.35 133.02 203.35 133.381 203.711Z" fill="#212429"/>
<path d="M138.798 200.461C139.52 200.822 139.52 201.183 138.798 201.544C138.075 201.906 137.353 201.906 136.631 201.544C135.909 201.183 135.909 200.822 136.631 200.461C137.353 200.461 138.436 200.461 138.798 200.461Z" fill="#212429"/>
<path d="M144.575 197.572C145.297 197.933 145.297 198.294 144.575 198.655C143.853 199.017 143.131 199.017 142.409 198.655C141.686 198.294 141.686 197.933 142.409 197.572C142.77 197.211 143.853 197.211 144.575 197.572Z" fill="#212429"/>
<path d="M149.991 194.324C150.713 194.685 150.713 195.046 149.991 195.407C149.269 195.768 148.547 195.768 147.825 195.407C147.102 195.046 147.102 194.685 147.825 194.324C148.547 193.963 149.269 193.963 149.991 194.324Z" fill="#212429"/>
<path d="M188.265 172.297C188.987 172.658 188.987 173.02 188.265 173.381C187.543 173.742 186.821 173.742 186.099 173.381C185.376 173.02 185.376 172.658 186.099 172.297C186.821 171.936 187.543 171.936 188.265 172.297Z" fill="#212429"/>
<path d="M127.965 200.461C128.688 200.822 128.688 201.183 127.965 201.544C127.243 201.906 126.521 201.906 125.799 201.544C125.077 201.183 125.077 200.822 125.799 200.461C126.521 200.461 127.243 200.461 127.965 200.461Z" fill="#212429"/>
<path d="M132.298 198.656C133.096 198.656 133.743 198.333 133.743 197.934C133.743 197.535 133.096 197.212 132.298 197.212C131.501 197.212 130.854 197.535 130.854 197.934C130.854 198.333 131.501 198.656 132.298 198.656Z" fill="#212429"/>
<path d="M138.798 194.324C139.52 194.685 139.52 195.046 138.798 195.407C138.075 195.768 137.353 195.768 136.631 195.407C135.909 195.046 135.909 194.685 136.631 194.324C137.353 193.963 138.436 193.963 138.798 194.324Z" fill="#212429"/>
<path d="M144.575 191.074C145.297 191.435 145.297 191.796 144.575 192.157C143.853 192.518 143.131 192.518 142.409 192.157C141.686 191.796 141.686 191.435 142.409 191.074C142.77 190.713 143.853 190.713 144.575 191.074Z" fill="#212429"/>
<path d="M103.412 104.777L101.607 132.58L118.216 122.831L121.105 100.444L111.356 92.1395L103.412 104.777Z" fill="#212429"/>
<path d="M129.771 185.297L125.799 164.716L98.7181 148.828L94.3852 164.355L69.4709 149.911L96.9127 68.3082L127.243 85.6399L155.046 199.018L129.771 185.297ZM120.744 140.523L117.133 122.47C116.411 118.498 115.328 113.443 114.244 106.943C113.161 100.805 112.439 97.9165 111.717 95.3889C111.356 97.5554 110.634 98.9997 109.55 103.694C108.467 108.388 106.301 117.054 102.69 130.413L120.744 140.523Z" fill="#00FFAA"/>
<path d="M96.5516 69.0306L131.576 48.4492L161.906 65.7809L126.521 86.3623L96.5516 69.0306Z" fill="#00FFAA"/>
<path d="M96.5516 74.8079L131.576 54.2266L161.906 71.9193L126.521 92.1396L96.5516 74.8079Z" fill="#D3FFF0"/>
<path d="M103.051 130.413L122.91 143.051L117.133 122.108L103.051 130.413Z" fill="#00FFAA"/>
<path d="M106.662 132.579L121.827 141.245L118.216 125.719L106.662 132.579Z" fill="#D3FFF0"/>
<path d="M155.768 200.101L190.793 179.52L162.99 66.1416L162.629 64.6973L161.545 63.9752L131.215 46.6435L96.1907 67.2248L95.1074 67.947L94.7464 69.3913L67.3046 150.994L92.2188 165.438L93.6631 166.16L94.7464 165.438L109.912 157.133L124.355 165.438L128.326 186.019L153.241 200.462L154.324 201.184L155.768 200.101ZM131.576 49.8932L159.379 66.1416L126.521 85.2786L98.7182 69.0302L131.576 49.8932ZM152.519 197.212L130.493 184.575L126.521 163.993L112.439 156.05L97.6349 147.384L93.302 162.91L70.5542 149.911L97.2739 70.8356L125.799 87.4451L148.186 179.158L152.519 197.212Z" fill="#212429"/>
<path d="M115.328 106.943C114.244 100.805 113.522 97.9161 113.161 95.0275L110.634 93.2221C110.273 95.3885 109.55 98.6383 108.467 102.971C107.384 107.304 105.218 116.331 101.607 129.691L101.246 130.413L122.188 142.328L118.216 121.747C117.494 118.497 116.411 113.081 115.328 106.943ZM104.134 129.691C107.384 116.692 109.551 108.387 110.634 103.693C110.995 102.249 111.356 101.166 111.356 100.083C111.717 102.249 112.078 104.415 112.8 107.304C113.883 113.442 114.967 118.859 116.05 122.83L119.3 138.357L104.134 129.691Z" fill="#212429"/>
</g>
</svg>
