<svg width="32" height="32" viewBox="0 0 32 32" fill="none" xmlns="http://www.w3.org/2000/svg">
<path d="M17.8177 24.677C18.1511 24.677 18.474 24.5416 18.7552 24.2604L25.5886 17.4479C25.849 17.1875 26.0052 16.8229 26.0052 16.4583C26.0052 16.0937 25.849 15.7187 25.5886 15.4687L18.7761 8.65621C18.4844 8.36454 18.1511 8.22913 17.8177 8.22913C17.0469 8.22913 16.5052 8.78121 16.5052 9.49996C16.5052 9.89579 16.6719 10.2083 16.9115 10.4583L19.2761 12.8333L21.9115 15.25L19.5677 15.125H7.36981C6.5469 15.125 5.99481 15.6666 5.99481 16.4583C5.99481 17.25 6.5469 17.7916 7.36981 17.7916H19.5677L21.9115 17.6562L19.2761 20.0833L16.9115 22.4479C16.6719 22.6979 16.5052 23.0104 16.5052 23.4062C16.5052 24.1354 17.0469 24.677 17.8177 24.677Z" fill="white"/>
</svg>
