<svg width="64" height="64" viewBox="0 0 64 64" fill="none" xmlns="http://www.w3.org/2000/svg">
<path fill-rule="evenodd" clip-rule="evenodd" d="M38.125 48.9167C46.8125 48.9167 54.0834 41.6458 54.0834 32.9583C54.0834 24.25 46.8125 17 38.1042 17C35.9792 17 33.9375 17.4583 32.0834 18.2917C30.1667 17.4583 28.0417 17 25.8542 17C17.1459 17 9.91669 24.25 9.91669 32.9583C9.91669 41.6458 17.1667 48.9167 25.875 48.9167C28.0834 48.9167 30.1875 48.4375 32.1042 47.6042C33.9584 48.4375 35.9792 48.9167 38.125 48.9167ZM38.125 44.1458C37.8125 44.1458 37.5 44.125 37.2083 44.1042C40.0417 41.2083 41.8333 37.25 41.8333 32.9583C41.8333 28.6458 40.0417 24.7083 37.1875 21.8125C37.5 21.7708 37.7917 21.7708 38.1042 21.7708C44.2083 21.7708 49.3125 26.8958 49.3125 32.9583C49.3125 39.0208 44.2083 44.1458 38.125 44.1458ZM14.6875 32.9583C14.6875 39.0208 19.8125 44.1458 25.875 44.1458C31.9375 44.1458 37.0625 39.0208 37.0625 32.9583C37.0625 26.8958 31.9375 21.7708 25.8542 21.7708C19.7917 21.7708 14.6875 26.8958 14.6875 32.9583Z" fill="#00BBFF"/>
</svg>
