<svg width="24" height="24" viewBox="0 0 24 24" fill="none" xmlns="http://www.w3.org/2000/svg">
<path d="M18.0783 18.4531C18.4768 18.0469 18.4768 17.3828 18.0861 16.9922L13.4689 12.375L18.0861 7.74998C18.4768 7.35935 18.4846 6.68748 18.0783 6.28904C17.6799 5.8906 17.008 5.8906 16.6174 6.28123L12.0002 10.8984L7.3752 6.28123C7.0002 5.89841 6.3127 5.88279 5.91426 6.28904C5.51582 6.68748 5.52364 7.37498 5.90645 7.74998L10.5236 12.375L5.90645 16.9922C5.52364 17.375 5.51582 18.0547 5.91426 18.4531C6.32051 18.8515 7.0002 18.8437 7.3752 18.4687L12.0002 13.8437L16.6174 18.4609C17.008 18.8515 17.6799 18.8515 18.0783 18.4531Z" fill="white"/>
</svg>
