<svg width="24" height="24" viewBox="0 0 24 24" fill="none" xmlns="http://www.w3.org/2000/svg">
<path d="M18.0783 18.4531C18.4768 18.0469 18.4768 17.3828 18.0861 16.9922L13.4689 12.375L18.0861 7.75001C18.4768 7.35938 18.4846 6.68751 18.0783 6.28907C17.6799 5.89063 17.008 5.89063 16.6174 6.28126L12.0002 10.8984L7.3752 6.28126C7.0002 5.89844 6.3127 5.88282 5.91426 6.28907C5.51582 6.68751 5.52364 7.37501 5.90645 7.75001L10.5236 12.375L5.90645 16.9922C5.52364 17.375 5.51582 18.0547 5.91426 18.4531C6.32051 18.8516 7.0002 18.8438 7.3752 18.4688L12.0002 13.8438L16.6174 18.4609C17.008 18.8516 17.6799 18.8516 18.0783 18.4531Z" fill="black" fill-opacity="0.7"/>
</svg>
