<svg width="264" height="264" viewBox="0 0 264 264" fill="none" xmlns="http://www.w3.org/2000/svg">
<mask id="mask0_104_2515" style="mask-type:alpha" maskUnits="userSpaceOnUse" x="0" y="0" width="264" height="264">
<rect width="264" height="264" rx="24" fill="white"/>
</mask>
<g mask="url(#mask0_104_2515)">
<rect width="264" height="264" rx="24" fill="#4579F5"/>
<path d="M49.8928 154.567L50.2655 112.824L108.407 146.367V188.483L49.8928 154.567Z" fill="#4579F5"/>
<path d="M146.423 121.769L146.05 163.884L109.898 143.013L116.979 104.997L146.423 121.769Z" fill="#4579F5"/>
<path d="M146.05 165.375L108.407 143.385L115.861 102.761L147.541 121.023V164.629L146.05 165.375ZM111.389 142.267L144.932 161.648V122.887L117.725 107.233L111.389 142.267Z" fill="#212429"/>
<path d="M153.504 83.7527L185.557 102.015L185.184 144.13L144.932 120.65L153.504 83.7527Z" fill="#4579F5"/>
<path d="M185.184 145.622L143.441 121.396L152.759 81.8895L186.675 101.643V145.249L185.184 145.622ZM146.423 119.905L184.066 141.895V103.134L154.622 85.9892L146.423 119.905Z" fill="#212429"/>
<path d="M137.105 91.5796L133.005 102.388L154.995 140.031V83.0075L153.504 82.262L137.105 91.5796Z" fill="#212429"/>
<path d="M97.2259 114.687L93.8716 122.887L118.097 158.293V104.251L116.979 103.506L97.2259 114.687Z" fill="#212429"/>
<path d="M108.407 146.367L50.2656 112.824L148.659 56.1727L206.801 89.716L185.557 102.015L153.877 83.7527L138.596 92.6976L168.04 109.842L146.796 122.141L117.352 104.997L98.7169 115.805L130.397 134.068L108.407 146.367Z" fill="#4579F5"/>
<path d="M184.811 110.215L206.428 97.9156L147.914 64.3724L49.8928 121.023L108.034 154.939L129.651 142.267L97.9714 124.005L105.053 119.905L97.226 114.687L116.979 103.506L118.097 104.252V114.314L146.05 130.341L167.294 118.042L137.851 100.897L144.932 96.7975L141.205 94.5612L137.105 91.5796L153.504 82.262L154.995 83.0075V93.0705L184.811 110.215Z" fill="#C9D9FF"/>
<path d="M148.286 54.6823L48.7747 112.079V155.685L108.407 189.973L131.515 176.556V132.95L100.953 115.433L116.979 106.115L144.932 122.514V164.63L146.423 165.375L169.158 152.33V108.724L141.205 92.3253L153.877 84.8713L184.438 102.388V144.131L185.929 144.876L208.664 131.832V88.2256L148.286 54.6823ZM106.916 186.246L51.3836 154.194V115.433L105.053 146.367L106.916 147.485V186.246ZM153.504 82.2623L135.614 92.698L165.058 109.842L146.423 120.651L116.979 103.506L95.7352 115.806L127.415 134.068L108.407 144.876L102.444 141.522L52.5017 112.824L147.914 57.664L203.446 89.7164L184.811 100.525L153.504 82.2623Z" fill="#212429"/>
<path d="M108.034 207.491C108.78 207.864 108.78 208.609 108.034 208.982C107.289 209.354 106.171 209.354 105.798 208.982C105.053 208.609 105.053 207.864 105.798 207.491C106.543 207.118 107.662 207.118 108.034 207.491Z" fill="#212429"/>
<path d="M114.37 204.136C115.116 204.509 115.116 205.254 114.37 205.627C113.625 206 112.507 206 112.134 205.627C111.389 205.254 111.389 204.509 112.134 204.136C112.507 203.764 113.625 203.764 114.37 204.136Z" fill="#212429"/>
<path d="M119.588 202.272C120.617 202.272 121.452 201.772 121.452 201.154C121.452 200.537 120.617 200.036 119.588 200.036C118.559 200.036 117.725 200.537 117.725 201.154C117.725 201.772 118.559 202.272 119.588 202.272Z" fill="#212429"/>
<path d="M126.67 196.682C127.415 197.055 127.415 197.8 126.67 198.173C125.924 198.545 124.806 198.545 124.433 198.173C123.688 197.8 123.688 197.055 124.433 196.682C125.179 196.309 126.297 196.309 126.67 196.682Z" fill="#212429"/>
<path d="M133.005 193.328C133.751 193.7 133.751 194.446 133.005 194.819C132.26 195.191 131.142 195.191 130.769 194.819C130.024 194.446 130.024 193.7 130.769 193.328C131.514 192.955 132.26 192.955 133.005 193.328Z" fill="#212429"/>
<path d="M139.341 189.601C140.087 189.974 140.087 190.719 139.341 191.092C138.596 191.464 137.478 191.464 137.105 191.092C136.36 190.719 136.36 189.974 137.105 189.601C137.478 189.228 138.596 189.228 139.341 189.601Z" fill="#212429"/>
<path d="M145.677 186.246C146.423 186.619 146.423 187.364 145.677 187.737C144.932 188.11 143.814 188.11 143.441 187.737C142.696 187.364 142.696 186.619 143.441 186.246C143.814 185.874 144.932 185.874 145.677 186.246Z" fill="#212429"/>
<path d="M102.071 204.136C102.817 204.509 102.817 205.254 102.071 205.627C101.326 206 100.208 206 99.8349 205.627C99.0895 205.254 99.0895 204.509 99.8349 204.136C100.208 203.764 101.326 203.764 102.071 204.136Z" fill="#212429"/>
<path d="M108.034 200.409C108.78 200.782 108.78 201.527 108.034 201.9C107.289 202.273 106.171 202.273 105.798 201.9C105.053 201.527 105.053 200.782 105.798 200.409C106.543 200.036 107.662 200.036 108.034 200.409Z" fill="#212429"/>
<path d="M114.37 196.682C115.116 197.055 115.116 197.8 114.37 198.173C113.625 198.545 112.507 198.545 112.134 198.173C111.389 197.8 111.389 197.055 112.134 196.682C112.507 196.309 113.625 196.309 114.37 196.682Z" fill="#212429"/>
<path d="M120.706 193.328C121.452 193.7 121.452 194.446 120.706 194.819C119.961 195.191 118.843 195.191 118.47 194.819C117.725 194.446 117.725 193.7 118.47 193.328C118.843 192.955 119.961 192.955 120.706 193.328Z" fill="#212429"/>
<path d="M126.67 189.601C127.415 189.974 127.415 190.719 126.67 191.092C125.924 191.464 124.806 191.464 124.433 191.092C123.688 190.719 123.688 189.974 124.433 189.601C125.179 189.228 126.297 189.228 126.67 189.601Z" fill="#212429"/>
<path d="M133.005 186.246C133.751 186.619 133.751 187.364 133.005 187.737C132.26 188.11 131.142 188.11 130.769 187.737C130.397 187.364 130.024 186.619 130.769 186.246C131.515 185.874 132.26 185.874 133.005 186.246Z" fill="#212429"/>
<path d="M138.223 184.383C139.252 184.383 140.087 183.882 140.087 183.265C140.087 182.647 139.252 182.147 138.223 182.147C137.194 182.147 136.36 182.647 136.36 183.265C136.36 183.882 137.194 184.383 138.223 184.383Z" fill="#212429"/>
<path d="M95.735 200.409C96.4804 200.782 96.4804 201.527 95.735 201.9C94.9896 202.273 93.8715 202.273 93.4988 201.9C92.7533 201.527 92.7533 200.782 93.4988 200.409C93.8715 200.036 94.9896 200.036 95.735 200.409Z" fill="#212429"/>
<path d="M102.071 196.682C102.817 197.055 102.817 197.8 102.071 198.173C101.326 198.545 100.208 198.545 99.8349 198.173C99.0895 197.8 99.0895 197.055 99.8349 196.682C100.208 196.309 101.326 196.309 102.071 196.682Z" fill="#212429"/>
<path d="M108.034 193.328C108.78 193.7 108.78 194.446 108.034 194.819C107.289 195.191 106.171 195.191 105.798 194.819C105.053 194.446 105.053 193.7 105.798 193.328C106.543 192.955 107.662 192.955 108.034 193.328Z" fill="#212429"/>
<path d="M114.37 189.601C115.116 189.974 115.116 190.719 114.37 191.092C113.625 191.464 112.507 191.464 112.134 191.092C111.389 190.719 111.389 189.974 112.134 189.601C112.507 189.228 113.625 189.228 114.37 189.601Z" fill="#212429"/>
<path d="M119.588 187.737C120.617 187.737 121.452 187.237 121.452 186.619C121.452 186.002 120.617 185.501 119.588 185.501C118.559 185.501 117.725 186.002 117.725 186.619C117.725 187.237 118.559 187.737 119.588 187.737Z" fill="#212429"/>
<path d="M125.551 184.383C126.58 184.383 127.415 183.882 127.415 183.265C127.415 182.647 126.58 182.147 125.551 182.147C124.522 182.147 123.688 182.647 123.688 183.265C123.688 183.882 124.522 184.383 125.551 184.383Z" fill="#212429"/>
<path d="M133.005 178.792C133.751 179.165 133.751 179.911 133.005 180.283C132.26 180.656 131.142 180.656 130.769 180.283C130.024 179.911 130.024 179.165 130.769 178.792C131.514 178.42 132.26 178.42 133.005 178.792Z" fill="#212429"/>
<path d="M89.3993 196.682C90.1447 197.055 90.1447 197.8 89.3993 198.173C88.6539 198.545 87.5358 198.545 87.1631 198.173C86.4177 197.8 86.4177 197.055 87.1631 196.682C87.9085 196.309 89.0266 196.309 89.3993 196.682Z" fill="#212429"/>
<path d="M95.735 193.328C96.4804 193.7 96.4804 194.446 95.735 194.819C94.9896 195.191 93.8715 195.191 93.4988 194.819C92.7533 194.446 92.7533 193.7 93.4988 193.328C93.8715 192.955 94.9896 192.955 95.735 193.328Z" fill="#212429"/>
<path d="M102.071 189.601C102.817 189.974 102.817 190.719 102.071 191.092C101.326 191.464 100.208 191.464 99.8349 191.092C99.0895 190.719 99.0895 189.974 99.8349 189.601C100.208 189.228 101.326 189.228 102.071 189.601Z" fill="#212429"/>
<path d="M81.9453 195.191C82.9745 195.191 83.8088 194.691 83.8088 194.073C83.8088 193.456 82.9745 192.955 81.9453 192.955C80.9161 192.955 80.0818 193.456 80.0818 194.073C80.0818 194.691 80.9161 195.191 81.9453 195.191Z" fill="#212429"/>
<path d="M89.3993 189.601C90.1447 189.974 90.1447 190.719 89.3993 191.092C88.6539 191.464 87.5358 191.464 87.1631 191.092C86.4177 190.719 86.4177 189.974 87.1631 189.601C87.9085 189.228 89.0266 189.228 89.3993 189.601Z" fill="#212429"/>
<path d="M94.6172 187.737C95.6464 187.737 96.4807 187.237 96.4807 186.619C96.4807 186.002 95.6464 185.501 94.6172 185.501C93.588 185.501 92.7537 186.002 92.7537 186.619C92.7537 187.237 93.588 187.737 94.6172 187.737Z" fill="#212429"/>
<path d="M75.9822 191.464C77.0114 191.464 77.8457 190.964 77.8457 190.346C77.8457 189.729 77.0114 189.228 75.9822 189.228C74.953 189.228 74.1187 189.729 74.1187 190.346C74.1187 190.964 74.953 191.464 75.9822 191.464Z" fill="#212429"/>
<path d="M83.0631 185.874C83.8085 186.247 83.8085 186.992 83.0631 187.365C82.3177 187.737 81.1996 187.737 80.8269 187.365C80.0815 186.992 80.0815 186.247 80.8269 185.874C81.5723 185.501 82.6904 185.501 83.0631 185.874Z" fill="#212429"/>
<path d="M89.3993 182.519C90.1447 182.892 90.1447 183.637 89.3993 184.01C88.6539 184.383 87.5358 184.383 87.1631 184.01C86.4177 183.637 86.4177 182.892 87.1631 182.519C87.9085 182.147 88.6539 182.147 89.3993 182.519Z" fill="#212429"/>
<path d="M70.764 185.874C71.5094 186.247 71.5094 186.992 70.764 187.365C70.0186 187.737 68.9005 187.737 68.5278 187.365C67.7824 186.992 67.7824 186.247 68.5278 185.874C68.9005 185.501 70.0186 185.501 70.764 185.874Z" fill="#212429"/>
<path d="M75.9822 184.383C77.0114 184.383 77.8457 183.882 77.8457 183.265C77.8457 182.647 77.0114 182.147 75.9822 182.147C74.953 182.147 74.1187 182.647 74.1187 183.265C74.1187 183.882 74.953 184.383 75.9822 184.383Z" fill="#212429"/>
<path d="M83.0631 178.792C83.8085 179.165 83.8085 179.911 83.0631 180.283C82.3177 180.656 81.1996 180.656 80.8269 180.283C80.0815 179.911 80.0815 179.165 80.8269 178.792C81.5723 178.42 82.6904 178.42 83.0631 178.792Z" fill="#212429"/>
<path d="M64.4279 182.519C65.1733 182.892 65.1733 183.637 64.4279 184.01C63.6825 184.383 62.5643 184.383 62.1916 184.01C61.4462 183.637 61.4462 182.892 62.1916 182.519C62.937 182.147 64.0552 182.147 64.4279 182.519Z" fill="#212429"/>
<path d="M70.764 178.792C71.5094 179.165 71.5094 179.911 70.764 180.283C70.0186 180.656 68.9005 180.656 68.5278 180.283C67.7824 179.911 67.7824 179.165 68.5278 178.792C68.9005 178.42 70.0186 178.42 70.764 178.792Z" fill="#212429"/>
<path d="M77.1 175.438C77.8454 175.811 77.8454 176.556 77.1 176.929C76.3546 177.302 75.2364 177.302 74.8637 176.929C74.1183 176.556 74.1183 175.811 74.8637 175.438C75.2364 175.065 76.3546 175.065 77.1 175.438Z" fill="#212429"/>
<path d="M58.4647 178.792C59.2101 179.165 59.2101 179.911 58.4647 180.283C57.7193 180.656 56.6012 180.656 56.2285 180.283C55.4831 179.911 55.4831 179.165 56.2285 178.792C56.6012 178.42 57.7193 178.42 58.4647 178.792Z" fill="#212429"/>
<path d="M64.4279 175.438C65.1733 175.811 65.1733 176.556 64.4279 176.929C63.6825 177.302 62.5643 177.302 62.1916 176.929C61.4462 176.556 61.4462 175.811 62.1916 175.438C62.937 175.065 64.0552 175.065 64.4279 175.438Z" fill="#212429"/>
<path d="M70.764 171.711C71.5094 172.083 71.5094 172.829 70.764 173.202C70.0186 173.574 68.9005 173.574 68.5278 173.202C67.7824 172.829 67.7824 172.083 68.5278 171.711C68.9005 171.338 70.0186 171.338 70.764 171.711Z" fill="#212429"/>
<path d="M52.129 175.438C52.8744 175.811 52.8744 176.556 52.129 176.929C51.3836 177.302 50.2655 177.302 49.8928 176.929C49.1474 176.556 49.1474 175.811 49.8928 175.438C50.2655 175.065 51.3836 175.065 52.129 175.438Z" fill="#212429"/>
<path d="M56.9739 173.575C58.0031 173.575 58.8374 173.074 58.8374 172.457C58.8374 171.839 58.0031 171.339 56.9739 171.339C55.9447 171.339 55.1104 171.839 55.1104 172.457C55.1104 173.074 55.9447 173.575 56.9739 173.575Z" fill="#212429"/>
<path d="M64.4279 167.984C65.1733 168.357 65.1733 169.102 64.4279 169.475C63.6825 169.848 62.5643 169.848 62.1916 169.475C61.4462 169.102 61.4462 168.357 62.1916 167.984C62.937 167.611 64.0552 167.611 64.4279 167.984Z" fill="#212429"/>
<path d="M52.129 167.984C52.8744 168.357 52.8744 169.102 52.129 169.475C51.3836 169.848 50.2655 169.848 49.8928 169.475C49.1474 169.102 49.1474 168.357 49.8928 167.984C50.2655 167.611 51.3836 167.611 52.129 167.984Z" fill="#212429"/>
<path d="M56.9739 166.121C58.0031 166.121 58.8374 165.62 58.8374 165.003C58.8374 164.385 58.0031 163.884 56.9739 163.884C55.9447 163.884 55.1104 164.385 55.1104 165.003C55.1104 165.62 55.9447 166.121 56.9739 166.121Z" fill="#212429"/>
<path d="M52.129 160.903C52.8744 161.276 52.8744 162.021 52.129 162.394C51.3836 162.766 50.2655 162.766 49.8928 162.394C49.1474 162.021 49.1474 161.276 49.8928 160.903C50.2655 160.53 51.3836 160.53 52.129 160.903Z" fill="#212429"/>
<path d="M120.706 207.118C121.452 207.49 121.452 208.236 120.706 208.608C119.961 208.981 118.843 208.981 118.47 208.608C117.725 208.236 117.725 207.49 118.47 207.118C119.216 206.745 120.334 206.745 120.706 207.118Z" fill="#212429"/>
<path d="M127.042 203.391C127.787 203.764 127.787 204.509 127.042 204.882C126.297 205.255 125.179 205.255 124.806 204.882C124.06 204.509 124.06 203.764 124.806 203.391C125.179 203.018 126.297 203.018 127.042 203.391Z" fill="#212429"/>
<path d="M132.26 201.527C133.289 201.527 134.124 201.026 134.124 200.409C134.124 199.791 133.289 199.291 132.26 199.291C131.231 199.291 130.396 199.791 130.396 200.409C130.396 201.026 131.231 201.527 132.26 201.527Z" fill="#212429"/>
<path d="M139.341 196.309C140.087 196.682 140.087 197.427 139.341 197.8C138.596 198.173 137.478 198.173 137.105 197.8C136.36 197.427 136.36 196.682 137.105 196.309C137.851 195.937 138.969 195.937 139.341 196.309Z" fill="#212429"/>
<path d="M145.677 192.582C146.423 192.955 146.423 193.7 145.677 194.073C144.932 194.446 143.814 194.446 143.441 194.073C142.696 193.7 142.696 192.955 143.441 192.582C144.187 192.21 144.932 192.21 145.677 192.582Z" fill="#212429"/>
<path d="M152.013 189.228C152.758 189.601 152.758 190.346 152.013 190.719C151.268 191.092 150.15 191.092 149.777 190.719C149.031 190.346 149.031 189.601 149.777 189.228C150.15 188.856 151.268 188.856 152.013 189.228Z" fill="#212429"/>
<path d="M150.523 184.383C151.552 184.383 152.386 183.882 152.386 183.265C152.386 182.647 151.552 182.147 150.523 182.147C149.494 182.147 148.659 182.647 148.659 183.265C148.659 183.882 149.494 184.383 150.523 184.383Z" fill="#212429"/>
<path d="M157.977 178.792C158.722 179.165 158.722 179.911 157.977 180.283C157.231 180.656 156.113 180.656 155.74 180.283C154.995 179.911 154.995 179.165 155.74 178.792C156.113 178.42 157.231 178.42 157.977 178.792Z" fill="#212429"/>
<path d="M164.312 175.438C165.058 175.811 165.058 176.556 164.312 176.929C163.567 177.302 162.449 177.302 162.076 176.929C161.331 176.556 161.331 175.811 162.076 175.438C162.449 175.065 163.567 175.065 164.312 175.438Z" fill="#212429"/>
<path d="M169.158 173.575C170.187 173.575 171.021 173.074 171.021 172.457C171.021 171.839 170.187 171.339 169.158 171.339C168.129 171.339 167.294 171.839 167.294 172.457C167.294 173.074 168.129 173.575 169.158 173.575Z" fill="#212429"/>
<path d="M176.612 167.984C177.357 168.357 177.357 169.102 176.612 169.475C175.866 169.848 174.748 169.848 174.375 169.475C173.63 169.102 173.63 168.357 174.375 167.984C174.748 167.611 175.866 167.611 176.612 167.984Z" fill="#212429"/>
<path d="M182.947 164.63C183.693 165.002 183.693 165.748 182.947 166.121C182.202 166.493 181.084 166.493 180.711 166.121C179.966 165.748 179.966 165.002 180.711 164.63C181.084 164.257 182.202 164.257 182.947 164.63Z" fill="#212429"/>
<path d="M188.911 160.903C189.656 161.276 189.656 162.021 188.911 162.394C188.165 162.766 187.047 162.766 186.675 162.394C185.929 162.021 185.929 161.276 186.675 160.903C187.42 160.53 188.538 160.53 188.911 160.903Z" fill="#212429"/>
<path d="M195.247 157.548C195.992 157.921 195.992 158.667 195.247 159.039C194.502 159.412 193.383 159.412 193.011 159.039C192.265 158.667 192.265 157.921 193.011 157.548C193.383 157.176 194.502 157.176 195.247 157.548Z" fill="#212429"/>
<path d="M200.464 155.685C201.494 155.685 202.328 155.184 202.328 154.566C202.328 153.949 201.494 153.448 200.464 153.448C199.435 153.448 198.601 153.949 198.601 154.566C198.601 155.184 199.435 155.685 200.464 155.685Z" fill="#212429"/>
<path d="M207.918 150.094C208.664 150.467 208.664 151.212 207.918 151.585C207.173 151.958 206.055 151.958 205.682 151.585C204.937 151.212 204.937 150.467 205.682 150.094C206.055 149.721 207.173 149.721 207.918 150.094Z" fill="#212429"/>
<path d="M213.882 146.74C214.627 147.113 214.627 147.858 213.882 148.231C213.137 148.604 212.018 148.604 211.646 148.231C210.9 147.858 210.9 147.113 211.646 146.74C212.391 146.367 213.137 146.367 213.882 146.74Z" fill="#212429"/>
<path d="M143.068 178.792C143.814 178.42 144.932 178.42 145.305 178.792C146.05 179.165 146.05 179.911 145.305 180.283C144.559 180.656 143.441 180.656 143.068 180.283C142.323 179.911 142.323 179.165 143.068 178.792Z" fill="#212429"/>
<path d="M150.523 177.302C151.552 177.302 152.386 176.801 152.386 176.184C152.386 175.566 151.552 175.066 150.523 175.066C149.494 175.066 148.659 175.566 148.659 176.184C148.659 176.801 149.494 177.302 150.523 177.302Z" fill="#212429"/>
<path d="M157.977 171.711C158.722 172.083 158.722 172.829 157.977 173.202C157.231 173.574 156.113 173.574 155.74 173.202C154.995 172.829 154.995 172.083 155.74 171.711C156.113 171.338 157.231 171.338 157.977 171.711Z" fill="#212429"/>
<path d="M164.312 167.984C165.058 168.357 165.058 169.102 164.312 169.475C163.567 169.848 162.449 169.848 162.076 169.475C161.331 169.102 161.331 168.357 162.076 167.984C162.449 167.611 163.567 167.611 164.312 167.984Z" fill="#212429"/>
<path d="M170.276 164.63C171.021 165.002 171.021 165.748 170.276 166.121C169.53 166.493 168.412 166.493 168.039 166.121C167.294 165.748 167.294 165.002 168.039 164.63C168.785 164.257 169.903 164.257 170.276 164.63Z" fill="#212429"/>
<path d="M176.612 160.903C177.357 161.276 177.357 162.021 176.612 162.394C175.866 162.766 174.748 162.766 174.375 162.394C173.63 162.021 173.63 161.276 174.375 160.903C174.748 160.53 175.866 160.53 176.612 160.903Z" fill="#212429"/>
<path d="M182.947 157.548C183.693 157.921 183.693 158.667 182.947 159.039C182.202 159.412 181.084 159.412 180.711 159.039C179.966 158.667 179.966 157.921 180.711 157.548C181.084 157.176 182.202 157.176 182.947 157.548Z" fill="#212429"/>
<path d="M188.911 153.821C189.656 154.194 189.656 154.94 188.911 155.312C188.165 155.685 187.047 155.685 186.675 155.312C185.929 154.94 185.929 154.194 186.675 153.821C187.42 153.449 188.538 153.449 188.911 153.821Z" fill="#212429"/>
<path d="M194.129 151.958C195.158 151.958 195.992 151.457 195.992 150.84C195.992 150.222 195.158 149.722 194.129 149.722C193.099 149.722 192.265 150.222 192.265 150.84C192.265 151.457 193.099 151.958 194.129 151.958Z" fill="#212429"/>
<path d="M200.464 148.231C201.494 148.231 202.328 147.73 202.328 147.113C202.328 146.495 201.494 145.995 200.464 145.995C199.435 145.995 198.601 146.495 198.601 147.113C198.601 147.73 199.435 148.231 200.464 148.231Z" fill="#212429"/>
<path d="M207.918 143.013C208.664 143.386 208.664 144.131 207.918 144.504C207.173 144.876 206.055 144.876 205.682 144.504C204.937 144.131 204.937 143.386 205.682 143.013C206.055 142.64 207.173 142.64 207.918 143.013Z" fill="#212429"/>
<path d="M213.882 139.286C214.627 139.659 214.627 140.404 213.882 140.777C213.137 141.149 212.018 141.149 211.646 140.777C210.9 140.404 210.9 139.659 211.646 139.286C212.391 138.913 213.137 138.913 213.882 139.286Z" fill="#212429"/>
<path d="M136.732 175.438C137.478 175.065 138.596 175.065 138.969 175.438C139.714 175.811 139.714 176.556 138.969 176.929C138.223 177.302 137.105 177.302 136.732 176.929C136.36 176.184 136.36 175.811 136.732 175.438Z" fill="#212429"/>
<path d="M145.677 171.711C146.423 172.083 146.423 172.829 145.677 173.202C144.932 173.574 143.814 173.574 143.441 173.202C142.696 172.829 142.696 172.083 143.441 171.711C143.814 171.338 144.932 171.338 145.677 171.711Z" fill="#212429"/>
<path d="M151.641 167.984C152.386 168.357 152.386 169.102 151.641 169.475C150.895 169.848 149.777 169.848 149.404 169.475C148.659 169.102 148.659 168.357 149.404 167.984C150.15 167.611 150.895 167.611 151.641 167.984Z" fill="#212429"/>
<path d="M157.977 164.63C158.722 165.002 158.722 165.748 157.977 166.121C157.231 166.493 156.113 166.493 155.74 166.121C154.995 165.748 154.995 165.002 155.74 164.63C156.113 164.257 157.231 164.257 157.977 164.63Z" fill="#212429"/>
<path d="M164.312 160.903C165.058 161.276 165.058 162.021 164.312 162.394C163.567 162.766 162.449 162.766 162.076 162.394C161.331 162.021 161.331 161.276 162.076 160.903C162.449 160.53 163.567 160.53 164.312 160.903Z" fill="#212429"/>
<path d="M170.276 157.548C171.021 157.921 171.021 158.667 170.276 159.039C169.53 159.412 168.412 159.412 168.039 159.039C167.294 158.667 167.294 157.921 168.039 157.548C168.785 157.176 169.903 157.176 170.276 157.548Z" fill="#212429"/>
<path d="M176.612 153.821C177.357 154.194 177.357 154.94 176.612 155.312C175.866 155.685 174.748 155.685 174.375 155.312C173.63 154.94 173.63 154.194 174.375 153.821C174.748 153.449 175.866 153.449 176.612 153.821Z" fill="#212429"/>
<path d="M182.947 150.094C183.693 150.467 183.693 151.212 182.947 151.585C182.202 151.958 181.084 151.958 180.711 151.585C179.966 151.212 179.966 150.467 180.711 150.094C181.084 149.721 182.202 149.721 182.947 150.094Z" fill="#212429"/>
<path d="M188.911 146.74C189.656 147.113 189.656 147.858 188.911 148.231C188.165 148.604 187.047 148.604 186.675 148.231C185.929 147.858 185.929 147.113 186.675 146.74C187.42 146.367 188.538 146.367 188.911 146.74Z" fill="#212429"/>
<path d="M194.129 144.877C195.158 144.877 195.992 144.376 195.992 143.758C195.992 143.141 195.158 142.64 194.129 142.64C193.099 142.64 192.265 143.141 192.265 143.758C192.265 144.376 193.099 144.877 194.129 144.877Z" fill="#212429"/>
<path d="M200.464 141.15C201.494 141.15 202.328 140.649 202.328 140.031C202.328 139.414 201.494 138.913 200.464 138.913C199.435 138.913 198.601 139.414 198.601 140.031C198.601 140.649 199.435 141.15 200.464 141.15Z" fill="#212429"/>
<path d="M206.428 137.795C207.457 137.795 208.291 137.295 208.291 136.677C208.291 136.06 207.457 135.559 206.428 135.559C205.399 135.559 204.564 136.06 204.564 136.677C204.564 137.295 205.399 137.795 206.428 137.795Z" fill="#212429"/>
<path d="M139.341 167.984C140.087 168.357 140.087 169.102 139.341 169.475C138.596 169.848 137.478 169.848 137.105 169.475C136.36 169.102 136.36 168.357 137.105 167.984C137.478 167.611 138.596 167.611 139.341 167.984Z" fill="#212429"/>
<path d="M176.611 146.74C177.357 147.113 177.357 147.858 176.611 148.231C175.866 148.604 174.748 148.604 174.375 148.231C174.002 147.858 173.63 147.113 174.375 146.74C174.748 146.367 175.866 146.367 176.611 146.74Z" fill="#212429"/>
<path d="M155.74 185.501C156.486 185.128 157.604 185.128 157.977 185.501C158.722 185.874 158.722 186.619 157.977 186.992C157.231 187.364 156.113 187.364 155.74 186.992C154.995 186.619 154.995 185.874 155.74 185.501Z" fill="#212429"/>
<path d="M164.312 181.774C165.058 182.147 165.058 182.892 164.312 183.265C163.567 183.638 162.449 183.638 162.076 183.265C161.331 182.892 161.331 182.147 162.076 181.774C162.822 181.401 163.94 181.401 164.312 181.774Z" fill="#212429"/>
<path d="M170.648 178.42C171.393 178.792 171.393 179.538 170.648 179.911C169.903 180.283 168.785 180.283 168.412 179.911C167.666 179.538 167.666 178.792 168.412 178.42C168.785 178.047 169.903 178.047 170.648 178.42Z" fill="#212429"/>
<path d="M176.984 174.693C177.73 175.065 177.73 175.811 176.984 176.184C176.239 176.556 175.121 176.556 174.748 176.184C174.003 175.811 174.003 175.065 174.748 174.693C175.121 174.32 176.239 174.32 176.984 174.693Z" fill="#212429"/>
<path d="M182.947 171.339C183.693 171.711 183.693 172.457 182.947 172.829C182.202 173.202 181.084 173.202 180.711 172.829C179.966 172.457 179.966 171.711 180.711 171.339C181.457 170.966 182.575 170.966 182.947 171.339Z" fill="#212429"/>
<path d="M189.283 167.611C190.029 167.984 190.029 168.729 189.283 169.102C188.538 169.475 187.42 169.475 187.047 169.102C186.302 168.729 186.302 167.984 187.047 167.611C187.42 167.239 188.538 167.239 189.283 167.611Z" fill="#212429"/>
<path d="M195.62 163.884C196.365 164.257 196.365 165.002 195.62 165.375C194.874 165.748 193.756 165.748 193.383 165.375C192.638 165.002 192.638 164.257 193.383 163.884C193.756 163.511 194.874 163.511 195.62 163.884Z" fill="#212429"/>
<path d="M201.583 160.53C202.328 160.902 202.328 161.648 201.583 162.02C200.837 162.393 199.719 162.393 199.346 162.02C198.601 161.648 198.601 160.902 199.346 160.53C200.092 160.157 201.21 160.157 201.583 160.53Z" fill="#212429"/>
<path d="M206.801 158.666C207.83 158.666 208.664 158.166 208.664 157.548C208.664 156.931 207.83 156.43 206.801 156.43C205.771 156.43 204.937 156.931 204.937 157.548C204.937 158.166 205.771 158.666 206.801 158.666Z" fill="#212429"/>
<path d="M213.136 154.939C214.165 154.939 215 154.439 215 153.821C215 153.203 214.165 152.703 213.136 152.703C212.107 152.703 211.273 153.203 211.273 153.821C211.273 154.439 212.107 154.939 213.136 154.939Z" fill="#212429"/>
</g>
</svg>
