<svg width="48" height="48" viewBox="0 0 48 48" fill="none" xmlns="http://www.w3.org/2000/svg">
<path fill-rule="evenodd" clip-rule="evenodd" d="M7.1732 14.5526C6.28733 14.868 4.99332 15.514 4.29787 15.9881C3.01597 16.8615 1.17405 19.163 1.17405 19.8905C1.17405 20.109 1.97791 20.5355 2.96006 20.8382L4.74608 21.3884L4.63923 23.3022L4.53269 25.2157L3.39927 24.9969C1.77104 24.6824 1.70892 24.596 1.86889 22.8812C1.99344 21.5442 1.92852 21.302 1.39955 21.129C0.759381 20.9197 0.258986 21.4163 0.242834 22.2765C0.237864 22.5405 0.155242 23.0578 0.0589523 23.4264C-0.0867245 23.9856 0.132257 24.2063 1.3834 24.7601C2.20776 25.1255 3.25576 25.5206 3.71236 25.6383C4.34508 25.8015 4.6063 26.1307 4.81317 27.0239C5.03619 27.9885 5.08527 27.7156 5.09117 25.4758C5.09955 22.3684 5.73382 20.006 7.1527 17.7976L8.0777 16.3579L7.23594 17.1577C6.77282 17.5976 6.13016 18.4877 5.80744 19.1355C5.08061 20.5953 4.98401 20.6494 3.73131 20.2994C2.82743 20.047 2.75382 19.944 3.05791 19.3582C4.30004 16.968 7.08747 15.0705 10.3371 14.4038L12.2008 14.0212L10.4924 14.0004C9.55279 13.9889 8.05906 14.2374 7.1732 14.5526ZM12.2088 21.2368C11.4022 26.1198 11.5733 25.9154 8.46037 25.7154C7.01106 25.6223 5.83322 25.6742 5.83322 25.8312C5.83322 25.9877 7.09399 26.1156 8.63462 26.1156C11.3798 26.1156 11.4329 26.13 11.2773 26.8355C10.2756 31.3794 10.2656 31.2345 11.5795 31.2345C12.1775 31.2345 12.6667 31.11 12.6667 30.958C12.6667 30.681 14.3847 20.6465 14.7142 18.9973C14.8795 18.1709 14.8245 18.1175 13.8072 18.1175H12.7241L12.2088 21.2368ZM16.7046 18.2109C16.7046 18.2621 16.2154 21.1411 15.6175 24.6082C15.0195 28.0755 14.5303 31.0012 14.5303 31.1097C14.5303 31.2181 15.9629 31.2473 17.7141 31.1746C19.9446 31.0815 21.2041 30.8745 21.921 30.483C24.017 29.3376 24.8544 26.385 23.4489 25.0954L22.7386 24.4437L23.7595 23.3921C24.5423 22.5859 24.7805 22.067 24.7805 21.1677C24.7805 18.7196 23.7291 18.1175 19.4538 18.1175C17.9418 18.1175 16.7046 18.1594 16.7046 18.2109ZM29.823 19.7792C26.5877 25.7205 23.8487 30.8861 23.8487 31.0467C23.8487 31.15 24.3031 31.2341 24.8582 31.2335C25.7459 31.2329 25.9611 31.0495 26.6442 29.7139L27.4207 28.1952H29.9056H32.3905L32.6756 29.7148C32.9474 31.165 33.008 31.2345 33.9957 31.2345C34.78 31.2345 35.027 31.0988 35.0158 30.6746C35.0077 30.3668 34.4778 27.4513 33.8386 24.1961L32.6763 18.2775L31.7118 18.1796C30.8359 18.091 30.6629 18.2375 29.823 19.7792ZM37.9964 18.5174C37.7954 19.1829 35.9625 30.2216 35.9625 30.767C35.9625 31.1465 36.2154 31.2498 36.963 31.1746L37.9632 31.0745L38.6953 26.7574C39.387 22.6787 39.5566 21.9867 39.7868 22.3031C39.8399 22.3767 40.7205 24.3801 41.7433 26.7555C43.5893 31.0428 43.611 31.0751 44.6929 31.1702L45.7831 31.2658L46.7954 25.2515C47.3523 21.9438 47.8776 18.9851 47.963 18.6774C48.09 18.2189 47.9176 18.1175 47.01 18.1175C46.4006 18.1175 45.9015 18.1537 45.9005 18.1975C45.8894 18.7276 44.3851 26.8249 44.277 26.9363C44.1962 27.0198 43.2464 25.0695 42.1664 22.6025C40.2077 18.1281 40.2005 18.1175 39.1603 18.1175C38.5866 18.1175 38.0629 18.2976 37.9964 18.5174ZM21.8095 20.0291C22.4223 20.269 22.6062 20.5646 22.6062 21.3088C22.6062 22.8476 21.6682 23.5562 19.6309 23.5562H17.8977L18.0778 22.5965C18.1766 22.0686 18.3387 21.2048 18.4375 20.6769C18.6006 19.8086 18.7317 19.7171 19.8151 19.7171C20.4739 19.7171 21.3712 19.8576 21.8095 20.0291ZM6.29914 21.3168C6.07425 21.6914 9.21857 21.6914 10.6477 21.3168C11.3192 21.1408 10.8688 21.0621 9.03531 21.0346C7.63197 21.0138 6.40505 21.1402 6.29914 21.3168ZM31.8025 24.5925L32.0047 26.4356H30.2563C29.2946 26.4356 28.5078 26.3495 28.5078 26.2446C28.5078 26.1393 29.0949 24.8913 29.8124 23.4708C31.0747 20.9719 31.1244 20.9185 31.3583 21.8187C31.4913 22.3306 31.691 23.5786 31.8025 24.5925ZM0.108961 26.0357C0.688872 28.7336 0.832375 28.9364 2.6684 29.6569C3.9065 30.1429 5.31885 30.3831 7.38628 30.4596L10.3371 30.5687L7.38628 30.1422C3.01535 29.5104 2.84234 29.4378 2.28355 28C2.01518 27.3083 1.79527 26.5258 1.79527 26.2612C1.79527 25.9966 1.43682 25.6396 0.998552 25.4678C-0.0966641 25.0391 -0.104429 25.0439 0.108961 26.0357ZM21.6123 25.8597C22.1872 26.4519 22.054 27.9642 21.3638 28.6751C20.8786 29.1748 20.3285 29.3149 18.8516 29.3149H16.9606L17.1659 27.9552C17.547 25.4304 17.5051 25.4758 19.4588 25.4758C20.4382 25.4758 21.4073 25.6486 21.6123 25.8597ZM2.07762 30.8605C2.59261 31.8513 4.58114 33.4912 6.11184 34.1871C7.05392 34.6151 8.38924 34.8717 10.0265 34.9392C12.4915 35.0406 12.4968 35.039 10.7148 34.7476C8.31593 34.3557 6.47277 33.4768 4.84672 31.9495C3.31789 30.5137 1.5328 29.8117 2.07762 30.8605Z" fill="white"/>
</svg>
