<svg width="24" height="24" viewBox="0 0 24 24" fill="none" xmlns="http://www.w3.org/2000/svg">
<path fill-rule="evenodd" clip-rule="evenodd" d="M12 2C9.28415 2 8.9436 2.01151 7.877 2.06018C6.81261 2.10872 6.08568 2.27779 5.4496 2.52501C4.79202 2.78052 4.23434 3.12246 3.67837 3.67839C3.12244 4.23436 2.78051 4.79203 2.52499 5.44962C2.27777 6.08569 2.10871 6.81263 2.06016 7.87701C2.0115 8.94362 1.99998 9.28416 1.99998 12C1.99998 14.7158 2.0115 15.0564 2.06016 16.123C2.10871 17.1874 2.27777 17.9143 2.52499 18.5504C2.78051 19.208 3.12244 19.7656 3.67837 20.3216C4.23434 20.8775 4.79202 21.2195 5.4496 21.475C6.08568 21.7222 6.81261 21.8913 7.877 21.9398C8.9436 21.9885 9.28415 22 12 22C14.7158 22 15.0564 21.9885 16.123 21.9398C17.1874 21.8913 17.9143 21.7222 18.5504 21.475C19.208 21.2195 19.7656 20.8775 20.3216 20.3216C20.8775 19.7656 21.2195 19.208 21.475 18.5504C21.7222 17.9143 21.8913 17.1874 21.9398 16.123C21.9885 15.0564 22 14.7158 22 12C22 9.28416 21.9885 8.94362 21.9398 7.87701C21.8913 6.81263 21.7222 6.08569 21.475 5.44962C21.2195 4.79203 20.8775 4.23436 20.3216 3.67839C19.7656 3.12246 19.208 2.78052 18.5504 2.52501C17.9143 2.27779 17.1874 2.10872 16.123 2.06018C15.0564 2.01151 14.7158 2 12 2ZM12 3.8018C14.6701 3.8018 14.9864 3.812 16.0408 3.86011C17.0158 3.90457 17.5453 4.06748 17.8977 4.20443C18.3645 4.38583 18.6976 4.60253 19.0475 4.95248C19.3975 5.30239 19.6142 5.63551 19.7956 6.10229C19.9325 6.45466 20.0954 6.98415 20.1399 7.95914C20.188 9.0136 20.1982 9.32989 20.1982 12C20.1982 14.6701 20.188 14.9864 20.1399 16.0409C20.0954 17.0158 19.9325 17.5453 19.7956 17.8977C19.6142 18.3645 19.3975 18.6976 19.0475 19.0475C18.6976 19.3975 18.3645 19.6142 17.8977 19.7956C17.5453 19.9325 17.0158 20.0954 16.0408 20.1399C14.9865 20.188 14.6703 20.1982 12 20.1982C9.32968 20.1982 9.01347 20.188 7.95913 20.1399C6.98414 20.0954 6.45464 19.9325 6.10227 19.7956C5.6355 19.6142 5.30238 19.3975 4.95246 19.0475C4.60255 18.6976 4.38582 18.3645 4.20441 17.8977C4.06746 17.5453 3.90455 17.0158 3.8601 16.0409C3.81199 14.9864 3.80178 14.6701 3.80178 12C3.80178 9.32989 3.81199 9.0136 3.8601 7.95914C3.90455 6.98415 4.06746 6.45466 4.20441 6.10229C4.38582 5.63551 4.60251 5.30239 4.95246 4.95248C5.30238 4.60253 5.6355 4.38583 6.10227 4.20443C6.45464 4.06748 6.98414 3.90457 7.95913 3.86011C9.01359 3.812 9.32988 3.8018 12 3.8018ZM12 15.3333C10.159 15.3333 8.66665 13.841 8.66665 12C8.66665 10.159 10.159 8.66667 12 8.66667C13.8409 8.66667 15.3333 10.159 15.3333 12C15.3333 13.841 13.8409 15.3333 12 15.3333ZM12 6.86487C9.16391 6.86487 6.86485 9.16393 6.86485 12C6.86485 14.8361 9.16391 17.1351 12 17.1351C14.8361 17.1351 17.1351 14.8361 17.1351 12C17.1351 9.16393 14.8361 6.86487 12 6.86487ZM17.338 7.86197C18.0007 7.86197 18.538 7.32474 18.538 6.66199C18.538 5.99924 18.0007 5.46197 17.338 5.46197C16.6753 5.46197 16.138 5.99924 16.138 6.66199C16.138 7.32474 16.6753 7.86197 17.338 7.86197Z" fill="black" fill-opacity="0.6"/>
</svg>
