<svg width="184" height="40" viewBox="0 0 184 40" fill="none" xmlns="http://www.w3.org/2000/svg">
<path d="M79.784 29L87.272 12.2H91.112L98.624 29H94.544L88.4 14.168H89.936L83.768 29H79.784ZM83.528 25.4L84.56 22.448H93.2L94.256 25.4H83.528ZM101.927 29L96.5033 16.088H100.367L104.879 27.2H102.959L107.639 16.088H111.239L105.791 29H101.927ZM117.824 29.192C116.352 29.192 115.056 28.904 113.936 28.328C112.832 27.752 111.976 26.968 111.368 25.976C110.76 24.968 110.456 23.824 110.456 22.544C110.456 21.248 110.752 20.104 111.344 19.112C111.952 18.104 112.776 17.32 113.816 16.76C114.856 16.184 116.032 15.896 117.344 15.896C118.608 15.896 119.744 16.168 120.752 16.712C121.776 17.24 122.584 18.008 123.176 19.016C123.768 20.008 124.064 21.2 124.064 22.592C124.064 22.736 124.056 22.904 124.04 23.096C124.024 23.272 124.008 23.44 123.992 23.6H113.504V21.416H122.023L120.584 22.064C120.584 21.392 120.448 20.808 120.176 20.312C119.904 19.816 119.528 19.432 119.048 19.16C118.568 18.872 118.008 18.728 117.368 18.728C116.728 18.728 116.16 18.872 115.664 19.16C115.184 19.432 114.808 19.824 114.536 20.336C114.264 20.832 114.128 21.424 114.128 22.112V22.688C114.128 23.392 114.28 24.016 114.584 24.56C114.904 25.088 115.344 25.496 115.904 25.784C116.48 26.056 117.152 26.192 117.92 26.192C118.608 26.192 119.208 26.088 119.72 25.88C120.248 25.672 120.728 25.36 121.16 24.944L123.152 27.104C122.56 27.776 121.816 28.296 120.92 28.664C120.024 29.016 118.992 29.192 117.824 29.192ZM133.404 15.896C134.428 15.896 135.34 16.104 136.14 16.52C136.956 16.92 137.596 17.544 138.06 18.392C138.524 19.224 138.756 20.296 138.756 21.608V29H135.012V22.184C135.012 21.144 134.78 20.376 134.316 19.88C133.868 19.384 133.228 19.136 132.396 19.136C131.804 19.136 131.268 19.264 130.788 19.52C130.324 19.76 129.956 20.136 129.684 20.648C129.428 21.16 129.3 21.816 129.3 22.616V29H125.556V16.088H129.132V19.664L128.46 18.584C128.924 17.72 129.588 17.056 130.452 16.592C131.316 16.128 132.3 15.896 133.404 15.896ZM141.414 29V12.2H148.686C150.19 12.2 151.486 12.448 152.574 12.944C153.662 13.424 154.502 14.12 155.094 15.032C155.686 15.944 155.982 17.032 155.982 18.296C155.982 19.544 155.686 20.624 155.094 21.536C154.502 22.448 153.662 23.152 152.574 23.648C151.486 24.128 150.19 24.368 148.686 24.368H143.574L145.302 22.616V29H141.414ZM145.302 23.048L143.574 21.2H148.47C149.67 21.2 150.566 20.944 151.158 20.432C151.75 19.92 152.046 19.208 152.046 18.296C152.046 17.368 151.75 16.648 151.158 16.136C150.566 15.624 149.67 15.368 148.47 15.368H143.574L145.302 13.52V23.048ZM165.296 29V26.48L165.056 25.928V21.416C165.056 20.616 164.808 19.992 164.312 19.544C163.832 19.096 163.088 18.872 162.08 18.872C161.392 18.872 160.712 18.984 160.04 19.208C159.384 19.416 158.824 19.704 158.36 20.072L157.016 17.456C157.72 16.96 158.568 16.576 159.56 16.304C160.552 16.032 161.56 15.896 162.584 15.896C164.552 15.896 166.08 16.36 167.168 17.288C168.256 18.216 168.8 19.664 168.8 21.632V29H165.296ZM161.36 29.192C160.352 29.192 159.488 29.024 158.768 28.688C158.048 28.336 157.496 27.864 157.112 27.272C156.728 26.68 156.536 26.016 156.536 25.28C156.536 24.512 156.72 23.84 157.088 23.264C157.472 22.688 158.072 22.24 158.888 21.92C159.704 21.584 160.768 21.416 162.08 21.416H165.512V23.6H162.488C161.608 23.6 161 23.744 160.664 24.032C160.344 24.32 160.184 24.68 160.184 25.112C160.184 25.592 160.368 25.976 160.736 26.264C161.12 26.536 161.64 26.672 162.296 26.672C162.92 26.672 163.48 26.528 163.976 26.24C164.472 25.936 164.832 25.496 165.056 24.92L165.632 26.648C165.36 27.48 164.864 28.112 164.144 28.544C163.424 28.976 162.496 29.192 161.36 29.192ZM172.587 33.848C171.915 33.848 171.251 33.744 170.595 33.536C169.939 33.328 169.403 33.04 168.987 32.672L170.355 30.008C170.643 30.264 170.971 30.464 171.339 30.608C171.723 30.752 172.099 30.824 172.467 30.824C172.995 30.824 173.411 30.696 173.715 30.44C174.035 30.2 174.323 29.792 174.579 29.216L175.251 27.632L175.539 27.224L180.171 16.088H183.771L177.939 29.792C177.523 30.832 177.043 31.648 176.499 32.24C175.971 32.832 175.379 33.248 174.723 33.488C174.083 33.728 173.371 33.848 172.587 33.848ZM174.795 29.504L169.035 16.088H172.899L177.363 26.888L174.795 29.504Z" fill="#141029" fill-opacity="0.8"/>
<rect x="32" width="40" height="40" rx="20" fill="#4579F5"/>
<rect x="16" width="40" height="40" rx="20" fill="url(#paint0_linear_24_80)"/>
<rect width="40" height="40" rx="20" fill="#00FFAA"/>
<defs>
<linearGradient id="paint0_linear_24_80" x1="-4" y1="20" x2="36" y2="60" gradientUnits="userSpaceOnUse">
<stop stop-color="#00FFAA"/>
<stop offset="0.530854" stop-color="#00BBFF"/>
<stop offset="1" stop-color="#4579F5"/>
</linearGradient>
</defs>
</svg>
