<svg width="184" height="40" viewBox="0 0 184 40" fill="none" xmlns="http://www.w3.org/2000/svg">
<path d="M94.544 29H98.624L91.112 12.2H87.272L79.784 29H83.768L85.256 25.4H93.056L94.544 29ZM86.504 22.448L89.168 16.016L91.832 22.448H86.504ZM107.639 16.088L103.943 24.872L100.367 16.088H96.5033L101.927 29H105.791L111.239 16.088H107.639ZM124.064 22.592C124.064 18.44 121.136 15.896 117.344 15.896C113.408 15.896 110.456 18.68 110.456 22.544C110.456 26.384 113.36 29.192 117.824 29.192C120.152 29.192 121.952 28.472 123.152 27.104L121.16 24.944C120.272 25.784 119.288 26.192 117.92 26.192C115.952 26.192 114.584 25.208 114.224 23.6H123.992C124.016 23.288 124.064 22.88 124.064 22.592ZM117.368 18.728C119.048 18.728 120.272 19.784 120.536 21.416H114.176C114.44 19.76 115.664 18.728 117.368 18.728ZM133.404 15.896C131.652 15.896 130.14 16.496 129.132 17.6V16.088H125.556V29H129.3V22.616C129.3 20.24 130.596 19.136 132.396 19.136C134.052 19.136 135.012 20.096 135.012 22.184V29H138.756V21.608C138.756 17.672 136.452 15.896 133.404 15.896ZM148.686 12.2H141.414V29H145.302V24.368H148.686C153.174 24.368 155.982 22.04 155.982 18.296C155.982 14.528 153.174 12.2 148.686 12.2ZM148.47 21.2H145.302V15.368H148.47C150.846 15.368 152.046 16.448 152.046 18.296C152.046 20.12 150.846 21.2 148.47 21.2ZM162.584 15.896C160.52 15.896 158.432 16.448 157.016 17.456L158.36 20.072C159.296 19.328 160.712 18.872 162.08 18.872C164.096 18.872 165.056 19.808 165.056 21.416H162.08C158.144 21.416 156.536 23 156.536 25.28C156.536 27.512 158.336 29.192 161.36 29.192C163.256 29.192 164.6 28.568 165.296 27.392V29H168.8V21.632C168.8 17.72 166.52 15.896 162.584 15.896ZM162.296 26.672C160.976 26.672 160.184 26.048 160.184 25.112C160.184 24.248 160.736 23.6 162.488 23.6H165.056V24.92C164.624 26.096 163.544 26.672 162.296 26.672ZM180.171 16.088L176.523 24.848L172.899 16.088H169.035L174.627 29.096L174.579 29.216C174.075 30.368 173.499 30.824 172.467 30.824C171.723 30.824 170.931 30.512 170.355 30.008L168.987 32.672C169.827 33.416 171.267 33.848 172.587 33.848C174.915 33.848 176.691 32.912 177.939 29.792L183.771 16.088H180.171Z" fill="white"/>
<rect x="32" width="40" height="40" rx="20" fill="#4579F5"/>
<rect x="16" width="40" height="40" rx="20" fill="url(#paint0_linear_24_80)"/>
<rect width="40" height="40" rx="20" fill="#00FFAA"/>
<defs>
<linearGradient id="paint0_linear_24_80" x1="-4" y1="20" x2="36" y2="60" gradientUnits="userSpaceOnUse">
<stop stop-color="#00FFAA"/>
<stop offset="0.530854" stop-color="#00BBFF"/>
<stop offset="1" stop-color="#4579F5"/>
</linearGradient>
</defs>
</svg>
