<svg width="48" height="48" viewBox="0 0 48 48" fill="none" xmlns="http://www.w3.org/2000/svg">
<path fill-rule="evenodd" clip-rule="evenodd" d="M22.8831 34.2599C22.9817 34.3432 23.0871 34.4265 23.1908 34.5081C21.1899 35.8392 18.7878 36.6127 16.2089 36.6127C9.24398 36.6144 3.59998 30.9704 3.59998 24.0072C3.59998 17.0457 9.24397 11.4 16.2072 11.4C18.7878 11.4 21.1899 12.1752 23.1857 13.5046C23.1668 13.5207 23.1478 13.5366 23.1291 13.5523C23.0467 13.6213 22.9675 13.6876 22.9052 13.7596C19.92 16.3385 18.2115 20.0768 18.2115 24.0072C18.2115 27.9359 19.9132 31.6742 22.8831 34.2599ZM31.7928 11.4C29.2088 11.4 26.8101 12.1752 24.8143 13.5046C24.8332 13.5207 24.8521 13.5366 24.8709 13.5523L24.8709 13.5523C24.9533 13.6213 25.0325 13.6876 25.0948 13.7596C28.08 16.3385 29.7885 20.0768 29.7885 24.0072C29.7885 27.9342 28.0868 31.6691 25.1169 34.2599C25.0183 34.3432 24.9129 34.4265 24.8092 34.5081C26.8101 35.8392 29.2088 36.6127 31.7911 36.6127C38.756 36.6144 44.4 30.9704 44.4 24.0072C44.4 17.0474 38.756 11.4 31.7928 11.4ZM23.524 14.4956C23.6787 14.3579 23.8368 14.2304 24 14.1029C24.1632 14.2304 24.323 14.3596 24.476 14.4956C27.1348 16.8059 28.8127 20.2076 28.8127 24.0071C28.8127 27.8083 27.1331 31.2083 24.476 33.5186C24.3213 33.6546 24.1632 33.7872 24 33.913C23.8385 33.7872 23.677 33.6546 23.524 33.5186C20.8652 31.2083 19.1873 27.8083 19.1873 24.0071C19.1873 20.2076 20.8652 16.8059 23.524 14.4956Z" fill="white"/>
</svg>
