<svg width="264" height="264" viewBox="0 0 264 264" fill="none" xmlns="http://www.w3.org/2000/svg">
<mask id="mask0_104_2691" style="mask-type:alpha" maskUnits="userSpaceOnUse" x="0" y="0" width="264" height="264">
<rect width="264" height="264" rx="24" fill="white"/>
</mask>
<g mask="url(#mask0_104_2691)">
<rect width="264" height="264" rx="24" fill="#9C42F5"/>
<path d="M124.901 206.882C125.635 206.882 126.229 206.525 126.229 206.085C126.229 205.645 125.635 205.288 124.901 205.288C124.167 205.288 123.573 205.645 123.573 206.085C123.573 206.525 124.167 206.882 124.901 206.882Z" fill="#212429"/>
<path d="M130.48 202.897C131.012 203.162 131.012 203.694 130.48 203.96C129.949 204.225 129.152 204.225 128.62 203.96C128.089 203.694 128.089 203.162 128.62 202.897C129.152 202.631 129.949 202.631 130.48 202.897Z" fill="#212429"/>
<path d="M135.262 199.975C135.794 200.24 135.794 200.772 135.262 201.037C134.731 201.303 133.934 201.303 133.403 201.037C132.871 200.772 132.871 200.24 133.403 199.975C133.934 199.709 134.731 199.709 135.262 199.975Z" fill="#212429"/>
<path d="M120.916 202.897C121.447 203.162 121.447 203.694 120.916 203.96C120.384 204.225 119.587 204.225 119.056 203.96C118.525 203.694 118.525 203.162 119.056 202.897C119.587 202.631 120.65 202.631 120.916 202.897Z" fill="#212429"/>
<path d="M124.901 201.302C125.635 201.302 126.229 200.946 126.229 200.505C126.229 200.065 125.635 199.708 124.901 199.708C124.167 199.708 123.573 200.065 123.573 200.505C123.573 200.946 124.167 201.302 124.901 201.302Z" fill="#212429"/>
<path d="M130.48 197.318C131.012 197.583 131.012 198.115 130.48 198.38C129.949 198.646 129.152 198.646 128.62 198.38C128.089 198.115 128.089 197.583 128.62 197.318C129.152 197.052 129.949 197.052 130.48 197.318Z" fill="#212429"/>
<path d="M116.399 199.975C116.931 200.24 116.931 200.772 116.399 201.037C115.868 201.303 115.071 201.303 114.539 201.037C114.008 200.772 114.008 200.24 114.539 199.975C115.071 199.709 115.868 199.709 116.399 199.975Z" fill="#212429"/>
<path d="M120.119 198.646C120.852 198.646 121.447 198.289 121.447 197.849C121.447 197.408 120.852 197.052 120.119 197.052C119.385 197.052 118.79 197.408 118.79 197.849C118.79 198.289 119.385 198.646 120.119 198.646Z" fill="#212429"/>
<path d="M124.901 195.989C125.635 195.989 126.229 195.632 126.229 195.192C126.229 194.752 125.635 194.395 124.901 194.395C124.167 194.395 123.573 194.752 123.573 195.192C123.573 195.632 124.167 195.989 124.901 195.989Z" fill="#212429"/>
<path d="M115.336 195.989C116.07 195.989 116.665 195.632 116.665 195.192C116.665 194.752 116.07 194.395 115.336 194.395C114.603 194.395 114.008 194.752 114.008 195.192C114.008 195.632 114.603 195.989 115.336 195.989Z" fill="#212429"/>
<path d="M120.916 192.004C121.447 192.27 121.447 192.801 120.916 193.067C120.384 193.332 119.587 193.332 119.056 193.067C118.525 192.801 118.525 192.27 119.056 192.004C119.587 191.738 120.65 191.738 120.916 192.004Z" fill="#212429"/>
<path d="M125.698 189.081C126.229 189.347 126.229 189.878 125.698 190.144C125.167 190.41 124.37 190.41 123.838 190.144C123.307 189.878 123.307 189.347 123.838 189.081C124.37 188.816 125.167 188.816 125.698 189.081Z" fill="#212429"/>
<path d="M116.399 189.081C116.931 189.347 116.931 189.878 116.399 190.144C115.868 190.41 115.071 190.41 114.539 190.144C114.008 189.878 114.008 189.347 114.539 189.081C115.071 188.816 115.868 188.816 116.399 189.081Z" fill="#212429"/>
<path d="M120.916 186.424C121.447 186.69 121.447 187.222 120.916 187.487C120.384 187.753 119.587 187.753 119.056 187.487C118.525 187.222 118.525 186.69 119.056 186.424C119.587 186.159 120.65 186.159 120.916 186.424Z" fill="#212429"/>
<path d="M102.053 191.738C102.584 192.004 102.584 192.535 102.053 192.801C101.521 193.067 100.724 193.067 100.193 192.801C99.6613 192.535 99.6613 192.004 100.193 191.738C100.724 191.472 101.521 191.472 102.053 191.738Z" fill="#212429"/>
<path d="M106.835 189.081C107.366 189.347 107.366 189.878 106.835 190.144C106.303 190.41 105.506 190.41 104.975 190.144C104.444 189.878 104.444 189.347 104.975 189.081C105.506 188.816 106.303 188.816 106.835 189.081Z" fill="#212429"/>
<path d="M111.617 186.424C112.148 186.69 112.148 187.222 111.617 187.487C111.086 187.753 110.289 187.753 109.757 187.487C109.226 187.222 109.226 186.69 109.757 186.424C110.289 186.159 111.086 186.159 111.617 186.424Z" fill="#212429"/>
<path d="M115.336 185.096C116.07 185.096 116.665 184.74 116.665 184.299C116.665 183.859 116.07 183.502 115.336 183.502C114.603 183.502 114.008 183.859 114.008 184.299C114.008 184.74 114.603 185.096 115.336 185.096Z" fill="#212429"/>
<path d="M120.119 182.174C120.852 182.174 121.447 181.817 121.447 181.377C121.447 180.936 120.852 180.58 120.119 180.58C119.385 180.58 118.79 180.936 118.79 181.377C118.79 181.817 119.385 182.174 120.119 182.174Z" fill="#212429"/>
<path d="M96.4732 190.41C97.2068 190.41 97.8016 190.053 97.8016 189.613C97.8016 189.173 97.2068 188.816 96.4732 188.816C95.7395 188.816 95.1448 189.173 95.1448 189.613C95.1448 190.053 95.7395 190.41 96.4732 190.41Z" fill="#212429"/>
<path d="M102.053 186.424C102.584 186.69 102.584 187.222 102.053 187.487C101.521 187.753 100.724 187.753 100.193 187.487C99.6613 187.222 99.6613 186.69 100.193 186.424C100.724 186.159 101.521 186.159 102.053 186.424Z" fill="#212429"/>
<path d="M106.835 183.768C107.366 184.033 107.366 184.565 106.835 184.83C106.303 185.096 105.506 185.096 104.975 184.83C104.444 184.565 104.444 184.033 104.975 183.768C105.506 183.502 106.303 183.502 106.835 183.768Z" fill="#212429"/>
<path d="M110.554 182.174C111.288 182.174 111.883 181.817 111.883 181.377C111.883 180.936 111.288 180.58 110.554 180.58C109.821 180.58 109.226 180.936 109.226 181.377C109.226 181.817 109.821 182.174 110.554 182.174Z" fill="#212429"/>
<path d="M116.134 178.189C116.665 178.455 116.665 178.986 116.134 179.252C115.602 179.517 114.805 179.517 114.274 179.252C113.742 178.986 113.742 178.455 114.274 178.189C115.071 177.923 115.868 177.923 116.134 178.189Z" fill="#212429"/>
<path d="M120.119 176.86C120.852 176.86 121.447 176.503 121.447 176.063C121.447 175.623 120.852 175.266 120.119 175.266C119.385 175.266 118.79 175.623 118.79 176.063C118.79 176.503 119.385 176.86 120.119 176.86Z" fill="#212429"/>
<path d="M92.488 186.424C93.0194 186.69 93.0194 187.222 92.488 187.487C91.9566 187.753 91.1596 187.753 90.6283 187.487C90.0969 187.222 90.0969 186.69 90.6283 186.424C91.1596 186.159 92.2223 186.159 92.488 186.424Z" fill="#212429"/>
<path d="M97.2702 183.768C97.8016 184.033 97.8016 184.565 97.2702 184.83C96.7389 185.096 95.9418 185.096 95.4105 184.83C94.8791 184.565 94.8791 184.033 95.4105 183.768C95.9418 183.502 96.7389 183.502 97.2702 183.768Z" fill="#212429"/>
<path d="M102.053 180.846C102.584 181.111 102.584 181.643 102.053 181.908C101.521 182.174 100.724 182.174 100.193 181.908C99.6613 181.643 99.6613 181.111 100.193 180.846C100.724 180.58 101.521 180.58 102.053 180.846Z" fill="#212429"/>
<path d="M105.772 179.517C106.506 179.517 107.1 179.16 107.1 178.72C107.1 178.28 106.506 177.923 105.772 177.923C105.038 177.923 104.444 178.28 104.444 178.72C104.444 179.16 105.038 179.517 105.772 179.517Z" fill="#212429"/>
<path d="M110.554 176.86C111.288 176.86 111.883 176.503 111.883 176.063C111.883 175.623 111.288 175.266 110.554 175.266C109.821 175.266 109.226 175.623 109.226 176.063C109.226 176.503 109.821 176.86 110.554 176.86Z" fill="#212429"/>
<path d="M116.134 172.875C116.665 173.141 116.665 173.672 116.134 173.938C115.602 174.203 114.805 174.203 114.274 173.938C113.742 173.672 113.742 173.141 114.274 172.875C115.071 172.344 115.868 172.344 116.134 172.875Z" fill="#212429"/>
<path d="M86.9087 185.096C87.6424 185.096 88.2371 184.74 88.2371 184.299C88.2371 183.859 87.6424 183.502 86.9087 183.502C86.1751 183.502 85.5803 183.859 85.5803 184.299C85.5803 184.74 86.1751 185.096 86.9087 185.096Z" fill="#212429"/>
<path d="M92.488 180.846C93.0194 181.111 93.0194 181.643 92.488 181.908C91.9566 182.174 91.1596 182.174 90.6283 181.908C90.0969 181.643 90.0969 181.111 90.6283 180.846C91.1596 180.58 92.2223 180.58 92.488 180.846Z" fill="#212429"/>
<path d="M96.4732 179.517C97.2068 179.517 97.8016 179.16 97.8016 178.72C97.8016 178.28 97.2068 177.923 96.4732 177.923C95.7395 177.923 95.1448 178.28 95.1448 178.72C95.1448 179.16 95.7395 179.517 96.4732 179.517Z" fill="#212429"/>
<path d="M82.1265 182.174C82.8602 182.174 83.4549 181.817 83.4549 181.377C83.4549 180.936 82.8602 180.58 82.1265 180.58C81.3928 180.58 80.7981 180.936 80.7981 181.377C80.7981 181.817 81.3928 182.174 82.1265 182.174Z" fill="#212429"/>
<path d="M87.9714 178.189C88.5028 178.455 88.5028 178.986 87.9714 179.252C87.44 179.517 86.643 179.517 86.1117 179.252C85.5803 178.986 85.5803 178.455 86.1117 178.189C86.643 177.923 87.44 177.923 87.9714 178.189Z" fill="#212429"/>
<path d="M92.488 175.532C93.0194 175.798 93.0194 176.329 92.488 176.595C91.9566 176.86 91.1596 176.86 90.6283 176.595C90.0969 176.329 90.0969 175.798 90.6283 175.532C91.1596 175.266 92.2223 175.266 92.488 175.532Z" fill="#212429"/>
<path d="M78.407 178.189C78.9383 178.455 78.9383 178.986 78.407 179.252C77.8756 179.517 77.0786 179.517 76.5472 179.252C76.0158 178.986 76.0158 178.455 76.5472 178.189C77.0786 177.923 77.8756 177.923 78.407 178.189Z" fill="#212429"/>
<path d="M82.1265 176.86C82.8602 176.86 83.4549 176.503 83.4549 176.063C83.4549 175.623 82.8602 175.266 82.1265 175.266C81.3928 175.266 80.7981 175.623 80.7981 176.063C80.7981 176.503 81.3928 176.86 82.1265 176.86Z" fill="#212429"/>
<path d="M86.9087 173.938C87.6424 173.938 88.2371 173.581 88.2371 173.141C88.2371 172.701 87.6424 172.344 86.9087 172.344C86.1751 172.344 85.5803 172.701 85.5803 173.141C85.5803 173.581 86.1751 173.938 86.9087 173.938Z" fill="#212429"/>
<path d="M78.407 172.875C78.9383 173.141 78.9383 173.672 78.407 173.938C77.8756 174.203 77.0786 174.203 76.5472 173.938C76.0158 173.672 76.0158 173.141 76.5472 172.875C77.0786 172.344 77.8756 172.344 78.407 172.875Z" fill="#212429"/>
<path d="M83.1892 169.953C83.7205 170.218 83.7205 170.75 83.1892 171.015C82.6578 171.281 81.8608 171.281 81.3294 171.015C80.7981 170.75 80.7981 170.218 81.3294 169.953C81.8608 169.687 82.6578 169.687 83.1892 169.953Z" fill="#212429"/>
<path d="M78.407 167.296C78.9383 167.562 78.9383 168.093 78.407 168.359C77.8756 168.624 77.0786 168.624 76.5472 168.359C76.0158 168.093 76.0158 167.562 76.5472 167.296C77.0786 167.03 77.8756 167.03 78.407 167.296Z" fill="#212429"/>
<path d="M159.174 218.838C159.705 219.103 159.705 219.635 159.174 219.9C158.642 220.166 157.845 220.166 157.314 219.9C156.783 219.635 156.783 219.103 157.314 218.838C157.845 218.572 158.642 218.572 159.174 218.838Z" fill="#212429"/>
<path d="M163.956 216.181C164.487 216.446 164.487 216.978 163.956 217.243C163.425 217.509 162.628 217.509 162.096 217.243C161.565 216.978 161.565 216.446 162.096 216.181C162.628 215.915 163.425 215.915 163.956 216.181Z" fill="#212429"/>
<path d="M168.473 213.259C169.004 213.524 169.004 214.056 168.473 214.321C167.941 214.587 167.144 214.587 166.613 214.321C166.082 214.056 166.082 213.524 166.613 213.259C167.144 212.993 168.207 212.993 168.473 213.259Z" fill="#212429"/>
<path d="M172.458 211.93C173.191 211.93 173.786 211.573 173.786 211.133C173.786 210.693 173.191 210.336 172.458 210.336C171.724 210.336 171.129 210.693 171.129 211.133C171.129 211.573 171.724 211.93 172.458 211.93Z" fill="#212429"/>
<path d="M177.24 209.273C177.974 209.273 178.568 208.916 178.568 208.476C178.568 208.036 177.974 207.679 177.24 207.679C176.506 207.679 175.912 208.036 175.912 208.476C175.912 208.916 176.506 209.273 177.24 209.273Z" fill="#212429"/>
<path d="M182.819 205.022C183.351 205.288 183.351 205.819 182.819 206.085C182.288 206.351 181.491 206.351 180.96 206.085C180.428 205.819 180.428 205.288 180.96 205.022C181.491 204.757 182.288 204.757 182.819 205.022Z" fill="#212429"/>
<path d="M149.609 218.838C150.141 219.103 150.141 219.635 149.609 219.9C149.078 220.166 148.281 220.166 147.75 219.9C147.218 219.635 147.218 219.103 147.75 218.838C148.281 218.572 149.078 218.572 149.609 218.838Z" fill="#212429"/>
<path d="M154.392 216.181C154.923 216.446 154.923 216.978 154.392 217.243C153.86 217.509 153.063 217.509 152.532 217.243C152 216.978 152 216.446 152.532 216.181C153.063 215.915 153.86 215.915 154.392 216.181Z" fill="#212429"/>
<path d="M159.174 213.259C159.705 213.524 159.705 214.056 159.174 214.321C158.642 214.587 157.845 214.587 157.314 214.321C156.783 214.056 156.783 213.524 157.314 213.259C157.845 212.993 158.642 212.993 159.174 213.259Z" fill="#212429"/>
<path d="M163.956 210.602C164.487 210.868 164.487 211.399 163.956 211.665C163.425 211.93 162.628 211.93 162.096 211.665C161.565 211.399 161.565 210.868 162.096 210.602C162.628 210.336 163.425 210.336 163.956 210.602Z" fill="#212429"/>
<path d="M168.473 207.945C169.004 208.211 169.004 208.742 168.473 209.008C167.941 209.274 167.144 209.274 166.613 209.008C166.082 208.742 166.082 208.211 166.613 207.945C167.144 207.679 168.207 207.679 168.473 207.945Z" fill="#212429"/>
<path d="M173.255 205.022C173.786 205.288 173.786 205.819 173.255 206.085C172.723 206.351 171.926 206.351 171.395 206.085C170.864 205.819 170.864 205.288 171.395 205.022C171.926 204.757 172.723 204.757 173.255 205.022Z" fill="#212429"/>
<path d="M178.037 202.366C178.568 202.631 178.568 203.163 178.037 203.428C177.506 203.694 176.709 203.694 176.177 203.428C175.646 203.163 175.646 202.631 176.177 202.366C176.709 202.1 177.506 202.1 178.037 202.366Z" fill="#212429"/>
<path d="M181.757 201.037C182.49 201.037 183.085 200.68 183.085 200.24C183.085 199.8 182.49 199.443 181.757 199.443C181.023 199.443 180.428 199.8 180.428 200.24C180.428 200.68 181.023 201.037 181.757 201.037Z" fill="#212429"/>
<path d="M144.03 217.244C144.764 217.244 145.358 216.887 145.358 216.447C145.358 216.006 144.764 215.649 144.03 215.649C143.296 215.649 142.702 216.006 142.702 216.447C142.702 216.887 143.296 217.244 144.03 217.244Z" fill="#212429"/>
<path d="M149.609 213.259C150.141 213.524 150.141 214.056 149.609 214.321C149.078 214.587 148.281 214.587 147.75 214.321C147.218 214.056 147.218 213.524 147.75 213.259C148.281 212.993 149.078 212.993 149.609 213.259Z" fill="#212429"/>
<path d="M153.329 211.93C154.063 211.93 154.657 211.573 154.657 211.133C154.657 210.693 154.063 210.336 153.329 210.336C152.595 210.336 152 210.693 152 211.133C152 211.573 152.595 211.93 153.329 211.93Z" fill="#212429"/>
<path d="M159.174 207.945C159.705 208.211 159.705 208.742 159.174 209.008C158.642 209.274 157.845 209.274 157.314 209.008C156.783 208.742 156.783 208.211 157.314 207.945C157.845 207.679 158.642 207.679 159.174 207.945Z" fill="#212429"/>
<path d="M163.69 205.022C164.222 205.288 164.222 205.819 163.69 206.085C163.159 206.351 162.362 206.351 161.831 206.085C161.299 205.819 161.299 205.288 161.831 205.022C162.628 204.757 163.425 204.757 163.69 205.022Z" fill="#212429"/>
<path d="M168.473 202.366C169.004 202.631 169.004 203.163 168.473 203.428C167.941 203.694 167.144 203.694 166.613 203.428C166.082 203.163 166.082 202.631 166.613 202.366C167.144 202.1 167.941 202.1 168.473 202.366Z" fill="#212429"/>
<path d="M173.255 199.709C173.786 199.974 173.786 200.506 173.255 200.772C172.723 201.037 171.926 201.037 171.395 200.772C170.864 200.506 170.864 199.974 171.395 199.709C171.926 199.443 172.723 199.443 173.255 199.709Z" fill="#212429"/>
<path d="M178.037 197.052C178.568 197.318 178.568 197.849 178.037 198.115C177.506 198.381 176.709 198.381 176.177 198.115C175.646 197.849 175.646 197.318 176.177 197.052C176.709 196.521 177.506 196.521 178.037 197.052Z" fill="#212429"/>
<path d="M187.602 202.366C188.133 202.631 188.133 203.163 187.602 203.428C187.07 203.694 186.273 203.694 185.742 203.428C185.21 203.163 185.21 202.631 185.742 202.366C186.273 202.1 187.07 202.1 187.602 202.366Z" fill="#212429"/>
<path d="M187.602 197.052C188.133 197.318 188.133 197.849 187.602 198.115C187.07 198.381 186.273 198.381 185.742 198.115C185.21 197.849 185.21 197.318 185.742 197.052C186.273 196.521 187.07 196.521 187.602 197.052Z" fill="#212429"/>
<path d="M181.757 195.458C182.49 195.458 183.085 195.101 183.085 194.661C183.085 194.22 182.49 193.864 181.757 193.864C181.023 193.864 180.428 194.22 180.428 194.661C180.428 195.101 181.023 195.458 181.757 195.458Z" fill="#212429"/>
<path d="M140.045 213.259C140.576 213.524 140.576 214.056 140.045 214.321C139.514 214.587 138.717 214.587 138.185 214.321C137.654 214.056 137.654 213.524 138.185 213.259C138.717 212.993 139.514 212.993 140.045 213.259Z" fill="#212429"/>
<path d="M144.827 210.602C145.358 210.868 145.358 211.399 144.827 211.665C144.296 211.93 143.499 211.93 142.967 211.665C142.436 211.399 142.436 210.868 142.967 210.602C143.499 210.336 144.296 210.336 144.827 210.602Z" fill="#212429"/>
<path d="M148.812 209.273C149.546 209.273 150.141 208.916 150.141 208.476C150.141 208.036 149.546 207.679 148.812 207.679C148.079 207.679 147.484 208.036 147.484 208.476C147.484 208.916 148.079 209.273 148.812 209.273Z" fill="#212429"/>
<path d="M178.037 191.473C178.568 191.739 178.568 192.27 178.037 192.536C177.506 192.801 176.709 192.801 176.177 192.536C175.646 192.27 175.646 191.739 176.177 191.473C176.709 191.207 177.506 191.207 178.037 191.473Z" fill="#212429"/>
<path d="M135.528 210.602C136.06 210.868 136.06 211.399 135.528 211.665C134.997 211.93 134.2 211.93 133.669 211.665C133.137 211.399 133.137 210.868 133.669 210.602C134.2 210.336 134.997 210.336 135.528 210.602Z" fill="#212429"/>
<path d="M140.045 207.945C140.576 208.211 140.576 208.742 140.045 209.008C139.514 209.274 138.717 209.274 138.185 209.008C137.654 208.742 137.654 208.211 138.185 207.945C138.717 207.679 139.514 207.679 140.045 207.945Z" fill="#212429"/>
<path d="M144.827 205.022C145.358 205.288 145.358 205.819 144.827 206.085C144.296 206.351 143.499 206.351 142.967 206.085C142.436 205.819 142.436 205.288 142.967 205.022C143.499 204.757 144.296 204.757 144.827 205.022Z" fill="#212429"/>
<path d="M130.746 207.945C131.277 208.211 131.277 208.742 130.746 209.008C130.215 209.274 129.418 209.274 128.886 209.008C128.355 208.742 128.355 208.211 128.886 207.945C129.418 207.679 130.215 207.679 130.746 207.945Z" fill="#212429"/>
<path d="M135.528 205.022C136.06 205.288 136.06 205.819 135.528 206.085C134.997 206.351 134.2 206.351 133.669 206.085C133.137 205.819 133.137 205.288 133.669 205.022C134.2 204.757 134.997 204.757 135.528 205.022Z" fill="#212429"/>
<path d="M139.248 203.694C139.981 203.694 140.576 203.337 140.576 202.897C140.576 202.457 139.981 202.1 139.248 202.1C138.514 202.1 137.919 202.457 137.919 202.897C137.919 203.337 138.514 203.694 139.248 203.694Z" fill="#212429"/>
<path d="M101.787 93.9685L86.9087 101.142L96.2075 173.938L97.2702 174.47L126.229 158.263L101.787 93.9685Z" fill="#212429"/>
<path d="M158.908 209.008L128.355 191.207L96.7388 102.736L96.2074 102.47C97.0045 113.894 97.2702 122.662 97.2702 128.507V173.407L76.5471 161.451V61.5555L107.1 79.0904L138.451 166.499L138.716 166.765C138.185 156.403 137.919 148.167 137.919 142.057V96.8909L158.642 108.847V209.008H158.908Z" fill="#9C42F5"/>
<path d="M76.5471 61.8207L103.115 45.8799L133.668 63.6805L107.1 79.3556L76.5471 61.8207Z" fill="#9C42F5"/>
<path d="M137.919 97.1569L164.753 81.4818L185.476 93.4374L158.908 109.113L137.919 97.1569Z" fill="#9C42F5"/>
<path d="M76.5471 69.5254L103.115 53.8503L133.668 71.3851L107.1 87.0603L76.5471 69.5254Z" fill="#E7CEFF"/>
<path d="M137.919 104.861L164.753 89.1861L185.476 101.142L158.908 117.083L137.919 104.861Z" fill="#E7CEFF"/>
<path d="M164.753 80.4186L145.093 92.1085L134.731 62.8837L103.381 44.8174L75.75 61.0239V161.982L97.5358 174.469L98.5985 173.938V128.507C98.5985 123.724 98.3328 116.817 97.8015 108.049L127.558 191.739V192.004L158.908 210.071L186.539 193.864V92.9056L164.753 80.4186ZM103.115 47.2086L131.543 63.6807L106.835 78.2932L78.4068 61.821L103.115 47.2086ZM157.845 207.148L129.152 190.41L97.5358 101.939L95.1447 100.61V102.47C95.9417 113.894 96.2074 122.662 96.2074 128.241V171.547L77.6098 160.654V63.1494L106.303 79.6216L137.654 167.03L137.919 167.296L139.779 166.499L139.248 152.684C139.248 152.684 139.248 152.684 139.248 152.418L138.982 98.4848L157.845 109.378V207.148ZM140.045 97.1564L145.624 93.9683L164.753 82.544L183.616 93.4369L158.908 108.049L140.045 97.1564Z" fill="#212429"/>
</g>
</svg>
