<svg width="72" height="72" viewBox="0 0 72 72" fill="none" xmlns="http://www.w3.org/2000/svg">
<path fill-rule="evenodd" clip-rule="evenodd" d="M26.8078 14.7212C28.9725 13.6247 30.3154 11.249 30.3154 8.34538C30.3154 3.37064 26.4871 0 21.0953 0H5.60132C5.26058 0 5.00001 0.263966 5.00001 0.609152V31.2901C5.00001 31.6353 5.26058 31.8993 5.60132 31.8993H20.4338C27.85 31.8993 31.7586 28.6708 31.7586 22.3356C31.7586 16.1628 26.8078 14.7212 26.8078 14.7212ZM10.8127 4.62956H20.0129C23.4003 4.62956 25.1241 6.09152 25.1241 8.8124C25.1241 11.5333 23.4003 12.9952 20.0129 12.9952H10.8127C10.492 12.9952 10.2114 12.7313 10.2114 12.3861V5.23871C10.2114 4.89352 10.472 4.62956 10.8127 4.62956ZM20.1331 27.2697H10.8127C10.472 27.2697 10.2114 27.0057 10.2114 26.6606V18.1933C10.2114 17.8685 10.472 17.5842 10.8127 17.5842H20.1331C24.5829 17.5842 26.5672 18.8634 26.5672 22.4168C26.5472 26.0108 24.623 27.2697 20.1331 27.2697ZM48.9695 47.111L38.6269 67.0506C38.5267 67.2334 38.3062 67.3552 38.0857 67.3755H33.0747C32.734 67.3755 32.5135 67.01 32.6739 66.7054L48.9695 35.8011C49.2101 35.3747 49.8114 35.3747 50.0319 35.8011L66.3276 66.7054C66.4879 67.01 66.2674 67.3755 65.9267 67.3755H60.9157C60.6952 67.3755 60.4948 67.2537 60.3946 67.0506L50.0519 47.111C49.8314 46.6846 49.19 46.6846 48.9695 47.111ZM22.4114 60.3703L32.754 40.4307C32.8543 40.2276 33.0547 40.1058 33.2952 40.1058H38.3062C38.6469 40.1058 38.8674 40.4713 38.7071 40.7759L22.4114 71.6802C22.1709 72.1066 21.5695 72.1066 21.3491 71.6802L5.05338 40.7759C4.89303 40.4713 5.11352 40.1058 5.45426 40.1058H10.4652C10.6857 40.1058 10.8862 40.2276 10.9864 40.4307L21.329 60.3703C21.5495 60.7967 22.1909 60.7967 22.4114 60.3703ZM62.1251 8.34538C62.1251 11.249 60.7822 13.6247 58.6174 14.7212C58.6174 14.7212 63.5683 16.1628 63.5482 22.3356C63.5482 28.6708 59.6397 31.8993 52.2234 31.8993H37.391C37.0502 31.8993 36.7896 31.6353 36.7896 31.2901V0.609152C36.7896 0.263966 37.0502 0 37.391 0H52.9049C58.2967 0 62.1251 3.37064 62.1251 8.34538ZM51.8226 4.62956H42.6224C42.2817 4.62956 42.0211 4.89352 42.0211 5.23871V12.3861C42.0211 12.7313 42.2817 12.9952 42.6224 12.9952H51.8226C55.21 12.9952 56.9338 11.5333 56.9338 8.8124C56.9338 6.09152 55.21 4.62956 51.8226 4.62956ZM42.6024 27.2697H51.9228C56.4126 27.2697 58.3569 26.0108 58.3569 22.4168C58.3569 18.8634 56.3725 17.5842 51.9228 17.5842H42.6024C42.2616 17.5842 42.0011 17.8685 42.0011 18.1933V26.6606C42.0011 27.0057 42.2817 27.2697 42.6024 27.2697Z" fill="white"/>
</svg>
