<svg width="72" height="72" viewBox="0 0 72 72" fill="none" xmlns="http://www.w3.org/2000/svg">
<path d="M36.0007 0C16.1166 0 0 16.1146 0 35.9995C0 55.8832 16.1166 72 36.0007 72C55.8823 72 72 55.8832 72 35.9995C72 16.1146 55.8823 0 36.0007 0ZM7.74071 35.9995C7.74071 21.8339 18.162 10.1166 31.7542 8.06936V21.2917L25.867 21.3118C21.4409 21.3118 18.7563 24.5616 18.7563 28.9838V42.8414C18.7563 47.2661 22.383 50.6787 26.8061 50.6787L31.7312 50.6802L31.7538 63.9533C18.162 61.9027 7.74071 50.1621 7.74071 35.9995ZM27.3092 42.9282C27.3092 42.9282 26.9159 42.8877 26.7196 42.5462C26.5277 42.2113 26.5799 42.0332 26.5799 42.0332V30.0113C26.5799 30.0113 26.5605 29.5858 26.7937 29.3275C27.0126 29.082 27.4187 29.0718 27.4187 29.0718H44.4131C44.4131 29.0718 44.6842 29.0338 44.9976 29.2057C45.2662 29.3494 45.4176 29.916 45.4176 29.916V42.2532C45.4176 42.2532 45.2662 42.5955 45.122 42.7155C44.9845 42.8327 44.7057 42.9242 44.7057 42.9242L40.2086 42.933L27.3092 42.9282ZM40.1352 63.9762L40.1097 50.5875H45.4128C49.8389 50.5875 53.0882 47.2661 53.0882 42.8418V28.9842C53.0882 24.562 49.5623 21.3326 45.1392 21.3326L40.1097 21.3377L40.1071 8.03653C53.7694 10.0261 64.2582 21.7872 64.2582 35.9998C64.2582 50.207 53.7909 61.9855 40.1352 63.9762Z" fill="#E70042"/>
</svg>
