<svg width="72" height="72" viewBox="0 0 72 72" fill="none" xmlns="http://www.w3.org/2000/svg">
<path d="M36.0057 22.5985C39.1744 22.5985 42.7813 25.3334 42.7813 29.1106C42.7813 31.2393 42.0988 32.883 41.0947 34.3844C40.4512 35.3415 39.9605 36.4432 39.7581 37.2406C39.5402 38.141 39.0626 40.321 41.7434 40.3574C43.4873 40.4011 47.7796 38.8919 51.2466 34.7352C53.9142 31.3965 55.4999 27.1626 55.4999 22.5444C55.4999 11.7519 46.7829 3 36.0057 3C25.2257 3 16.4928 11.7519 16.4928 22.5444C16.4928 27.1626 18.0761 31.3965 20.7464 34.7352C24.2188 38.8919 28.5082 40.4011 30.2496 40.3574C32.9305 40.321 32.4451 38.141 32.2374 37.2406C32.0403 36.4432 31.5472 35.3415 30.8984 34.3844C29.8968 32.883 29.2118 31.2393 29.2118 29.1106C29.2195 25.3334 32.8215 22.5985 36.0057 22.5985ZM70.4892 42.3519C69.69 41.6939 68.2885 40.734 65.4108 40.2927C61.4169 39.6994 57.8536 40.6306 55.7076 41.4769C52.8869 42.5867 49.4117 45.1098 47.0113 48.3968C44.4784 51.8697 43.1679 57.1127 44.4243 62.5772C44.7796 64.115 45.1638 64.9819 45.7373 66.0602C46.4873 67.5257 48.4646 69.5719 50.1958 69.9409C51.5633 70.2222 52.6324 69.4402 53.1568 68.8493C56.6442 64.8324 69.8612 49.2766 71.2937 47.2902C72.7006 45.3163 71.7815 43.4197 70.4892 42.3519ZM16.2957 41.4769C14.1497 40.6306 10.5892 39.6994 6.5953 40.2927C3.71728 40.734 2.30305 41.6939 1.51404 42.3519C0.221764 43.4197 -0.704659 45.3163 0.709572 47.2902C2.13435 49.2766 15.3485 64.8324 18.8363 68.8493C19.3607 69.4402 20.4298 70.2222 21.8001 69.9409C23.5415 69.5719 25.511 67.5257 26.2582 66.0602C26.8399 64.9819 27.2159 64.115 27.5818 62.5772C28.8354 57.1127 27.5041 51.8697 24.9948 48.3968C22.5915 45.1098 19.1115 42.5867 16.2957 41.4769Z" fill="#0095DE"/>
</svg>
