<svg width="72" height="72" viewBox="0 0 72 72" fill="none" xmlns="http://www.w3.org/2000/svg">
<path fill-rule="evenodd" clip-rule="evenodd" d="M19.4413 65.6001V70.5645C18.6626 71.0849 17.8838 71.4795 17.105 72L12.296 69.6494C14.5073 68.0823 16.8436 66.641 19.4413 65.6001ZM19.4413 48.6082V55.0137C15.6783 52.0111 12.819 48.0877 11.2615 43.6438L12.5575 44.4274L14.3765 45.3424C15.4168 45.8686 16.457 46.2575 17.4916 46.6522L18.1396 46.9152C18.5318 47.4357 18.9241 48.0877 19.4413 48.6082ZM19.4413 26.6576C15.1553 28.4877 12.1653 30.8441 11 33.5836V38.2906C12.1653 41.0358 15.1553 43.5123 19.4413 45.2109V40.2466C19.3106 40.1207 19.0491 39.9892 18.9241 39.8577C17.3665 38.9426 14.7688 37.2439 15.5475 35.2822C16.1955 33.7151 17.7531 32.537 19.4413 31.7534V26.6576ZM19.4413 16.992V23.2603C18.9241 23.9123 18.5318 24.4385 18.1396 25.0905C17.2301 25.3536 16.3206 25.7425 15.4168 26.1371L13.4727 27.0522L11.7788 28.0988L11.2615 28.3562C12.819 23.7808 15.6783 19.8688 19.4413 16.992ZM19.4413 1.30972V6.40559C16.8436 5.22742 14.5073 3.92343 12.296 2.2248L17.105 0C17.8838 0.526173 18.6626 0.915084 19.4413 1.30972ZM27.8827 35.9342C27.8827 33.5836 28.1442 31.233 28.5364 28.8824C31.0034 28.4877 33.4704 28.2246 35.9375 28.2246V23.7808C33.857 23.7808 31.7822 23.9123 29.7017 24.0438C30.3497 22.6083 31.0034 21.0412 31.9072 19.6C32.6917 18.4275 34.2492 16.3343 35.9375 16.3343V0H33.5955V5.35896C28.5364 4.97005 23.7274 3.5288 19.4413 1.30972V6.40559C23.7274 8.3673 28.5364 9.53976 33.5955 9.80285V11.3699C28.2749 11.7646 23.3408 13.8521 19.4413 16.992V23.2603C21.6526 20.6466 24.5061 18.5591 27.7519 17.2493C26.4559 19.4741 25.2849 22.0879 24.5061 25.0905C22.6871 25.4851 20.9989 26.0056 19.4413 26.6576V31.7534C20.2201 31.3645 20.9989 30.9699 21.6526 30.7125C22.3006 30.4494 22.9486 30.3179 23.5966 30.0548C23.3408 32.0165 23.2044 33.9725 23.2044 35.9342C23.2044 38.0275 23.3408 39.9892 23.5966 41.9509C22.1698 41.4247 20.7431 40.9043 19.4413 40.2466V45.2109C20.9989 45.8686 22.6871 46.5206 24.5061 46.9152C25.2849 49.9179 26.4559 52.5316 27.7519 54.6248C24.5061 53.3151 21.6526 51.2276 19.4413 48.6082V55.0137C23.3408 58.1479 28.2749 60.1096 33.5955 60.6301V62.0713C28.5364 62.4602 23.7274 63.6384 19.4413 65.6001V70.5645C23.7274 68.3397 28.5364 67.0357 33.5955 66.641V72H35.9375V55.6657C35.2894 55.6657 34.505 55.2711 33.7262 54.6248C33.0782 54.0987 32.6917 53.4467 32.1687 52.9262C31.1285 51.3534 30.3497 49.6548 29.7017 47.8303C31.7822 48.0877 33.857 48.2192 35.9375 48.2192V43.6438C33.4704 43.6438 31.0034 43.5123 28.5364 43.1234C28.1442 40.7727 27.8827 38.2906 27.8827 35.9342ZM35.9375 28.2246C38.5352 28.2246 40.9966 28.4877 43.4693 28.8824C44.2481 33.5836 44.2481 38.4221 43.3386 43.1234C40.8715 43.5123 38.4045 43.6438 35.9375 43.6438V48.2192C38.143 48.2192 40.2235 48.0877 42.1676 47.8303C41.2581 50.4383 40.0928 53.052 37.8815 54.8822C37.1028 55.4084 36.5855 55.6657 35.9375 55.6657V72H38.4045V66.641C43.4693 67.0357 48.2726 68.3397 52.4279 70.5645V65.6001C48.1419 63.6384 43.3386 62.4602 38.4045 62.0713V60.6301C43.7251 60.1096 48.5341 58.1479 52.4279 55.0137V48.6082C50.2224 51.2276 47.3631 53.3151 44.1173 54.6248C45.4191 52.5316 46.5844 49.9179 47.3631 46.9152C49.1821 46.5206 50.8704 45.8686 52.4279 45.2109V40.2466C51.1319 40.9043 49.8302 41.4247 48.4034 41.9509C48.6648 39.9892 48.7956 38.0275 48.7956 35.9342C48.7956 33.9725 48.6648 31.885 48.4034 30.0548C49.8302 30.4494 51.1319 30.9699 52.4279 31.7534V26.6576C50.8704 26.0056 49.1821 25.4851 47.3631 25.0905C46.5844 22.0879 45.4191 19.4741 44.1173 17.2493C47.3631 18.5591 50.2224 20.6466 52.4279 23.2603V16.992C48.5341 13.8521 43.7251 11.7646 38.4045 11.3699V9.80285C43.3386 9.53976 48.1419 8.3673 52.4279 6.40559V1.30972C48.2726 3.5288 43.4693 4.97005 38.4045 5.35896V0H35.9375V16.3343C36.199 16.3343 36.4548 16.3343 36.7162 16.4658C39.0525 17.3809 40.4793 20.2577 41.5196 22.3452C41.781 22.8714 41.9061 23.5234 42.1676 24.0438C40.2235 23.9123 38.143 23.7808 35.9375 23.7808V28.2246ZM52.4279 6.40559V1.30972C53.3374 0.915084 54.1162 0.526173 54.7699 0L59.704 2.2248C57.4927 3.92343 55.0257 5.22742 52.4279 6.40559ZM52.4279 23.2603V16.992C56.1967 19.8688 59.0559 23.7808 60.6135 28.3562L59.3117 27.5726C58.4022 27.0522 57.4927 26.526 56.4525 26.1371L54.3777 25.222C54.2469 25.222 53.9911 25.0905 53.8604 25.0905C53.3374 24.4385 52.9509 23.9123 52.4279 23.2603ZM52.4279 45.2109C56.8447 43.5123 59.829 41.0358 61 38.159V33.8467C59.829 30.9699 56.8447 28.4877 52.4279 26.6576V31.7534C53.7296 32.4112 54.7699 33.1947 55.6794 34.1041C56.9754 35.6769 56.8447 36.7235 55.4179 38.159C54.895 38.6795 54.2469 39.0741 53.5989 39.5946C53.2067 39.7261 52.8201 39.9892 52.4279 40.2466V45.2109ZM52.4279 55.0137V48.6082C52.9509 48.0877 53.3374 47.5672 53.8604 46.9152C53.9911 46.7837 54.2469 46.7837 54.3777 46.6522C55.4179 46.2575 56.4525 45.8686 57.4927 45.3424L59.3117 44.4274L60.6135 43.6438C59.0559 48.0877 56.1967 52.0111 52.4279 55.0137ZM52.4279 70.5645V65.6001C55.0257 66.641 57.4927 68.0823 59.704 69.6494L54.7699 72C54.1162 71.4795 53.3374 71.0849 52.4279 70.5645Z" fill="#E50012"/>
</svg>
