<svg width="72" height="72" viewBox="0 0 72 72" fill="none" xmlns="http://www.w3.org/2000/svg">
<path d="M67 5H5V67H67V5Z" fill="url(#paint0_linear_104_1624)"/>
<path d="M53.0705 21.6608C49.2467 23.8458 48.0176 24.1189 43.9207 26.5771L44.0573 26.1674C46.2423 23.8458 47.1982 22.7533 48.5639 20.7048C44.7401 20.978 39.141 21.3877 35.1806 22.207L35.4537 21.7973C39.141 20.022 45.8326 18.2467 49.2467 17.837C48.4273 16.6079 41.5991 12.9207 39.9603 12.2379L40.0969 11.8282C45.2863 12.3744 52.1145 14.8326 54.9824 16.6079C56.2114 16.1982 57.5771 16.1982 59.8987 15.9251C59.8987 15.9251 59.489 17.2907 57.0308 19.0661C57.7136 20.7048 56.2114 30.1277 54.8458 32.5859C54.8458 28.7621 54.5727 23.8458 53.0705 21.6608Z" fill="url(#paint1_linear_104_1624)"/>
<path d="M25.0749 55.2556L25.2115 54.8459C23.163 54.0265 21.1146 53.4802 19.4758 51.8415C20.0221 50.3393 20.5683 49.2468 21.5243 47.8811L21.6608 47.4714C19.8855 47.7445 18.3833 48.4274 16.8811 48.7005C15.652 46.652 15.2423 43.7842 14.5595 41.0529V41.326C14.2864 44.467 14.1498 46.652 14.5595 49.1102C13.3304 49.5199 12.2379 49.5199 11.1454 49.9296L11.0089 50.3393C12.6476 51.2952 13.8767 52.1146 15.7886 52.934C16.7445 54.9824 17.837 56.4846 19.4758 58.1234L19.6124 57.7137C19.3392 56.4846 18.9296 55.5287 19.0661 54.1631C21.1146 54.8459 22.7533 55.119 25.0749 55.2556Z" fill="url(#paint2_linear_104_1624)"/>
<path d="M30.8105 24.119C30.8105 24.119 29.9911 25.6212 29.3083 27.5331H29.1718C33.9515 28.2159 38.4581 30.1278 39.5506 30.8106L39.4141 31.2203C34.4978 30.4009 31.903 30.4009 29.9911 30.674C28.2158 30.8106 27.8061 31.0837 27.8061 31.0837C26.7136 33.4053 26.1674 37.2291 25.8942 38.5947L25.7577 39.0044C24.8017 36.8194 23.5726 32.4494 23.5726 32.4494C21.1145 33.815 15.3788 39.141 15.3788 39.141C18.5198 32.859 21.7973 29.9912 21.7973 29.9912C20.7048 28.8987 17.837 28.3524 15.6519 28.2159L15.7885 27.8062C17.1541 27.3965 19.8854 27.2599 21.6608 27.1234C23.8458 27.1234 25.0748 27.1234 25.0748 27.1234C26.8502 25.6212 29.718 24.2555 30.8105 24.119Z" fill="url(#paint3_linear_104_1624)"/>
<path d="M36.8195 51.2952C35.8635 52.6608 34.9076 53.7533 33.8151 54.9824C32.1763 55.3921 30.2644 55.2555 28.7622 55.2555L28.6256 55.6652C29.7182 56.2115 30.8107 56.6212 32.0397 56.8943C31.0838 57.7137 29.8547 58.3965 28.8988 59.0793L28.7622 59.489C30.6741 59.0793 33.2688 58.2599 35.1807 57.0309C36.1367 57.0309 37.0926 57.0309 37.7754 56.8943L37.912 56.4846C37.7754 56.0749 37.3657 55.8018 37.2292 55.119C39.0045 53.7533 40.2336 52.5243 41.7358 51.0221L42.0089 50.6124C40.5067 51.5683 38.7314 53.0705 37.0926 53.8899C36.956 52.9339 36.8195 52.2511 36.8195 51.2952Z" fill="url(#paint4_linear_104_1624)"/>
<path d="M53.3437 21.2511C49.5199 23.4361 48.2908 23.7092 44.1939 26.1674C46.652 23.5727 47.4714 22.4802 48.9736 20.1586C45.1498 20.2951 39.5507 20.8414 35.5904 21.6608C39.0045 19.7489 45.9692 17.7004 49.5199 17.2907C48.7005 16.1982 41.8723 12.6476 40.097 11.8282C45.423 12.2379 52.1146 14.2863 55.2556 16.1982C56.4846 15.7885 57.8503 15.7885 60.1719 15.5154C59.6256 16.6079 59.6256 17.2907 57.304 18.7929C57.9868 20.4317 56.4846 29.8546 55.119 32.3128C55.119 28.3524 54.7093 23.4361 53.3437 21.2511Z" fill="white"/>
<path d="M25.348 54.8458C23.163 54.0264 21.5242 53.0704 19.8854 51.4317C20.4317 49.9295 20.978 48.837 21.9339 47.4713C20.1586 47.7445 18.7929 47.881 17.2907 48.2907C15.9251 45.9691 15.3788 43.7841 14.8326 40.9163C14.4229 44.0572 14.4229 46.2423 14.8326 48.7004C13.4669 49.1101 12.3744 49.3832 11.2819 49.9295C12.9207 50.8854 14.2863 51.7048 16.0617 52.5242C17.0176 54.5726 18.1101 56.0748 19.7489 57.7136C19.3392 56.348 19.2026 55.2555 19.4758 53.7533C21.2511 54.4361 23.0264 54.7092 25.348 54.8458Z" fill="white"/>
<path d="M31.0836 23.7093C30.4008 24.6652 29.5814 26.304 29.4449 26.9868C35.044 27.8062 39.6872 30.674 39.6872 30.674C34.7709 29.8547 32.1761 29.8547 30.2642 30.1278C28.4889 30.2644 28.0792 30.5375 28.0792 30.5375C26.7136 33.4053 25.8942 38.4582 25.8942 38.4582C24.9383 36.2732 23.7092 31.9031 23.7092 31.9031C21.251 33.2688 15.5154 38.5948 15.5154 38.5948C18.6563 32.3128 21.9339 29.445 21.9339 29.445C20.8413 28.3525 17.9735 27.8062 15.7885 27.6696C16.881 27.26 19.7488 26.7137 21.9339 26.5771C24.1189 26.5771 25.3479 26.5771 25.3479 26.5771C27.1233 25.2115 29.9911 23.8459 31.0836 23.7093Z" fill="white"/>
<path d="M37.0926 50.8855C36.1366 52.2511 35.1807 53.3436 34.0882 54.5727C32.1763 55.119 30.6741 55.2555 28.7622 55.2555C29.8547 55.8018 30.9472 56.2115 32.1763 56.4846C30.9472 57.5771 29.9913 58.2599 28.7622 59.0793C30.6741 58.6696 33.2688 57.8502 35.1807 56.6212C36.1366 56.6212 37.0926 56.6212 37.7754 56.4846C37.6388 55.9384 37.5023 55.5287 37.3657 54.7093C39.141 53.3436 40.5067 52.1146 41.8723 50.6124C40.2335 51.7049 38.8679 52.5243 37.0926 53.3436C37.0926 52.5243 37.0926 51.8414 37.0926 50.8855Z" fill="white"/>
<defs>
<linearGradient id="paint0_linear_104_1624" x1="35.9689" y1="3.47636" x2="35.9689" y2="68.8593" gradientUnits="userSpaceOnUse">
<stop stop-color="#009A64"/>
</linearGradient>
<linearGradient id="paint1_linear_104_1624" x1="47.6401" y1="59.0288" x2="47.6401" y2="11.4834" gradientUnits="userSpaceOnUse">
<stop stop-color="#00B387"/>
<stop offset="1" stop-color="#00A76D"/>
</linearGradient>
<linearGradient id="paint2_linear_104_1624" x1="18.141" y1="59.0314" x2="18.141" y2="11.4717" gradientUnits="userSpaceOnUse">
<stop stop-color="#00B387"/>
<stop offset="1" stop-color="#00A76D"/>
</linearGradient>
<linearGradient id="paint3_linear_104_1624" x1="27.3303" y1="59.0207" x2="27.3303" y2="11.4923" gradientUnits="userSpaceOnUse">
<stop stop-color="#00B387"/>
<stop offset="1" stop-color="#00A76D"/>
</linearGradient>
<linearGradient id="paint4_linear_104_1624" x1="35.2755" y1="59.0274" x2="35.2755" y2="11.4826" gradientUnits="userSpaceOnUse">
<stop stop-color="#00B387"/>
<stop offset="1" stop-color="#00A76D"/>
</linearGradient>
</defs>
</svg>
