<svg width="72" height="72" viewBox="0 0 72 72" fill="none" xmlns="http://www.w3.org/2000/svg">
<path fill-rule="evenodd" clip-rule="evenodd" d="M18.6129 34.5061L52.4397 56.6034C55.0489 58.3097 55.7851 61.8146 54.084 64.4318C52.3829 67.049 48.8888 67.7875 46.2796 66.0812L20.216 49.0606C20.216 49.0606 16.9469 47.176 16.1984 43.664C15.1476 38.7331 18.6129 34.5061 18.6129 34.5061ZM48.4122 17C51.4796 17.0024 53.965 19.4974 53.965 22.5742C53.965 25.6511 51.4796 28.146 48.4122 28.1485C47.2599 28.1406 46.1372 27.7814 45.1932 27.1186L38.2369 22.5743L45.1932 18.0298C46.1336 17.3596 47.2586 16.9997 48.4122 17Z" fill="#38D200"/>
<path fill-rule="evenodd" clip-rule="evenodd" d="M21.5465 55.9171C22.6965 55.925 23.817 56.2821 24.7592 56.941L31.7022 61.4585L24.7592 65.9763C23.8207 66.6425 22.6978 67.0003 21.5465 67C18.4832 67 16 64.519 16 61.4586C16 58.3981 18.4832 55.9171 21.5465 55.9171ZM43.6273 7.55943C45.3216 10.1635 44.5822 13.6468 41.9757 15.3396L29.9895 23.1378L50.4124 36.4262C50.4124 36.4262 54.0885 38.5309 54.8129 42.0828C55.7807 46.8276 52.6921 50.7721 52.4275 51.0992L52.4096 51.1211L21.6201 31.0879C21.6201 31.0879 17.6352 28.6839 17.6352 23.124C17.6352 17.5826 21.6185 15.2092 21.6185 15.2092L35.8401 5.9093C38.4465 4.21653 41.933 4.95532 43.6273 7.55943Z" fill="#0473EA"/>
</svg>
