<svg width="72" height="72" viewBox="0 0 72 72" fill="none" xmlns="http://www.w3.org/2000/svg">
<path fill-rule="evenodd" clip-rule="evenodd" d="M71.2053 40.4432C71.4695 40.8824 71.6671 41.3315 71.7997 41.7918C71.9318 42.252 71.9995 42.7377 72 43.2481C72 44.4376 71.6539 45.561 70.9648 46.6157C70.2784 47.6715 69.2887 48.5392 68.0004 49.2182C66.71 49.8993 65.2991 50.3707 63.763 50.6317C62.2269 50.8933 60.602 51.0259 58.8904 51.0259C57.7601 51.0259 56.4443 50.9472 54.9431 50.7913C53.4419 50.6354 51.4656 50.339 49.0089 49.8993C48.8684 47.7455 48.6845 45.9885 48.4552 44.6289C51.9147 45.8897 55.0578 46.5201 57.8832 46.5201C59.0119 46.5201 60.0672 46.3816 61.048 46.1058C62.0271 45.8294 62.7516 45.4411 63.2198 44.9369C63.6869 44.4339 63.921 43.8722 63.921 43.2481C63.921 42.7662 63.8084 42.3345 63.5833 41.9519C63.2467 41.4277 62.685 40.8824 61.8955 40.3159C60.8868 39.5359 59.0859 38.2545 56.4945 36.469C55.258 35.6056 54.4068 34.9894 53.9365 34.6206C52.878 33.8126 52.0643 33.0871 51.5004 32.4435C50.9345 31.7983 50.5276 31.1568 50.2819 30.5195C50.0351 29.8828 49.912 29.2016 49.912 28.4803C49.912 27.1482 50.3738 25.8979 51.3012 24.7296C52.2281 23.5607 53.6147 22.6466 55.4578 21.9871C57.3036 21.3287 59.6307 21 62.4388 21C64.963 21 67.8064 21.2478 70.9643 21.7435C71.0531 23.2178 71.2301 24.9029 71.4954 26.801C68.747 25.9513 66.2096 25.5254 63.8819 25.5254C62.1545 25.5254 60.7425 25.8414 59.6392 26.4713C58.539 27.1017 57.9884 27.8351 57.9884 28.6706C57.9884 28.8978 58.0259 29.135 58.1031 29.3829C58.1786 29.6312 58.2954 29.8717 58.4497 30.1063C58.6024 30.3393 58.8767 30.6447 59.2698 31.0189C59.6635 31.3946 60.2384 31.8337 60.9972 32.3367C61.7555 32.8393 62.4049 33.2472 62.9413 33.5585L66.2096 35.9379C67.0381 36.4907 67.7774 37.0291 68.4295 37.5533C69.0826 38.077 69.6417 38.5811 70.1088 39.0609C70.5754 39.5439 70.9416 40.0041 71.2053 40.4432ZM44.8392 38.9985C44.7187 38.8073 44.5707 38.6228 44.4185 38.4389L44.4312 38.4374C43.3517 36.8949 41.8668 35.7857 40.1933 34.9899C40.1988 34.9879 40.2041 34.9856 40.21 34.9833C40.213 34.9822 40.2162 34.981 40.2197 34.9799C37.8434 33.8332 35.1194 33.4142 33.532 33.262C33.5249 33.2634 33.5173 33.2656 33.5095 33.2678C33.5 33.2705 33.4903 33.2732 33.4813 33.2747C28.7963 32.8118 24.6149 33.5373 24.6149 33.5373L24.9753 25.5476H31.319C32.6564 25.5476 33.6742 25.6142 34.3696 25.7494C35.065 25.8837 35.6615 26.1035 36.1551 26.4084C36.647 26.7133 37.0132 27.099 37.2516 27.5656C37.4883 28.0338 37.6088 28.53 37.6088 29.0542C37.6088 29.5921 37.4978 30.12 37.278 30.6363C37.0576 31.1541 36.7083 31.6292 36.2344 32.0609C36.0452 32.2321 35.8328 32.378 35.6092 32.5127C36.8621 32.6834 39.3113 33.1632 41.4541 34.4066C41.7558 34.2438 42.0581 34.0795 42.3751 33.866C42.9749 33.4633 43.5007 32.9735 43.9509 32.4007C44.4016 31.8273 44.7462 31.1816 44.9834 30.4656C45.2228 29.7512 45.3412 28.9977 45.3412 28.204C45.3412 27.5656 45.2492 26.9395 45.0616 26.3233C44.8777 25.7072 44.5945 25.1333 44.2162 24.6022C43.8346 24.0712 43.3823 23.6109 42.8512 23.2204C42.3223 22.831 41.6697 22.5028 40.8919 22.2328C40.1167 21.9633 39.2294 21.7615 38.2297 21.6272C37.2347 21.4925 35.7456 21.4243 33.7703 21.4243C32.3568 21.4243 30.5633 21.4465 28.3952 21.4893C26.2224 21.5316 24.3956 21.5522 22.9123 21.5522C21.4465 21.5522 19.6018 21.5379 17.3782 21.5105C17.3956 22.5314 17.4046 23.3013 17.4046 23.8255C17.4046 25.555 17.3058 28.7282 17.1119 33.3455C16.9179 37.9644 16.7573 41.229 16.6342 43.1424C16.5105 45.0537 16.2791 47.5119 15.943 50.515L20.7384 50.4938L27.1471 50.515C32.3383 50.515 35.7318 50.4056 37.3303 50.1857C38.9282 49.9665 40.3719 49.5273 41.6596 48.8684C42.9474 48.2089 43.9599 47.3138 44.6933 46.1803C45.4262 45.0484 45.7908 43.8008 45.7908 42.4402C45.7908 41.8039 45.7084 41.1899 45.5383 40.6023C45.3729 40.0136 45.1393 39.4799 44.8392 38.9985ZM37.8196 43.1229C37.6616 43.571 37.4444 43.9726 37.1718 44.3266C36.898 44.6822 36.5847 44.9729 36.2296 45.2006C35.8766 45.4273 35.392 45.6408 34.7722 45.8395C34.1561 46.0387 33.5066 46.1756 32.8281 46.2543C32.147 46.3325 31.198 46.3711 29.98 46.3711H23.9681L24.3618 37.6812C24.3618 37.6812 30.948 36.8458 34.8472 38.0352C34.9508 38.0654 35.0533 38.0986 35.1527 38.1319C35.1595 38.1346 35.1685 38.1378 35.1743 38.1404C35.4444 38.2323 35.7022 38.338 35.9416 38.4617C36.0922 38.5404 36.2365 38.6228 36.3749 38.7148C36.5097 38.8014 36.6338 38.8918 36.7511 38.9859C36.7593 38.9934 36.7676 39.0005 36.7758 39.0075C36.7866 39.0168 36.7972 39.0259 36.8072 39.0355C36.8207 39.0472 36.8346 39.0586 36.8485 39.07L36.8486 39.0701C36.8716 39.089 36.8945 39.1077 36.915 39.1275L36.9081 39.127C37.2051 39.3917 37.4513 39.6823 37.6347 40.0036C37.9174 40.4998 38.059 41.0752 38.059 41.7278C38.059 42.2108 37.9792 42.6769 37.8196 43.1229ZM1.3982 21.5099L1.42304 23.7842C1.42304 26.4898 1.29199 30.4027 1.02884 35.5231C0.763568 40.644 0.42168 45.6418 0 50.5149C2.4207 50.4869 3.95893 50.4727 4.611 50.4727L8.50758 50.5149C8.70045 38.6297 9.15806 28.9612 9.87936 21.5099C7.42273 21.5379 6.07103 21.5522 5.82373 21.5522L1.3982 21.5099Z" fill="white"/>
</svg>
