<svg width="72" height="72" viewBox="0 0 72 72" fill="none" xmlns="http://www.w3.org/2000/svg">
<path fill-rule="evenodd" clip-rule="evenodd" d="M8.59278 12.2304C3.38512 13.3174 -0.327882 18.1095 0.0229232 23.2909C0.423664 29.2075 5.05024 33.4358 11.1075 33.4215C14.072 33.4143 16.5765 32.4446 18.6909 30.4851L19.9402 29.3274L18.8019 28.4454L17.6638 27.5631L16.7269 28.4798C14.2387 30.9142 10.4519 31.484 7.2641 29.9037C6.32 29.4355 4.71667 27.9445 4.15391 27.0112C3.40776 25.774 3.02444 24.3016 3.02444 22.6734C3.02444 18.6205 5.75508 15.4511 9.86146 14.7378C12.2618 14.321 14.5866 15.055 16.5665 16.8549L17.6844 17.8712L18.707 17.0831C19.2693 16.6495 19.7295 16.2253 19.7295 16.1404C19.7295 15.5721 17.0793 13.4862 15.5453 12.8471C13.542 12.0126 10.8011 11.7696 8.59278 12.2304ZM22.2877 22.7382L22.334 33.1683H23.771H25.208L25.2543 22.7382L25.3007 12.3081H23.771H22.2413L22.2877 22.7382ZM0.0463557 49.3955L0.0926989 59.8256L4.40367 59.8741C9.17987 59.9281 10.6948 59.7773 12.2662 59.0919C15.4983 57.6823 16.52 53.7332 14.4181 50.7754C13.9342 50.0944 12.3874 49.0947 11.8132 49.0916C11.3546 49.0893 11.4288 48.7959 11.9179 48.6765C12.6595 48.4956 13.9394 47.2374 14.3692 46.2665C15.2203 44.3436 14.4881 41.7088 12.7266 40.3556C11.1239 39.1244 10.2106 38.9654 4.74262 38.9654H1.24343e-05L0.0463557 49.3955ZM49.7587 49.4391V59.9129H51.1957H52.6327V57.7694V55.626L53.7602 54.54C54.3802 53.9428 54.9369 53.4541 54.9969 53.4541C55.0571 53.4541 56.2564 54.9073 57.6622 56.6835L60.2182 59.9129H61.904C62.8312 59.9129 63.5897 59.8406 63.5897 59.7523C63.5897 59.664 62.1348 57.7832 60.3565 55.5727C58.5782 53.3624 57.1233 51.4913 57.1233 51.4147C57.1233 51.3382 58.5976 49.8411 60.3996 48.088L63.676 44.9005L61.7917 44.9173L59.9074 44.9338L56.315 48.5925L52.7225 52.251L52.6754 45.6082L52.6284 38.9654H51.1935H49.7587V49.4391ZM10.2226 42.0202C11.2053 42.5827 11.5626 43.1915 11.6447 44.4433C11.7325 45.7859 11.4135 46.5512 10.5193 47.1426C9.61366 47.7413 8.842 47.8593 5.79576 47.8639L3.05649 47.8681V44.7121C3.05649 43.4796 3.05649 41.5561 3.05649 41.5561L6.33463 41.6137C9.22459 41.6643 9.68498 41.7125 10.2226 42.0202ZM33.4107 18.1512C31.1717 18.6444 29.4568 20.0337 28.3884 22.2201C27.8035 23.4169 27.7243 23.7465 27.6625 25.2434C27.5492 27.984 28.3164 29.9216 30.1778 31.5964C31.5471 32.8283 32.7887 33.2991 34.9109 33.3911C36.2285 33.448 36.7456 33.3909 37.6803 33.0849C39.674 32.4322 40.9463 31.3693 41.7594 29.6771C42.3818 28.3822 42.3718 28.3679 40.8399 28.3679C39.5545 28.3679 39.4863 28.3885 39.24 28.8516C38.5019 30.2385 37.1194 30.9786 35.2669 30.9786C32.8354 30.9786 31.2613 29.7204 30.71 27.336L30.5451 26.6222H36.4535H42.3621L42.359 25.6185C42.3545 24.2024 41.9249 22.3997 41.345 21.3644C40.6767 20.1709 39.1811 18.8764 37.9562 18.4309C36.6308 17.9491 34.8315 17.8382 33.4107 18.1512ZM49.7344 18.0828C48.5675 18.2827 47.1523 18.8877 46.3953 19.51C45.7755 20.0199 44.976 21.3682 44.792 22.2145L44.6686 22.7819H46.2098C47.622 22.7819 47.7508 22.7532 47.7508 22.4388C47.7508 21.7966 48.7903 20.8823 49.8655 20.5785C52.444 19.8501 54.7561 21.1588 54.7561 23.3467V23.976L53.6335 24.0736C53.0161 24.1274 51.6134 24.2482 50.5164 24.3423C47.3649 24.6123 45.7052 25.4012 44.8364 27.0421C44.3943 27.8768 44.3162 29.4964 44.6697 30.4954C44.9698 31.3442 46.0433 32.399 47.1244 32.9075C48.2976 33.4595 50.4063 33.5868 51.6623 33.1813C52.849 32.7983 54.1391 31.9549 54.5314 31.3059L54.8459 30.7852L54.9357 31.9768L55.0255 33.1683H56.3727H57.7199V27.7387V22.3091L57.0912 21.112C55.8283 18.7067 52.9671 17.5287 49.7344 18.0828ZM22.6761 44.7364C20.2584 45.151 18.2315 46.8577 17.8688 48.7845L17.7456 49.4391H19.2002H20.6548L20.9023 48.8636C21.2585 48.0351 22.1275 47.4018 23.2401 47.1597C25.6379 46.6383 27.6041 47.7654 27.8027 49.7753C27.8798 50.5544 27.8496 50.6618 27.5531 50.6661C26.0058 50.6897 21.4507 51.224 20.6596 51.4749C19.3301 51.8966 17.9042 53.2268 17.6024 54.3269C17.3095 55.3943 17.4869 56.805 18.0258 57.6954C19.04 59.3709 20.3473 59.9998 22.8151 60C24.3162 60.0002 24.6435 59.942 25.535 59.5166C26.0922 59.2506 26.8768 58.6866 27.2782 58.2633L28.0084 57.4935L28.0612 58.6595L28.114 59.8256H29.4612H30.8084V54.676C30.8084 50.8091 30.7466 49.3194 30.56 48.6953C30.2611 47.6952 29.3791 46.4457 28.5555 45.8552C27.1875 44.8743 24.6681 44.395 22.6761 44.7364ZM38.5123 44.8013C36.9871 45.1374 36.1493 45.594 35.1472 46.6353C33.5299 48.3156 33.5108 48.4038 33.4462 54.5451L33.3896 59.9129H34.8259H36.2623L36.3194 54.8942C36.3764 49.9134 36.3801 49.8696 36.8258 49.0977C37.4728 47.977 38.4936 47.3384 39.8255 47.2211C41.1263 47.1065 42.0149 47.3594 42.8678 48.087C44.0831 49.124 44.091 49.1642 44.1904 54.7633L44.2802 59.8256H45.7172H47.1542L47.1436 54.7633C47.1337 49.9558 47.113 49.6514 46.7337 48.7156C45.9548 46.7945 44.7001 45.6021 42.8432 45.0185C41.5344 44.6071 39.7901 44.5196 38.5123 44.8013ZM64.0075 18.6817C62.6008 19.2436 62.1528 19.5774 61.4455 20.5907C60.3949 22.096 60.3133 22.6719 60.3665 28.2039L60.4143 33.1683H61.8512H63.2882L63.3781 27.9002C63.4628 22.9253 63.4885 22.6054 63.8383 22.1505C64.6198 21.1338 65.0611 20.9554 67.0275 20.8617L68.8566 20.7744L68.9094 19.5088L68.9622 18.2432L67.0233 18.2474C65.38 18.2509 64.9203 18.3171 64.0075 18.6817ZM36.5128 20.5279C37.9234 20.8732 39.0173 22.1115 39.3902 23.7856L39.5166 24.3529H35.1015C30.0832 24.3529 30.3449 24.4503 31.1153 22.8691C32.1109 20.8259 34.1378 19.9468 36.5128 20.5279ZM10.6167 50.8582C11.8681 51.4267 12.3975 52.1873 12.5173 53.5894C12.6453 55.0878 12.1106 55.9934 10.6905 56.6835C9.62983 57.1988 9.56067 57.208 6.33463 57.2674L3.05649 57.3278V53.8032V50.2786L6.33463 50.3404C9.42398 50.3985 9.6706 50.4282 10.6167 50.8582ZM54.7561 27.2419C54.7561 28.3483 54.5005 28.9184 53.6487 29.7108C52.7467 30.5502 51.6206 30.9779 50.3014 30.9825C48.5413 30.9884 47.3915 30.184 47.3915 28.9465C47.3915 27.1066 49.073 26.403 53.7233 26.2967L54.7561 26.2731V27.2419ZM27.8446 53.8102C27.8446 55.9732 25.9109 57.6312 23.3784 57.6397C21.4908 57.646 20.3992 56.7945 20.4414 55.3488C20.4881 53.7508 22.3359 53.0562 26.8118 52.9539L27.8446 52.9304V53.8102ZM68.7529 30.1C68.3231 30.5178 68.2279 30.7576 68.2279 31.4227C68.2279 32.5755 68.9277 33.2556 70.114 33.2556C70.7983 33.2556 71.0451 33.1631 71.475 32.7454C71.9048 32.3276 72 32.0878 72 31.4227C72 30.2699 71.3002 29.5898 70.114 29.5898C69.4296 29.5898 69.1828 29.6823 68.7529 30.1Z" fill="white"/>
</svg>
