<svg width="72" height="72" viewBox="0 0 72 72" fill="none" xmlns="http://www.w3.org/2000/svg">
<path d="M0 22C1.02247 22.4266 1.69365 25.0362 1.69365 25.0362L8.03501 46.8349C8.76603 49.5628 11.0789 51 13.6674 51H27.5711C26.5754 50.8241 25.4836 47.9248 25.4836 47.9248L18.4333 26.243C17.4186 22.9311 15.7077 22 13.116 22H0ZM58.8446 22C56.2467 22 54.5656 22.9311 53.5667 26.243L46.477 47.9248C46.477 47.9248 45.3962 50.8241 44.3895 51H58.2932C60.8944 51 63.1851 49.5628 63.9256 46.8349L70.267 25.0362C70.267 25.0362 70.9586 22.4266 72 22H58.8446ZM28.2801 22.1557V51H43.7593V22.1557H28.2801Z" fill="#ED1A3A"/>
</svg>
