<svg width="72" height="72" viewBox="0 0 72 72" fill="none" xmlns="http://www.w3.org/2000/svg">
<path d="M34.2605 3.00424C32.5279 3.00424 32.1697 3.30918 31.6074 3.94214C31.3765 3.92819 31.1453 3.92187 30.914 3.9232C29.5812 3.9232 27.8694 4.12085 26.4096 5.10708C24.9998 6.04706 24.3292 7.71038 25.081 8.92793C25.081 8.92793 25.5849 8.18146 27.2426 8.18146C27.4758 8.18146 27.734 8.20665 28.0089 8.22978C30.2996 8.50315 31.9948 9.72071 31.7886 12.936C31.6054 16.1491 30.4121 19.7324 25.5308 19.7745C25.5308 19.7745 24.9019 19.7745 24.2313 19.7114C21.9594 19.4611 21.2451 18.0206 21.2451 18.0206C21.2451 18.0206 23.2088 17.4823 23.2255 14.9652C23.2088 13.2535 21.7324 11.6869 19.602 11.0539C18.8663 10.8442 18.1049 10.7408 17.3404 10.7469C14.829 10.7469 12.0093 11.8089 10.108 14.3154C5.79731 20.0625 5.44746 28.4403 6.49911 36.2313C7.557 44.0392 12.4612 51.2709 12.6049 51.4686C12.709 51.6074 12.8027 51.6831 12.9089 51.6831C12.972 51.6792 13.0316 51.6531 13.0776 51.6094C15.1955 49.5339 17.2155 46.6972 18.0797 44.8004C19.0043 45.5449 18.5212 47.1283 18.0131 48.8189C17.5299 50.5475 16.3554 52.8417 15.9306 53.5819C15.5204 54.3052 14.9706 55.1464 15.7099 55.5859C15.7966 55.6358 15.8954 55.6606 15.9952 55.6574C16.9448 55.6574 19.1793 53.9857 21.672 50.6295C24.4625 46.8528 25.8786 43.5009 25.8786 43.5009C26.0826 43.5471 26.4242 43.8962 26.3679 44.8467C26.3305 45.8119 25.3475 49.4036 23.4337 52.7471C21.4991 56.0885 19.7124 58.1788 19.3521 58.654C19.1293 58.9295 19.3188 59.1019 19.4625 59.2134C19.6041 59.3101 23.0256 62.5358 27.9964 65.2611C33.8857 68.4301 36.4971 69 36.4971 69C36.4971 69 39.1022 68.4448 44.9915 65.2779C49.9602 62.5484 53.3963 59.308 53.5233 59.1986C53.667 59.0998 53.8503 58.9441 53.6337 58.6413C53.2943 58.1871 51.5013 56.0865 49.5708 52.745C47.6633 49.4246 46.6429 45.8098 46.6283 44.8572C46.5887 43.8962 46.9094 43.5787 47.1052 43.4987C47.1052 43.4987 48.5358 46.8717 51.3263 50.6274C53.8316 53.9878 56.0452 55.6553 56.999 55.6553C57.1021 55.6587 57.2043 55.634 57.2947 55.5838C58.0111 55.1443 57.478 54.2905 57.0573 53.5756C56.6658 52.8396 55.4746 50.5602 54.9686 48.8169C54.4834 47.1073 53.9794 45.5259 54.9207 44.7983C55.787 46.6951 57.7924 49.5465 59.9165 51.5926C59.9396 51.6191 59.9677 51.6406 59.9992 51.6557C60.0307 51.6709 60.0649 51.6795 60.0998 51.6809C60.1935 51.6809 60.2935 51.6073 60.3809 51.479C60.5371 51.2687 65.4496 44.0497 66.4992 36.2292C67.5529 28.4213 67.2052 20.0625 62.8903 14.3133C61.0015 11.8004 58.161 10.7322 55.6329 10.7322C54.8436 10.7322 54.0898 10.8352 53.4005 11.035C51.2535 11.6869 49.7832 13.2683 49.7957 14.9632C49.7957 17.4803 51.7699 18.0185 51.7699 18.0185C51.7699 18.0185 51.1098 19.4233 48.7566 19.7093C48.3338 19.7621 47.9081 19.7888 47.4821 19.7892C45.712 19.7892 44.221 19.2214 42.8465 17.2615C41.5137 15.3753 41.5575 11.4914 41.4804 10.196C41.42 8.88172 41.141 5.93353 39.7728 4.7307C38.4088 3.49633 36.747 3.08201 34.6749 3C34.5229 3.00421 34.3875 3.00424 34.2605 3.00424" fill="#00AFE9"/>
</svg>
