<svg width="72" height="72" viewBox="0 0 72 72" fill="none" xmlns="http://www.w3.org/2000/svg">
<path fill-rule="evenodd" clip-rule="evenodd" d="M17.3117 54.8152H55.4863V16.255H17.3117V54.8152Z" fill="white"/>
<path fill-rule="evenodd" clip-rule="evenodd" d="M54.2394 53.6049L40.3867 41.8707C40.3867 41.8707 38.5101 40.02 36.4053 40.02C34.2793 40.02 32.4027 41.8707 32.4027 41.8707L18.5543 53.6049L18.5099 53.5643L30.1288 39.5717C30.1288 39.5717 31.9568 37.6826 31.9568 35.5309C31.9568 33.4005 30.1288 31.5092 30.1288 31.5092L18.5099 17.5059L18.5543 17.4568L32.4027 29.2038C32.4027 29.2038 34.2793 31.0588 36.4053 31.0588C38.5101 31.0588 40.3867 29.2038 40.3867 29.2038L54.2394 17.4568L54.2965 17.5187L42.6543 31.5092C42.6543 31.5092 40.839 33.4005 40.839 35.5309C40.839 37.6826 42.6543 39.5717 42.6543 39.5717L54.2965 53.5601L54.2394 53.6049ZM60.7209 35.5309V35.5266C60.7209 31.7333 60.8731 28.3328 63.6584 22.3601C64.4636 20.6225 66.2451 18.0908 63.6203 15.1365C61.488 12.989 59.0662 13.3412 57.4347 14.2911C58.373 12.6432 58.7217 10.1862 56.5915 8.03024C53.6688 5.38755 51.154 7.18278 49.4422 8.00035C43.5229 10.8202 40.1733 10.976 36.4053 10.976C32.6225 10.976 29.2687 10.8202 23.362 8.00035C21.6418 7.18278 19.1164 5.38755 16.2022 8.03024C14.072 10.1862 14.4312 12.6432 15.3695 14.2911C13.7338 13.337 11.3078 12.989 9.17334 15.1365C6.55074 18.0908 8.3407 20.6225 9.13108 22.3601C11.9333 28.3328 12.0876 31.7333 12.0876 35.5309C12.0876 39.3391 11.9333 42.7481 9.13108 48.7165C8.3407 50.4413 6.55074 52.9901 9.17334 55.9423C11.3078 58.0834 13.7338 57.729 15.3695 56.7898C14.4312 58.442 14.072 60.8926 16.2022 63.0272C19.1164 65.6891 21.6418 63.8896 23.362 63.072C29.2729 60.2543 32.6225 60.1049 36.4053 60.1049C40.1733 60.1049 43.5229 60.2543 49.4401 63.072C51.154 63.8896 53.6688 65.6891 56.5915 63.0272C58.7217 60.8926 58.3646 58.442 57.4305 56.7898C59.0662 57.729 61.488 58.0962 63.6203 55.9423C66.2451 52.9901 64.4636 50.4413 63.6584 48.7165C60.8731 42.7395 60.7209 39.3391 60.7209 35.5309Z" fill="#FF3333"/>
</svg>
