<svg width="72" height="72" viewBox="0 0 72 72" fill="none" xmlns="http://www.w3.org/2000/svg">
<path fill-rule="evenodd" clip-rule="evenodd" d="M35.9969 69.7885C54.7774 69.7885 70 54.5644 70 35.7823C70 17.0065 54.779 1.78546 35.9969 1.78546C17.221 1.78546 2 17.0065 2 35.7823C2 54.566 17.221 69.7885 35.9969 69.7885Z" fill="#ED1C29"/>
<path fill-rule="evenodd" clip-rule="evenodd" d="M7.68244 35.7606C7.68244 20.128 20.3565 7.45391 35.9891 7.45391C51.6217 7.45391 64.2911 20.128 64.2911 35.7606C64.2911 51.3916 51.6232 64.0595 35.9891 64.0595C20.355 64.0595 7.68244 51.3931 7.68244 35.7606ZM35.9876 65.4277C52.3733 65.4277 65.6578 52.1448 65.6578 35.7699C65.6578 19.3841 52.3733 6.10437 35.9876 6.10437C19.6064 6.10437 6.32202 19.3841 6.32202 35.7699C6.32357 52.1448 19.6064 65.4277 35.9876 65.4277Z" fill="white"/>
<path fill-rule="evenodd" clip-rule="evenodd" d="M35.3089 20.7741H35.3043H33.1394C32.7325 20.7741 32.4048 20.4511 32.4048 20.0488C32.4048 19.642 32.7325 19.308 33.1394 19.308H35.3043H35.3089V12.7419H35.3043H30.1157L31.3829 21.9574H24.1148C24.1148 21.9574 26.8559 39.8046 19.4853 54.6917C23.8741 54.7042 29.173 54.6917 29.173 54.6917H29.1543C34.2591 40.9849 33.686 39.3465 33.686 39.3465H35.3043H35.3089V33.2214H35.3043H33.6674C33.2605 33.2214 32.9281 32.8922 32.9281 32.4853C32.9281 32.0831 33.2605 31.7461 33.6674 31.7461H35.3043H35.3089V20.7741Z" fill="white"/>
<path fill-rule="evenodd" clip-rule="evenodd" d="M36.778 20.7741H38.8901C39.297 20.7741 39.6263 20.4511 39.6263 20.0488C39.6263 19.642 39.2986 19.308 38.8901 19.308H36.778V12.7419H41.9185L40.6761 21.9574H47.9535C47.9535 21.9574 45.1876 39.8046 52.5581 54.6917C48.1693 54.7042 42.8581 54.6917 42.8581 54.6917C37.7533 40.9849 38.345 39.3465 38.345 39.3465H36.778V33.2214H36.8759H38.3838C38.7907 33.2214 39.1184 32.8922 39.1184 32.4853C39.1184 32.0831 38.7907 31.7461 38.3838 31.7461H36.8759H36.778V20.7741Z" fill="white"/>
<path fill-rule="evenodd" clip-rule="evenodd" d="M30.7772 40.6976C30.7353 40.7365 30.684 40.7706 30.6437 40.8032L31.2913 43.2213C31.3891 43.5909 31.1701 43.9667 30.8021 44.0646C30.4325 44.1639 30.0582 43.9496 29.9603 43.5816L29.3687 41.3856C29.2522 41.4042 29.1326 41.4276 29.013 41.4213C28.9105 41.4213 28.8142 41.4027 28.7117 41.3887L28.1247 43.5816C28.0269 43.9481 27.6479 44.1639 27.283 44.0646C26.9164 43.9667 26.6944 43.5909 26.7922 43.2213L27.4352 40.8219C27.3886 40.783 27.3327 40.752 27.2861 40.7007C26.8248 40.2364 26.5701 39.6152 26.5701 38.9505V29.019C26.5794 27.6508 27.6992 26.5497 29.0658 26.559C30.4123 26.5622 31.5071 27.6725 31.5025 29.0283V38.9614C31.5025 39.6214 31.2431 40.2364 30.7772 40.6976Z" fill="#ED1C29"/>
<path fill-rule="evenodd" clip-rule="evenodd" d="M27.9523 33.1717C27.9523 35.891 27.9523 38.9505 27.9523 38.9505C27.9523 39.2502 28.0626 39.5266 28.266 39.7332C28.4632 39.9304 28.7273 40.0391 29.0146 40.0391C29.3112 40.0453 29.5938 39.9242 29.8004 39.7176C30.0085 39.5142 30.1203 39.2409 30.1234 38.9629C30.1234 38.9629 30.1234 35.891 30.1234 33.1717H27.9523Z" fill="white"/>
<path fill-rule="evenodd" clip-rule="evenodd" d="M30.125 31.7942C30.125 30.2272 30.125 29.0298 30.125 29.0298C30.125 28.4195 29.6591 27.9381 29.0612 27.9381C28.4493 27.9381 27.9523 28.4242 27.9523 29.0205C27.9523 29.0205 27.9523 30.221 27.9523 31.7942H30.125Z" fill="white"/>
<path fill-rule="evenodd" clip-rule="evenodd" d="M46.0262 32.4791L43.0522 26.6802L40.0782 32.4791L42.3627 36.9347V43.389C42.3627 43.7679 42.6717 44.0739 43.0569 44.0739C43.4358 44.0739 43.7448 43.7679 43.7448 43.389V36.9161L46.0262 32.4791ZM43.0522 35.3071L41.6001 32.4791L43.0522 29.6433L44.5043 32.4791L43.0522 35.3071Z" fill="#ED1C29"/>
</svg>
