<svg width="72" height="72" viewBox="0 0 72 72" fill="none" xmlns="http://www.w3.org/2000/svg">
<g clip-path="url(#clip0_104_1562)">
<path fill-rule="evenodd" clip-rule="evenodd" d="M72 35.8509C72 24.8696 63.1056 16 52.1491 16V23.5031C58.9814 23.5031 64.5218 29.0435 64.5218 35.8758L72 35.8509ZM19.8758 48.2236C13.0435 48.2236 7.50311 42.6832 7.50311 35.8509H0C0 46.8323 8.89441 55.7019 19.8509 55.7019L19.8758 48.2236ZM19.8509 16C30.8074 16 39.7018 24.8696 39.7018 35.8509C39.7018 42.6832 45.2422 48.2236 52.0745 48.2236V55.7267C41.118 55.7267 32.2236 46.8571 32.2236 35.8758C32.2236 29.0435 26.6832 23.5031 19.8509 23.5031V16Z" fill="#FF5000"/>
</g>
<defs>
<clipPath id="clip0_104_1562">
<rect width="72" height="72" fill="white"/>
</clipPath>
</defs>
</svg>
