<svg width="72" height="72" viewBox="0 0 72 72" fill="none" xmlns="http://www.w3.org/2000/svg">
<path d="M22.1405 50.002L22.0099 50.1238C19.9589 52.1346 17.5855 53.1969 15.1407 53.1969C10.0348 53.1969 6.3308 49.5111 6.3308 44.4271C6.3308 39.351 10.0348 35.6593 15.1407 35.6593C17.5855 35.6593 19.9589 36.7275 22.0099 38.7462L22.1405 38.866L25.424 35.0446L25.3363 34.9425C22.6058 31.8379 19.3283 30.3279 15.2999 30.3279C11.2612 30.3279 7.56342 31.6376 4.90228 33.996C2.00442 36.5527 0.47998 40.1581 0.47998 44.4271C0.47998 48.6962 2.00442 52.3093 4.90228 54.8661C7.56342 57.2382 11.2612 58.5381 15.2999 58.5381C19.3283 58.5381 22.6058 57.0261 25.3363 53.9196L25.424 53.8253L22.1405 50.002Z" fill="white"/>
<path d="M28.7404 58.017H34.5402V30.7689H28.7404V58.017Z" fill="white"/>
<path d="M57.2629 52.0935C55.714 53.0007 54.2753 53.4583 52.9814 53.4583C51.106 53.4583 50.257 52.5039 50.257 50.3831V35.9245H56.1691V30.7954H50.257V22.3162L44.5736 25.246V30.7954H39.6676V35.9245H44.5736V51.3041C44.5736 55.4926 47.1531 58.3596 51.006 58.4342C53.6202 58.4833 55.1956 57.7332 56.1507 57.1834L56.2119 57.1461L57.6058 51.8912L57.2629 52.0935Z" fill="white"/>
<path d="M62.0638 58.017H67.8718V30.7689H62.0638V58.017Z" fill="white"/>
<path d="M71.2547 25.9926C65.9548 18.7702 57.1551 14.4619 48.2024 14.4619C39.2517 14.4619 30.4499 18.7702 25.1603 25.9926L24.8868 26.3638H31.5601L31.6336 26.2872C36.1742 21.7746 42.1046 19.3907 48.2024 19.3907C54.3001 19.3907 60.2265 21.7746 64.7773 26.2872L64.8508 26.3638H71.52L71.2547 25.9926Z" fill="#EE1C25"/>
</svg>
