<svg width="64" height="64" viewBox="0 0 64 64" fill="none" xmlns="http://www.w3.org/2000/svg">
<path fill-rule="evenodd" clip-rule="evenodd" d="M41.2291 23.4791C41.2291 29 37.125 33.4791 32.0208 33.4791C26.8958 33.4791 22.8125 29.0208 22.7916 23.5C22.7708 18.1041 26.9375 13.7083 32.0208 13.7083C37.1041 13.7083 41.2291 18.0625 41.2291 23.4791ZM26.9583 23.5C26.9583 26.875 29.2708 29.4583 32.0208 29.4583C34.7708 29.4583 37.0625 26.8333 37.0625 23.4791C37.0625 20.2291 34.7708 17.7291 32.0208 17.7291C29.2708 17.7291 26.9375 20.2708 26.9583 23.5ZM44.9166 52.9166C48.6041 52.9166 50.4166 51.7083 50.4166 49.125C50.4166 43.1875 43.0625 35.7708 32 35.7708C20.9375 35.7708 13.5833 43.1875 13.5833 49.125C13.5833 51.7083 15.3958 52.9166 19.1041 52.9166H44.9166ZM18.0833 48.3958C18.0833 48.75 18.25 48.8958 18.7083 48.8958H45.2916C45.75 48.8958 45.9166 48.75 45.9166 48.3958C45.9166 45.3958 40.875 39.7916 32 39.7916C23.125 39.7916 18.0833 45.3958 18.0833 48.3958Z" fill="#00FFAA"/>
</svg>
