<svg width="24" height="24" viewBox="0 0 24 24" fill="none" xmlns="http://www.w3.org/2000/svg">
<path fill-rule="evenodd" clip-rule="evenodd" d="M19.0391 18.9143C18.1641 19.8518 17.2188 20.2658 15.8438 20.2658C13.3828 20.2658 10.7266 18.9768 8.07031 16.3596C5.40625 13.7268 4.10938 11.008 4.10938 8.64083C4.10938 7.17208 4.53125 6.24239 5.5 5.34395C5.54688 5.29708 5.60938 5.24239 5.67188 5.1877C6.1875 4.7502 6.71875 4.53145 7.23438 4.53926C7.83594 4.54708 8.41406 4.85958 8.86719 5.50801L10.5781 7.94551C11.1094 8.70333 11.1406 9.57051 10.4766 10.2268L9.91406 10.7893C9.6875 11.0158 9.67969 11.2346 9.88281 11.5158C10.1875 11.9768 10.7266 12.5861 11.2422 13.1018C11.7656 13.6252 12.5234 14.2815 12.9453 14.5861C13.2266 14.7893 13.4453 14.7736 13.6719 14.5471L14.2344 13.9846C14.8906 13.3205 15.7578 13.3518 16.5156 13.883L18.8906 15.5315C19.5859 16.0158 19.8906 16.5549 19.8906 17.1565C19.8906 17.6565 19.6562 18.219 19.2109 18.7268C19.1836 18.758 19.1543 18.7893 19.125 18.8205C19.0957 18.8518 19.0664 18.883 19.0391 18.9143ZM9.13281 15.3205C11.4219 17.5783 13.8438 18.8986 15.8359 18.8752C16.6562 18.8674 17.3828 18.5705 17.8906 17.9924C17.9141 17.9611 17.9375 17.9318 17.9609 17.9025C17.9844 17.8732 18.0078 17.844 18.0312 17.8127C18.2109 17.6018 18.3047 17.3752 18.3047 17.1643C18.3047 16.9455 18.2188 16.7424 17.9766 16.5861L15.9062 15.219C15.6172 15.0236 15.2812 15.0158 15 15.3127L14.4375 15.883C13.8281 16.5158 13.1406 16.4611 12.6016 16.094C12.0703 15.719 11.0859 14.844 10.2891 14.0627C9.57031 13.3518 8.76562 12.4377 8.36719 11.8596C8 11.3205 7.94531 10.633 8.57812 10.0236L9.15625 9.46114C9.44531 9.17989 9.44531 8.85176 9.25 8.55489L7.8125 6.42208C7.65625 6.1877 7.45312 6.09395 7.22656 6.09395C7.02344 6.09395 6.79688 6.1877 6.58594 6.35958C6.52344 6.41426 6.46875 6.46114 6.40625 6.50801C5.82812 7.00801 5.53125 7.73458 5.52344 8.5627C5.5 10.5471 6.84375 13.0549 9.13281 15.3205Z" fill="black" fill-opacity="0.4"/>
</svg>
