<svg width="24" height="24" viewBox="0 0 24 24" fill="none" xmlns="http://www.w3.org/2000/svg">
<path fill-rule="evenodd" clip-rule="evenodd" d="M19.0391 18.914C18.1641 19.8515 17.2188 20.2656 15.8438 20.2656C13.3828 20.2656 10.7266 18.9765 8.07031 16.3593C5.40625 13.7265 4.10938 11.0078 4.10938 8.64058C4.10938 7.17183 4.53125 6.24215 5.5 5.34371C5.54688 5.29683 5.60938 5.24215 5.67188 5.18746C6.1875 4.74996 6.71875 4.53121 7.23438 4.53902C7.83594 4.54683 8.41406 4.85933 8.86719 5.50777L10.5781 7.94527C11.1094 8.70308 11.1406 9.57027 10.4766 10.2265L9.91406 10.789C9.6875 11.0156 9.67969 11.2343 9.88281 11.5156C10.1875 11.9765 10.7266 12.5859 11.2422 13.1015C11.7656 13.625 12.5234 14.2812 12.9453 14.5859C13.2266 14.789 13.4453 14.7734 13.6719 14.5468L14.2344 13.9843C14.8906 13.3203 15.7578 13.3515 16.5156 13.8828L18.8906 15.5312C19.5859 16.0156 19.8906 16.5546 19.8906 17.1562C19.8906 17.6562 19.6562 18.2187 19.2109 18.7265C19.1836 18.7578 19.1543 18.789 19.125 18.8203C19.0957 18.8515 19.0664 18.8828 19.0391 18.914ZM9.13281 15.3203C11.4219 17.5781 13.8438 18.8984 15.8359 18.875C16.6562 18.8671 17.3828 18.5703 17.8906 17.9921C17.9141 17.9609 17.9375 17.9316 17.9609 17.9023C17.9844 17.873 18.0078 17.8437 18.0312 17.8125C18.2109 17.6015 18.3047 17.375 18.3047 17.164C18.3047 16.9453 18.2188 16.7421 17.9766 16.5859L15.9062 15.2187C15.6172 15.0234 15.2812 15.0156 15 15.3125L14.4375 15.8828C13.8281 16.5156 13.1406 16.4609 12.6016 16.0937C12.0703 15.7187 11.0859 14.8437 10.2891 14.0625C9.57031 13.3515 8.76562 12.4375 8.36719 11.8593C8 11.3203 7.94531 10.6328 8.57812 10.0234L9.15625 9.4609C9.44531 9.17965 9.44531 8.85152 9.25 8.55465L7.8125 6.42183C7.65625 6.18746 7.45312 6.09371 7.22656 6.09371C7.02344 6.09371 6.79688 6.18746 6.58594 6.35933C6.52344 6.41402 6.46875 6.4609 6.40625 6.50777C5.82812 7.00777 5.53125 7.73433 5.52344 8.56246C5.5 10.5468 6.84375 13.0546 9.13281 15.3203Z" fill="white"/>
</svg>
