<svg width="24" height="24" viewBox="0 0 24 24" fill="none" xmlns="http://www.w3.org/2000/svg">
<path fill-rule="evenodd" clip-rule="evenodd" d="M12.0078 17.9609C12.3672 17.9609 12.8984 16.6172 12.8984 14.6719V9.75C14.2578 9.36719 15.2344 8.10938 15.2344 6.64062C15.2344 4.85156 13.8047 3.39844 12.0078 3.39844C10.2109 3.39844 8.77344 4.85156 8.77344 6.64062C8.77344 8.10938 9.75781 9.35938 11.1016 9.75V14.6719C11.1016 16.6094 11.6406 17.9609 12.0078 17.9609ZM11.0938 6.82812C10.5078 6.82812 9.99219 6.30469 9.99219 5.71094C9.99219 5.10938 10.5078 4.60938 11.0938 4.60938C11.7031 4.60938 12.1953 5.10938 12.1953 5.71094C12.1953 6.30469 11.7031 6.82812 11.0938 6.82812ZM20.3516 17.4219C20.3516 19.5078 17.1719 21.2109 12 21.2109C6.82812 21.2109 3.64844 19.5078 3.64844 17.4219C3.64844 15.2891 6.82812 13.8672 9.71875 13.6875V15.2812C7.79688 15.4062 5.58594 16.1953 5.58594 17.2969C5.58594 18.6484 8.27344 19.5547 12 19.5547C15.7188 19.5547 18.4062 18.6406 18.4062 17.2969C18.4062 16.1953 16.2031 15.4062 14.2734 15.2812V13.6875C17.1719 13.8672 20.3516 15.2891 20.3516 17.4219Z" fill="white"/>
</svg>
