<svg width="24" height="24" viewBox="0 0 24 24" fill="none" xmlns="http://www.w3.org/2000/svg">
<path fill-rule="evenodd" clip-rule="evenodd" d="M12 22C17.5228 22 22 17.5228 22 12C22 6.47715 17.5228 2 12 2C6.47715 2 2 6.47715 2 12C2 17.5228 6.47715 22 12 22ZM18.6786 12C18.6786 11.1964 18.0179 10.5357 17.2143 10.5357C16.8214 10.5357 16.4643 10.6964 16.1964 10.9464C15.1964 10.2321 13.8214 9.76786 12.2857 9.71429L12.9464 6.58929L15.125 7.05357C15.1429 7.60714 15.6071 8.05357 16.1607 8.05357C16.7321 8.05357 17.1964 7.58929 17.1964 7.01786C17.1964 6.44643 16.7321 5.98214 16.1607 5.98214C15.75 5.98214 15.3929 6.21429 15.2321 6.57143L12.8036 6.05357C12.7321 6.03571 12.6607 6.05357 12.6071 6.08929C12.5536 6.125 12.5 6.17857 12.5 6.25L11.75 9.73214C10.1964 9.76786 8.80357 10.2321 7.78571 10.9643C7.51786 10.7143 7.16071 10.5536 6.76786 10.5536C5.96429 10.5536 5.30357 11.2143 5.30357 12.0179C5.30357 12.6071 5.66071 13.125 6.16071 13.3393C6.14286 13.4821 6.125 13.625 6.125 13.7857C6.125 16.0357 8.73214 17.8571 11.9643 17.8571C15.1964 17.8571 17.8036 16.0357 17.8036 13.7857C17.8036 13.6573 17.7891 13.5289 17.7732 13.3874L17.7679 13.3393C18.3214 13.1071 18.6786 12.5893 18.6786 12ZM8.67857 13.0357C8.67857 12.4643 9.14286 12 9.71429 12C10.2857 12 10.75 12.4643 10.75 13.0357C10.75 13.6071 10.2857 14.0714 9.71429 14.0714C9.14286 14.0714 8.67857 13.6071 8.67857 13.0357ZM12 16.5536C12.4107 16.5536 13.7679 16.5 14.4821 15.7857C14.5893 15.6786 14.5893 15.5179 14.4464 15.4107C14.3393 15.3036 14.1786 15.3036 14.0714 15.4107C13.625 15.8571 12.6607 16.0179 11.9821 16.0179C11.3036 16.0179 10.3393 15.8571 9.89286 15.4107C9.78571 15.3036 9.625 15.3036 9.51786 15.4107C9.41071 15.5179 9.41071 15.6786 9.51786 15.7857C10.2321 16.5 11.6071 16.5536 12 16.5536ZM14.3036 14.0714C13.7321 14.0714 13.2679 13.6071 13.2679 13.0357C13.2679 12.4643 13.7321 12 14.3036 12C14.875 12 15.3393 12.4643 15.3393 13.0357C15.3393 13.6071 14.875 14.0714 14.3036 14.0714Z" fill="black" fill-opacity="0.6"/>
</svg>
