<svg width="48" height="48" viewBox="0 0 48 48" fill="none" xmlns="http://www.w3.org/2000/svg">
<path fill-rule="evenodd" clip-rule="evenodd" d="M42.5513 16.3139C42.8732 17.1992 43.1952 18.0845 43.4366 19.0503C44.2415 22.3501 44.2414 25.6499 43.3561 28.9497C43.1952 29.5936 43.0342 30.2374 42.7928 30.8008C42.3099 32.0885 41.9879 32.8934 41.2636 34.1006C41.2233 34.1811 41.1831 34.2414 41.1429 34.3018C41.1026 34.3622 41.0624 34.4225 41.0221 34.503L40.2978 35.5493C39.9759 36.0322 39.6539 36.4346 39.2515 36.9175C38.2857 38.1247 37.6419 38.6881 36.5151 39.6539C35.8712 40.2173 34.4225 41.1831 33.6177 41.5855C32.008 42.3903 30.6398 43.0342 28.8692 43.4366C26.6962 44 25.5694 44 23.3159 44C20.66 44 17.8431 43.1952 15.5091 42.1489C14.5433 41.7465 13.2555 40.9417 12.4507 40.3783C9.87525 38.6076 7.70221 36.1127 6.25352 33.2958C5.20724 31.3642 4.4829 29.1911 4.16097 26.9376C4 25.4085 4 24.8451 4 23.3964C4 22.5916 4.08048 21.7867 4.24145 20.9819C4.32193 20.2575 4.4829 19.6137 4.64386 18.9698C4.72435 18.6479 4.82495 18.3461 4.92555 18.0443C5.02616 17.7425 5.12676 17.4406 5.20724 17.1187C5.44869 16.4748 5.85111 15.5895 6.17304 14.9457L6.8169 13.7384L7.7827 12.2897C7.86318 12.169 7.94366 12.0684 8.02414 11.9678C8.10463 11.8672 8.18511 11.7666 8.26559 11.6459C8.50704 11.4044 8.66801 11.163 8.82897 10.9215C8.92846 10.8718 8.96646 10.822 9.01897 10.7533C9.05142 10.7108 9.08942 10.6611 9.15091 10.5996L10.0362 9.71429L10.0362 9.71427C10.4386 9.31186 10.8411 8.90945 11.3239 8.50704C12.2897 7.7827 12.6117 7.54125 13.497 6.97787C13.5775 6.93763 13.6378 6.89738 13.6982 6.85714C13.7586 6.8169 13.8189 6.77666 13.8994 6.73642C13.9799 6.69618 14.0402 6.65594 14.1006 6.61569C14.161 6.57545 14.2213 6.53521 14.3018 6.49497C14.3449 6.4734 14.3823 6.45762 14.417 6.44296C14.5117 6.40293 14.5864 6.37136 14.7042 6.25352C15.1268 6.01207 15.6851 5.77063 16.2435 5.52918C16.4296 5.44869 16.6157 5.36821 16.7968 5.28773C18.326 4.72435 20.0161 4.24145 21.7062 4.08048C22.0282 4.08048 22.5111 4.08048 22.833 4H24.6036C25.1036 4 25.6036 4.06339 26.1598 4.13391C26.2304 4.14285 26.3018 4.15191 26.3742 4.16097C29.674 4.56338 32.5714 5.69014 35.3078 7.54125C35.7907 7.86318 36.1932 8.18511 36.6761 8.58753C37.2394 9.07042 38.5272 10.2777 38.9296 10.7606L39.7344 11.7264C39.9759 11.9678 40.1368 12.2093 40.2978 12.4507C40.8612 13.1751 41.7465 14.6237 42.1489 15.5091C42.2528 15.665 42.3232 15.8209 42.4034 15.9985C42.4474 16.0959 42.4943 16.1998 42.5513 16.3139ZM39.6117 13.0984C39.5198 12.9672 39.4258 12.8332 39.3319 12.6923C39.2514 12.6118 38.3661 11.5655 38.3661 11.4045H32.2494L32.3299 11.5655C32.8128 12.3703 33.2152 13.1752 33.5371 14.0605L34.02 15.5092C34.1005 15.8311 34.181 16.0725 34.2615 16.314C34.2615 16.475 34.3419 16.9579 34.4224 17.1188H41.6659C41.6207 17.0736 41.6009 17.0031 41.5779 16.9214C41.56 16.8576 41.5402 16.787 41.5049 16.7164L41.183 15.9116C41.1427 15.8311 41.1226 15.7707 41.1025 15.7104C41.0824 15.65 41.0623 15.5897 41.022 15.5092C40.7806 15.0263 40.5391 14.5434 40.2172 14.0605C40.0462 13.7185 39.8348 13.4169 39.6117 13.0984ZM30.8008 6.17315C29.674 5.77073 28.3863 5.36832 27.1791 5.20735C26.8571 5.20735 26.5352 5.12687 26.2133 5.04639L27.0181 5.60977C27.1791 5.77073 27.2595 5.85122 27.4205 5.9317C27.5815 6.09266 27.6619 6.17315 27.8229 6.25363L28.5473 6.89749L28.7082 7.05846C29.4326 7.70232 31.2032 9.71439 31.6056 10.4387H37.4004C37.2394 10.2778 36.998 10.1168 36.7566 9.95587L36.7565 9.95584C35.7907 8.99005 35.0664 8.42667 33.8591 7.70232C33.4567 7.46087 33.0543 7.21942 32.5714 6.97798L30.8008 6.17315ZM25.4084 5.60977C25.2474 5.4488 24.6036 5.04639 24.5231 5.04639V10.4387H30.3983L28.5472 8.10474C28.4265 7.98401 28.3058 7.88341 28.185 7.78281C28.0643 7.6822 27.9436 7.5816 27.8229 7.46087L27.4205 7.13894C27.3294 7.07065 27.1546 6.93152 26.9435 6.76346C26.4082 6.33735 25.6393 5.7252 25.4084 5.60977ZM31.1227 11.485H24.5231V17.1993H33.4567C33.4567 16.8773 32.9738 15.2677 32.8128 14.8653C32.7624 14.7477 32.7155 14.6371 32.6707 14.5314C32.5007 14.1304 32.36 13.7987 32.1689 13.4166L31.2836 11.8069C31.2529 11.7454 31.2222 11.7074 31.1959 11.675C31.1534 11.6225 31.1227 11.5845 31.1227 11.485ZM23.5573 10.4387V5.04639C23.3963 5.12687 22.8329 5.52928 22.7524 5.69025C22.4099 5.88597 22.0972 6.14118 21.778 6.40162C21.5722 6.56958 21.3636 6.73972 21.1428 6.89749L18.9697 8.90957C18.8344 9.07201 18.6808 9.23445 18.5243 9.39996C18.2156 9.72646 17.8956 10.0649 17.682 10.4387H23.5573ZM23.5573 17.1188V11.485H16.8772C16.8772 11.5655 16.6357 11.9679 16.5552 12.0484C16.1528 12.7727 15.9114 13.2556 15.5895 14.0604C15.348 14.5433 15.187 14.9458 15.0261 15.5091C15.0035 15.5995 14.9618 15.7407 14.9136 15.9041C14.7902 16.3227 14.6237 16.8872 14.6237 17.1188H23.5573ZM11.163 9.9558L10.9215 10.1973C10.841 10.2777 10.7605 10.3582 10.6801 10.5997H16.3943C16.5553 10.1973 17.4406 9.07049 17.6821 8.82904L18.165 8.26566C18.4064 7.94373 19.6941 6.73649 20.0966 6.41456C20.1368 6.37432 20.177 6.3542 20.2173 6.33407C20.2575 6.31395 20.2978 6.29383 20.338 6.25359C20.665 5.98111 21.1027 5.67172 21.4512 5.42538C21.6173 5.30792 21.7632 5.20479 21.8672 5.12683C21.5452 5.12683 21.2233 5.12683 20.9014 5.20731C20.7435 5.23889 20.5794 5.27046 20.4122 5.30264C19.727 5.43452 18.9887 5.57661 18.4064 5.77069C15.831 6.65601 13.0945 8.1047 11.163 9.9558ZM7.07288 15.3409C7.04663 15.4097 7.02763 15.4594 6.97789 15.5092C6.73644 15.9921 6.41451 16.7164 6.25354 17.1188H13.5775C13.5775 16.8873 13.744 16.3227 13.8675 15.9041C13.9157 15.7407 13.9573 15.5996 13.9799 15.5092C14.0336 15.1872 14.1587 14.8653 14.2839 14.5434C14.3465 14.3824 14.4091 14.2214 14.4628 14.0605C14.7847 13.2556 15.1871 12.4508 15.5896 11.7265C15.67 11.646 15.7505 11.485 15.7505 11.4045H10.0362C9.79479 11.4045 9.7143 11.4045 9.63382 11.485C9.52721 11.5916 9.26369 11.9493 8.98876 12.3225C8.64102 12.7944 8.27502 13.2912 8.18513 13.3361L7.46078 14.5434C7.29982 14.7848 7.21933 14.9458 7.13885 15.1872C7.10811 15.2487 7.08911 15.2985 7.07288 15.3409ZM9.12886 35.8355C9.37798 36.1494 9.63382 36.4718 9.63382 36.5151H15.7505C15.7505 36.5151 14.5433 34.2615 13.9799 32.4104C13.8189 32.008 13.5775 31.2032 13.5775 30.8008H6.25354C6.39151 31.0307 6.52948 31.3658 6.66745 31.7009C6.77093 31.9522 6.87441 32.2035 6.97789 32.4104L8.66803 35.2273C8.70524 35.3018 8.91457 35.5655 9.12886 35.8355ZM14.1408 40.2978C15.9919 41.4246 17.9235 42.1489 20.016 42.6318C20.4184 42.7123 21.3038 42.8733 21.9476 42.8733L21.1428 42.3099C20.4184 41.7465 18.8088 40.3783 18.3259 39.7344C18.3015 39.7101 18.2698 39.6857 18.2351 39.6591C18.1553 39.5978 18.0601 39.5247 18.004 39.4125C17.9516 39.3514 17.8973 39.2884 17.8417 39.2239C17.3851 38.6938 16.8423 38.0637 16.5553 37.5614H10.7605C10.8142 37.6687 10.9393 37.776 11.0645 37.8833C11.1271 37.937 11.1897 37.9906 11.2434 38.0443L11.4848 38.2857L11.7263 38.5272L11.8873 38.6882C11.9215 38.6882 11.9411 38.6882 11.9586 38.6943C11.9823 38.7027 12.0019 38.7224 12.0482 38.7686C12.2092 38.8491 12.2897 38.9296 12.3702 39.0101C12.4506 39.0906 12.5512 39.1711 12.6518 39.2515C12.7524 39.332 12.8531 39.4125 12.9335 39.493C13.2555 39.7344 13.7384 40.0564 14.1408 40.2978ZM21.8134 41.6706C22.4667 42.1801 23.2861 42.8191 23.5573 42.8733L23.4768 37.481H17.6016C17.7625 37.6419 17.843 37.7224 17.9235 37.8834L19.2112 39.4125C19.4597 39.7108 19.8003 40.009 20.1193 40.2882C20.3168 40.4612 20.506 40.6269 20.6599 40.7808L21.0623 41.1027C21.2198 41.2077 21.4972 41.424 21.8134 41.6706ZM16.8772 36.5151H23.5573L23.4768 30.8008H14.5432C14.7042 31.7666 15.348 33.6982 15.8309 34.5835L16.5553 35.8712C16.5553 35.9517 16.6358 36.1127 16.7163 36.1931C16.747 36.2546 16.7777 36.3044 16.804 36.3468C16.8465 36.4156 16.8772 36.4653 16.8772 36.5151ZM28.4667 39.8149C29.0301 39.2515 29.9959 38.2053 30.3983 37.5614H24.5231V42.9538C24.845 42.8733 26.6156 41.5051 27.018 41.1831L28.1448 40.2173C28.2253 40.0564 28.3058 39.9759 28.4667 39.8149ZM24.5231 30.8813V36.5152V36.5956H31.1227C31.1227 36.4347 31.2032 36.3542 31.2836 36.2737C31.6861 35.6298 32.2494 34.5031 32.4909 33.9397C32.6518 33.6983 32.7323 33.4568 32.8128 33.2154L32.8128 33.2154C32.9738 32.7325 33.4567 31.2838 33.4567 30.8813H24.5231ZM35.7102 39.0101L36.2736 38.5272C36.4167 38.4199 36.6234 38.249 36.83 38.0781C37.0884 37.8645 37.3467 37.6508 37.4809 37.5614H31.6861C31.637 37.6596 31.6179 37.6979 31.5921 37.7311C31.5757 37.7523 31.5565 37.7715 31.5251 37.8028L31.3642 37.9638L30.4789 39.0906C29.996 39.7344 28.5473 41.1831 28.1448 41.5051L26.2133 42.9538C26.5352 42.9538 26.8571 42.9538 27.1791 42.8733C30.0764 42.3904 32.7324 41.1831 35.1469 39.493C35.2273 39.4125 35.328 39.332 35.4286 39.2515C35.5292 39.1711 35.6298 39.0906 35.7102 39.0101ZM41.2635 32.0886L41.5854 31.2838C41.6659 31.1228 41.7464 30.9618 41.6659 30.8813H34.4224L34.02 32.491C33.5164 34.2895 33.2701 34.7376 32.5337 36.077C32.4463 36.2361 32.3519 36.4077 32.2494 36.5956H38.3661L39.3319 35.3079C39.9757 34.5031 40.8611 32.9739 41.2635 32.0886ZM42.3902 28.9094C42.4104 28.7887 42.4305 28.668 42.4707 28.5473C42.8731 27.0986 43.0341 25.4889 42.8731 23.9597V22.3501C42.7927 21.2233 42.5512 19.7746 42.2293 18.7283C42.2293 18.4869 42.1488 18.2454 42.0683 18.0845H5.85101C5.85101 18.2454 5.77053 18.4869 5.69004 18.7283C5.20715 20.338 4.9657 22.2696 4.9657 23.9597V24.7646C4.9657 24.8853 4.98582 25.0261 5.00594 25.167C5.02606 25.3078 5.04618 25.4487 5.04618 25.5694C5.04618 26.1328 5.12666 26.6157 5.20715 27.0986C5.24739 27.34 5.30775 27.5815 5.36811 27.8229C5.42847 28.0644 5.48884 28.3058 5.52908 28.5473L5.93149 29.9155H42.1488C42.1488 29.835 42.2293 29.4326 42.3098 29.2716C42.35 29.1509 42.3701 29.0301 42.3902 28.9094ZM15.4969 28.1255C15.3876 28.1897 15.2141 28.1449 14.7043 28.1449C14.7043 27.8978 14.5222 26.255 14.3631 24.8187C14.263 23.9157 14.172 23.0943 14.1409 22.7525L13.8994 20.66C13.8106 20.2601 13.7217 20.1301 13.66 20.0396C13.6098 19.9662 13.5775 19.9189 13.5775 19.7747H15.992C15.992 19.9102 15.9412 19.9697 15.8825 20.0385C15.8366 20.0922 15.7858 20.1517 15.7506 20.2576C15.6701 20.4185 15.6701 20.66 15.6701 20.8209C15.6701 21.4461 15.778 22.352 15.8821 23.2254C15.9789 24.0385 16.0725 24.8235 16.0725 25.328C16.153 25.328 16.5554 24.5231 16.6359 24.3622L19.0504 19.9356H19.7747C19.7747 20.1771 19.7948 20.3984 19.8149 20.6197C19.8351 20.8411 19.8552 21.0624 19.8552 21.3038C19.8552 21.7287 19.9449 22.6469 20.0296 23.5139C20.1053 24.2894 20.1771 25.024 20.1771 25.328C20.2395 25.328 20.3503 25.0861 20.4344 24.9024C20.4588 24.8491 20.481 24.8008 20.499 24.7646L21.7868 22.2696C21.9477 22.0282 22.0282 21.8672 22.1087 21.6258C22.6429 20.4387 22.608 20.3021 22.5529 20.0863C22.5333 20.0094 22.5111 19.9226 22.5111 19.7747H24.1208C24.1208 19.8814 24.1208 19.9095 24.1069 19.9215C24.0893 19.9367 24.0496 19.9263 23.9598 20.0161C23.8601 20.1158 23.6677 20.4627 23.4975 20.7696C23.3929 20.9581 23.2967 21.1315 23.2355 21.2234L22.994 21.7062L21.6258 24.3622C21.5453 24.6036 21.4648 24.7646 21.3844 24.9256C21.1731 25.2073 20.1607 27.276 19.857 27.8966C19.8137 27.9852 19.7848 28.0443 19.7747 28.0644C19.0718 28.0644 18.87 28.0957 18.8177 28.0216C18.7861 27.9769 18.8089 27.8938 18.8089 27.7425L18.487 24.3622C18.4065 24.1207 18.4065 23.9598 18.4065 23.6378C18.4065 23.5655 18.3902 23.4606 18.3723 23.3451C18.3504 23.2037 18.326 23.0464 18.326 22.9135L18.2455 22.994C18.0041 23.3964 17.7425 23.9195 17.4809 24.4427C17.2194 24.9658 16.9578 25.4889 16.7163 25.8914C16.6666 25.9411 16.6476 25.9908 16.6213 26.0596C16.6051 26.1021 16.5861 26.1518 16.5554 26.2133L15.831 27.5815C15.6411 27.9234 15.5946 28.0681 15.4969 28.1255ZM10.6248 23.272C9.90296 22.8049 9.23138 22.3703 9.23138 21.6257C9.23138 20.4185 10.3581 20.0161 11.3239 20.2575C11.4849 20.3112 11.5743 20.3648 11.6637 20.4185C11.7085 20.4453 11.7532 20.4721 11.8068 20.499C12.0483 20.7404 12.2897 21.1428 12.2897 21.4648H12.4507C12.4507 21.3924 12.5157 21.1412 12.5873 20.8646C12.6751 20.5258 12.7726 20.149 12.7726 20.0161C12.3702 19.7746 11.163 19.6136 10.7606 19.6136C10.6132 19.6382 10.4734 19.6553 10.3388 19.6717C10.0321 19.7091 9.75248 19.7432 9.47282 19.8551C8.98993 20.0161 8.58751 20.338 8.26558 20.6599C7.94365 20.9014 7.7022 21.5452 7.7022 22.1086C7.7022 23.1792 8.42875 23.7412 9.1225 24.2778C9.15892 24.3059 9.19525 24.334 9.23138 24.3621C9.35052 24.4664 9.48345 24.5679 9.61945 24.6717C10.2184 25.129 10.8768 25.6318 10.6801 26.6157C10.5191 27.179 9.95572 27.6619 9.23138 27.6619C8.58751 27.6619 8.02413 27.6619 7.62172 27.179C7.38027 26.9376 7.13882 26.4547 7.13882 25.9718C7.03934 26.0215 7.03208 26.0713 7.02205 26.14C7.01585 26.1825 7.0086 26.2322 6.97785 26.2937C6.90957 26.6579 6.83486 26.9191 6.77918 27.1137C6.638 27.6072 6.61932 27.6725 7.13882 27.9034C7.29979 27.9034 7.54123 27.9839 7.7022 28.0644C8.668 28.3058 9.79476 28.3863 10.6801 28.0644C11.002 27.9839 11.3239 27.8229 11.5654 27.5815C11.8068 27.34 11.9678 27.0986 12.1288 26.7766C12.2897 26.4547 12.3702 26.1328 12.3702 25.5694C12.3702 24.4015 11.4636 23.8148 10.6248 23.272ZM29.1199 23.9718C29.3962 23.0209 30.0764 20.6808 30.0764 20.2576C30.0764 20.2106 30.0627 20.1705 30.0493 20.1312C30.0167 20.0359 29.9859 19.9457 30.1569 19.7747H35.1468C35.3078 19.7747 35.2273 19.9356 35.1468 20.0966C35.1066 20.1771 35.0865 20.2374 35.0663 20.2978C35.0462 20.3582 35.0261 20.4185 34.9858 20.499C34.9668 20.556 34.9434 20.622 34.9186 20.6916C34.8383 20.917 34.7444 21.1809 34.7444 21.3038C34.5725 21.3038 34.5612 21.2809 34.5146 21.186C34.4738 21.1032 34.4061 20.9655 34.181 20.7405C34.0201 20.5795 33.6981 20.4185 33.3762 20.4185C33.1482 20.4185 32.9555 20.4135 32.7919 20.4092C32.0315 20.3893 31.899 20.3858 31.7665 20.9819L31.0422 23.5574C31.4446 23.5574 32.8128 23.5574 33.1347 23.4769C33.2957 23.4366 33.3561 23.3763 33.4064 23.326C33.4567 23.2757 33.4969 23.2354 33.6176 23.2354C33.5774 23.3561 33.5372 23.497 33.4969 23.6378C33.4567 23.7787 33.4164 23.9195 33.3762 24.0403C33.3253 24.2185 33.2985 24.3564 33.2781 24.4617C33.2339 24.6894 33.2193 24.7646 33.0543 24.7646C32.9738 24.3622 32.6518 24.2817 32.2494 24.2012H30.8812L30.3983 25.8914C29.862 27.5003 29.9434 27.6973 30.0218 27.8872C30.0493 27.9538 30.0764 28.0195 30.0764 28.1449H27.5814V27.9839C27.9034 27.9034 28.0643 27.5815 28.1448 27.2596C28.4425 26.4408 28.7402 25.3468 28.9743 24.4866C28.9933 24.4167 29.012 24.3483 29.0301 24.2817C29.05 24.2121 29.0809 24.1057 29.1199 23.9718ZM35.3364 21.1243C35.26 21.2363 35.2139 21.3039 35.0663 21.3039C35.0663 21.0624 35.2273 20.7405 35.3883 20.66C35.3962 20.6281 35.4042 20.5955 35.4122 20.5625C35.4855 20.2623 35.5652 19.9357 35.7102 19.9357H41.7464C41.7464 20.0966 41.5854 20.5795 41.505 20.7405C41.4478 20.8835 41.4211 21.0061 41.3996 21.1049C41.3605 21.284 41.3387 21.3844 41.183 21.3844C41.0221 20.9015 40.5392 20.499 39.9758 20.499C39.4288 20.499 39.2907 20.4619 39.2331 20.5139C39.206 20.5384 39.1967 20.5827 39.171 20.66C39.0636 21.0356 38.9563 21.4202 38.849 21.8047C38.6344 22.5738 38.4198 23.3428 38.2052 24.0403L37.7223 25.8109C37.682 25.9719 37.6418 26.1127 37.6015 26.2536C37.5613 26.3944 37.521 26.5353 37.4808 26.6962C37.2087 27.6758 37.2678 27.7722 37.3346 27.8812C37.3666 27.9335 37.4003 27.9886 37.4003 28.1449H34.9858V27.984C35.3129 27.9185 35.5337 27.1618 35.6913 26.6215C35.7276 26.4971 35.7605 26.3842 35.7907 26.2938L37.4808 20.4186C37.344 20.4186 37.2182 20.4149 37.1001 20.4115C36.6624 20.3989 36.332 20.3894 35.9516 20.5795C35.5592 20.7975 35.4267 20.9919 35.3364 21.1243ZM25.479 20.5777C25.4889 20.4978 25.4889 20.4167 25.4889 20.1771C25.4889 19.989 25.3423 19.8864 25.3584 19.8312C25.3837 19.7447 25.8084 19.7747 27.8229 19.7747V19.9356C27.5009 20.0161 27.34 20.3381 27.2595 20.66C26.9618 21.4787 26.664 22.5728 26.43 23.433C26.4109 23.5029 26.3923 23.5713 26.3742 23.6379C26.2937 23.9598 26.1931 24.2817 26.0925 24.6037C25.9919 24.9256 25.8913 25.2475 25.8108 25.5695L25.5693 26.5352C25.2944 27.5251 25.3576 27.6508 25.4252 27.7851C25.4566 27.8474 25.4889 27.9115 25.4889 28.0644H22.9939C23.0316 27.989 23.0693 27.9666 23.1153 27.9393C23.1674 27.9082 23.2303 27.8708 23.3158 27.7425C23.6378 27.4206 24.845 23.0745 25.006 22.4306L25.4084 20.9819C25.4489 20.7386 25.4691 20.6588 25.479 20.5777Z" fill="white"/>
</svg>
