<svg width="264" height="264" viewBox="0 0 264 264" fill="none" xmlns="http://www.w3.org/2000/svg">
<mask id="mask0_104_2631" style="mask-type:alpha" maskUnits="userSpaceOnUse" x="0" y="0" width="264" height="264">
<rect width="264" height="264" rx="24" fill="white"/>
</mask>
<g mask="url(#mask0_104_2631)">
<rect width="264" height="264" rx="24" fill="#00BBFF"/>
<path d="M109.543 192.133C110.059 192.391 110.059 192.907 109.543 193.165C109.027 193.423 108.253 193.423 107.737 193.165C107.221 192.907 107.221 192.391 107.737 192.133C108.253 191.875 109.027 191.875 109.543 192.133Z" fill="#212429"/>
<path d="M114.188 189.552C114.704 189.81 114.704 190.326 114.188 190.584C113.672 190.842 112.898 190.842 112.382 190.584C111.866 190.326 111.866 189.81 112.382 189.552C112.898 189.294 113.672 189.036 114.188 189.552Z" fill="#212429"/>
<path d="M108.769 188.005C109.482 188.005 110.059 187.658 110.059 187.231C110.059 186.803 109.482 186.457 108.769 186.457C108.057 186.457 107.479 186.803 107.479 187.231C107.479 187.658 108.057 188.005 108.769 188.005Z" fill="#212429"/>
<path d="M142.827 210.709C143.343 210.967 143.343 211.483 142.827 211.741C142.311 211.999 141.537 211.999 141.021 211.741C140.505 211.483 140.505 210.967 141.021 210.709C141.537 210.451 142.311 210.451 142.827 210.709Z" fill="#212429"/>
<path d="M147.471 208.129C147.987 208.387 147.987 208.903 147.471 209.161C146.955 209.419 146.181 209.419 145.665 209.161C145.149 208.903 145.149 208.387 145.665 208.129C146.181 207.871 146.955 207.871 147.471 208.129Z" fill="#212429"/>
<path d="M152.115 205.291C152.631 205.549 152.631 206.065 152.115 206.323C151.599 206.581 150.825 206.581 150.309 206.323C149.793 206.065 149.793 205.549 150.309 205.291C150.825 205.033 151.599 205.033 152.115 205.291Z" fill="#212429"/>
<path d="M157.018 202.71C157.534 202.968 157.534 203.484 157.018 203.742C156.502 204 155.728 204 155.211 203.742C154.695 203.484 154.695 202.968 155.211 202.71C155.728 202.452 156.502 202.452 157.018 202.71Z" fill="#212429"/>
<path d="M161.662 199.873C162.178 200.131 162.178 200.647 161.662 200.905C161.146 201.163 160.372 201.163 159.856 200.905C159.34 200.647 159.34 200.131 159.856 199.873C160.372 199.615 161.146 199.615 161.662 199.873Z" fill="#212429"/>
<path d="M165.532 198.582C166.244 198.582 166.822 198.236 166.822 197.808C166.822 197.381 166.244 197.034 165.532 197.034C164.82 197.034 164.242 197.381 164.242 197.808C164.242 198.236 164.82 198.582 165.532 198.582Z" fill="#212429"/>
<path d="M170.176 195.745C170.889 195.745 171.466 195.398 171.466 194.971C171.466 194.543 170.889 194.197 170.176 194.197C169.464 194.197 168.886 194.543 168.886 194.971C168.886 195.398 169.464 195.745 170.176 195.745Z" fill="#212429"/>
<path d="M132.506 212C133.219 212 133.797 211.654 133.797 211.226C133.797 210.799 133.219 210.452 132.506 210.452C131.794 210.452 131.216 210.799 131.216 211.226C131.216 211.654 131.794 212 132.506 212Z" fill="#212429"/>
<path d="M137.151 209.419C137.863 209.419 138.441 209.073 138.441 208.645C138.441 208.218 137.863 207.871 137.151 207.871C136.438 207.871 135.861 208.218 135.861 208.645C135.861 209.073 136.438 209.419 137.151 209.419Z" fill="#212429"/>
<path d="M142.827 205.291C143.343 205.549 143.343 206.065 142.827 206.323C142.311 206.581 141.537 206.581 141.021 206.323C140.505 206.065 140.505 205.549 141.021 205.291C141.537 205.033 142.311 205.033 142.827 205.291Z" fill="#212429"/>
<path d="M146.697 204.001C147.41 204.001 147.987 203.655 147.987 203.227C147.987 202.8 147.41 202.453 146.697 202.453C145.985 202.453 145.407 202.8 145.407 203.227C145.407 203.655 145.985 204.001 146.697 204.001Z" fill="#212429"/>
<path d="M152.115 199.873C152.631 200.131 152.631 200.647 152.115 200.905C151.599 201.163 150.825 201.163 150.309 200.905C149.793 200.647 149.793 200.131 150.309 199.873C150.825 199.615 151.599 199.615 152.115 199.873Z" fill="#212429"/>
<path d="M155.986 198.582C156.698 198.582 157.276 198.236 157.276 197.808C157.276 197.381 156.698 197.034 155.986 197.034C155.273 197.034 154.696 197.381 154.696 197.808C154.696 198.236 155.273 198.582 155.986 198.582Z" fill="#212429"/>
<path d="M161.662 194.455C162.178 194.713 162.178 195.229 161.662 195.487C161.146 195.745 160.372 195.745 159.856 195.487C159.34 195.229 159.34 194.713 159.856 194.455C160.372 194.197 161.146 194.197 161.662 194.455Z" fill="#212429"/>
<path d="M166.306 191.875C166.822 192.133 166.822 192.649 166.306 192.907C165.79 193.165 165.016 193.165 164.5 192.907C163.984 192.649 163.984 192.133 164.5 191.875C165.016 191.359 165.79 191.359 166.306 191.875Z" fill="#212429"/>
<path d="M171.208 189.037C171.724 189.295 171.724 189.811 171.208 190.069C170.692 190.327 169.918 190.327 169.402 190.069C168.886 189.811 168.886 189.295 169.402 189.037C169.66 188.779 170.692 188.779 171.208 189.037Z" fill="#212429"/>
<path d="M128.636 208.129C129.152 208.387 129.152 208.903 128.636 209.161C128.12 209.419 127.346 209.419 126.83 209.161C126.314 208.903 126.314 208.387 126.83 208.129C127.346 207.871 128.12 207.871 128.636 208.129Z" fill="#212429"/>
<path d="M133.28 205.291C133.797 205.549 133.797 206.065 133.28 206.323C132.764 206.581 131.99 206.581 131.474 206.323C130.958 206.065 130.958 205.549 131.474 205.291C131.99 205.033 132.764 205.033 133.28 205.291Z" fill="#212429"/>
<path d="M138.183 202.71C138.699 202.968 138.699 203.484 138.183 203.742C137.667 204 136.893 204 136.377 203.742C135.861 203.484 135.861 202.968 136.377 202.71C136.893 202.452 137.667 202.452 138.183 202.71Z" fill="#212429"/>
<path d="M142.827 199.873C143.343 200.131 143.343 200.647 142.827 200.905C142.311 201.163 141.537 201.163 141.021 200.905C140.505 200.647 140.505 200.131 141.021 199.873C141.537 199.615 142.311 199.615 142.827 199.873Z" fill="#212429"/>
<path d="M147.471 197.293C147.987 197.551 147.987 198.067 147.471 198.325C146.955 198.583 146.181 198.583 145.665 198.325C145.149 198.067 145.149 197.551 145.665 197.293C146.181 197.035 146.955 197.035 147.471 197.293Z" fill="#212429"/>
<path d="M151.341 195.745C152.054 195.745 152.631 195.398 152.631 194.971C152.631 194.543 152.054 194.197 151.341 194.197C150.629 194.197 150.051 194.543 150.051 194.971C150.051 195.398 150.629 195.745 151.341 195.745Z" fill="#212429"/>
<path d="M155.986 193.165C156.698 193.165 157.276 192.818 157.276 192.391C157.276 191.963 156.698 191.617 155.986 191.617C155.273 191.617 154.696 191.963 154.696 192.391C154.696 192.818 155.273 193.165 155.986 193.165Z" fill="#212429"/>
<path d="M160.63 190.326C161.342 190.326 161.92 189.98 161.92 189.552C161.92 189.125 161.342 188.778 160.63 188.778C159.917 188.778 159.34 189.125 159.34 189.552C159.34 189.98 159.917 190.326 160.63 190.326Z" fill="#212429"/>
<path d="M165.532 187.488C166.244 187.488 166.822 187.142 166.822 186.714C166.822 186.287 166.244 185.94 165.532 185.94C164.82 185.94 164.242 186.287 164.242 186.714C164.242 187.142 164.82 187.488 165.532 187.488Z" fill="#212429"/>
<path d="M170.176 184.908C170.889 184.908 171.466 184.562 171.466 184.134C171.466 183.707 170.889 183.36 170.176 183.36C169.464 183.36 168.886 183.707 168.886 184.134C168.886 184.562 169.464 184.908 170.176 184.908Z" fill="#212429"/>
<path d="M122.96 206.581C123.672 206.581 124.25 206.235 124.25 205.807C124.25 205.38 123.672 205.033 122.96 205.033C122.248 205.033 121.67 205.38 121.67 205.807C121.67 206.235 122.248 206.581 122.96 206.581Z" fill="#212429"/>
<path d="M128.636 202.711C129.152 202.969 129.152 203.485 128.636 203.743C128.12 204.001 127.346 204.001 126.83 203.743C126.314 203.485 126.314 202.969 126.83 202.711C127.346 202.195 128.12 202.195 128.636 202.711Z" fill="#212429"/>
<path d="M133.28 199.873C133.797 200.131 133.797 200.647 133.28 200.905C132.764 201.163 131.99 201.163 131.474 200.905C130.958 200.647 130.958 200.131 131.474 199.873C131.99 199.615 132.764 199.615 133.28 199.873Z" fill="#212429"/>
<path d="M137.151 198.582C137.863 198.582 138.441 198.236 138.441 197.808C138.441 197.381 137.863 197.034 137.151 197.034C136.438 197.034 135.861 197.381 135.861 197.808C135.861 198.236 136.438 198.582 137.151 198.582Z" fill="#212429"/>
<path d="M142.827 194.455C143.343 194.713 143.343 195.229 142.827 195.487C142.311 195.745 141.537 195.745 141.021 195.487C140.505 195.229 140.505 194.713 141.021 194.455C141.537 194.197 142.311 194.197 142.827 194.455Z" fill="#212429"/>
<path d="M147.471 191.617C147.987 191.875 147.987 192.391 147.471 192.649C146.955 192.907 146.181 192.907 145.665 192.649C145.149 192.391 145.149 191.875 145.665 191.617C146.181 191.359 146.955 191.359 147.471 191.617Z" fill="#212429"/>
<path d="M151.341 190.326C152.054 190.326 152.631 189.98 152.631 189.552C152.631 189.125 152.054 188.778 151.341 188.778C150.629 188.778 150.051 189.125 150.051 189.552C150.051 189.98 150.629 190.326 151.341 190.326Z" fill="#212429"/>
<path d="M155.986 187.488C156.698 187.488 157.276 187.142 157.276 186.714C157.276 186.287 156.698 185.94 155.986 185.94C155.273 185.94 154.696 186.287 154.696 186.714C154.696 187.142 155.273 187.488 155.986 187.488Z" fill="#212429"/>
<path d="M160.63 184.908C161.342 184.908 161.92 184.562 161.92 184.134C161.92 183.707 161.342 183.36 160.63 183.36C159.917 183.36 159.34 183.707 159.34 184.134C159.34 184.562 159.917 184.908 160.63 184.908Z" fill="#212429"/>
<path d="M165.532 182.07C166.244 182.07 166.822 181.723 166.822 181.296C166.822 180.868 166.244 180.522 165.532 180.522C164.82 180.522 164.242 180.868 164.242 181.296C164.242 181.723 164.82 182.07 165.532 182.07Z" fill="#212429"/>
<path d="M119.09 202.711C119.606 202.969 119.606 203.485 119.09 203.743C118.574 204.001 117.8 204.001 117.284 203.743C116.768 203.485 116.768 202.969 117.284 202.711C117.8 202.195 118.574 202.195 119.09 202.711Z" fill="#212429"/>
<path d="M123.992 199.873C124.508 200.131 124.508 200.647 123.992 200.905C123.476 201.163 122.702 201.163 122.186 200.905C121.67 200.647 121.67 200.131 122.186 199.873C122.702 199.615 123.476 199.615 123.992 199.873Z" fill="#212429"/>
<path d="M127.604 198.582C128.317 198.582 128.894 198.236 128.894 197.808C128.894 197.381 128.317 197.034 127.604 197.034C126.892 197.034 126.314 197.381 126.314 197.808C126.314 198.236 126.892 198.582 127.604 198.582Z" fill="#212429"/>
<path d="M114.446 199.873C114.962 200.131 114.962 200.647 114.446 200.905C113.93 201.163 113.156 201.163 112.64 200.905C112.124 200.647 112.124 200.131 112.64 199.873C113.156 199.615 113.93 199.615 114.446 199.873Z" fill="#212429"/>
<path d="M119.09 197.293C119.606 197.551 119.606 198.067 119.09 198.325C118.574 198.583 117.8 198.583 117.284 198.325C116.768 198.067 116.768 197.551 117.284 197.293C117.8 196.777 118.574 196.777 119.09 197.293Z" fill="#212429"/>
<path d="M123.992 194.455C124.508 194.713 124.508 195.229 123.992 195.487C123.476 195.745 122.702 195.745 122.186 195.487C121.67 195.229 121.67 194.713 122.186 194.455C122.702 194.197 123.476 194.197 123.992 194.455Z" fill="#212429"/>
<path d="M108.769 198.582C109.482 198.582 110.059 198.236 110.059 197.808C110.059 197.381 109.482 197.034 108.769 197.034C108.057 197.034 107.479 197.381 107.479 197.808C107.479 198.236 108.057 198.582 108.769 198.582Z" fill="#212429"/>
<path d="M114.446 194.455C114.962 194.713 114.962 195.229 114.446 195.487C113.93 195.745 113.156 195.745 112.64 195.487C112.124 195.229 112.124 194.713 112.64 194.455C113.156 194.197 113.93 194.197 114.446 194.455Z" fill="#212429"/>
<path d="M118.316 192.906C119.028 192.906 119.606 192.56 119.606 192.132C119.606 191.705 119.028 191.358 118.316 191.358C117.603 191.358 117.026 191.705 117.026 192.132C117.026 192.56 117.603 192.906 118.316 192.906Z" fill="#212429"/>
<path d="M134.829 100.022L160.114 114.729L132.507 195.745L105.931 180.264L78.582 67.5126L104.125 82.2193L115.478 137.95C117.8 150.334 119.09 158.591 119.348 162.977C119.606 160.139 120.122 156.527 120.896 152.399C121.67 148.27 122.444 144.916 122.96 142.594L134.829 100.022Z" fill="#00BBFF"/>
<path d="M104.383 52.2906L78.582 67.5133L104.125 82.2199L129.926 66.9973L104.383 52.2906Z" fill="#00BBFF"/>
<path d="M134.829 100.023L160.63 84.7999L186.173 99.5066L160.114 114.729L134.829 100.023Z" fill="#00BBFF"/>
<path d="M104.641 60.8047L80.3881 74.9954L80.9041 77.3175L104.125 90.7341L129.926 75.5114L104.641 60.8047Z" fill="#CBF1FF"/>
<path d="M134.829 108.536L160.63 93.3136L182.819 105.956L181.529 110.6L160.114 123.243L134.829 108.536Z" fill="#CBF1FF"/>
<path d="M160.63 83.5098L137.151 97.4425L130.7 66.223L104.383 51.0003L77.292 66.9971L104.899 180.78L132.507 196.777L159.082 181.038L186.947 98.9905L160.63 83.5098ZM160.63 85.8319L184.109 99.2485L170.95 106.989L160.114 113.439L145.923 105.183L136.635 99.7646L160.63 85.8319ZM104.383 53.3224L127.862 66.9971L103.867 81.1877L80.3881 67.5131L104.383 53.3224ZM106.705 179.748L80.1301 69.5772L103.351 82.9938L117.284 152.915V153.173L118.316 161.171L120.638 162.461L122.186 152.915L135.603 101.829L145.407 107.505L159.082 115.503L132.249 194.713L106.705 179.748Z" fill="#212429"/>
</g>
</svg>
