<svg width="48" height="48" viewBox="0 0 48 48" fill="none" xmlns="http://www.w3.org/2000/svg">
<path fill-rule="evenodd" clip-rule="evenodd" d="M33.8011 17.9216C33.1045 17.6588 32.0191 17.3798 30.6691 17.3798C27.2131 17.3798 24.7741 19.1222 24.7561 21.6188C24.7345 23.4548 26.4913 24.488 27.8179 25.1036C29.1805 25.7336 29.6359 26.1296 29.6323 26.6966C29.6233 27.5552 28.5433 27.944 27.5407 27.944C26.1619 27.944 25.4059 27.7514 24.2449 27.269L23.8147 27.0692L23.3269 29.9456C24.1657 30.2966 25.6777 30.5972 27.2419 30.6206C30.9157 30.6206 33.3169 28.8908 33.3457 26.2304C33.3745 24.767 32.4277 23.6564 30.4279 22.742C29.2147 22.148 28.4587 21.7502 28.4587 21.1472C28.4587 20.6144 29.1049 20.0456 30.4549 20.0456C31.6159 20.0276 32.4277 20.2778 33.0739 20.537L33.3979 20.6828L33.8857 17.9036L33.8011 17.9216ZM42.7704 17.6155H40.0704C39.2298 17.6155 38.6016 17.8441 38.2326 18.6793L33.0396 30.4405H36.7134L37.4478 28.5145L41.9298 28.5181C42.0396 28.9681 42.3618 30.4405 42.3618 30.4405H45.6L42.7704 17.6155ZM23.2854 17.5076H19.788V17.504L17.5992 30.3398H21.0984L23.2854 17.5076ZM10.8978 24.5797L11.2614 26.3617L14.6832 17.6155H18.3894L12.8796 30.4225H9.18242L6.15842 19.5757C6.09542 19.3903 6.01802 19.2643 5.83442 19.1491C4.81202 18.6145 3.66902 18.1789 2.40002 17.8765L2.44502 17.6065H8.08082C8.84402 17.6353 9.45962 17.8765 9.67022 18.6937L10.8978 24.5851V24.5797ZM38.4536 25.8846L38.4522 25.8882V25.8846H38.4536ZM38.4536 25.8846H41.3592L40.551 22.182L40.3116 21.075C40.2052 21.3661 40.0516 21.7645 39.9505 22.027C39.884 22.1996 39.8401 22.3133 39.8472 22.299L38.4536 25.8846Z" fill="white"/>
</svg>
